<mxfile host="Electron" modified="2023-07-26T10:06:25.544Z" agent="Mozilla/5.0 (Macintosh; Intel Mac OS X 10_15_7) AppleWebKit/537.36 (KHTML, like Gecko) draw.io/21.6.5 Chrome/114.0.5735.243 Electron/25.3.1 Safari/537.36" etag="5QiHLH6prDWHFItK-7x-" version="21.6.5" type="device" pages="3">
  <diagram name="Draw1" id="edyICs_L8XpLzPY84-p6">
    <mxGraphModel dx="1934" dy="1238" grid="1" gridSize="10" guides="1" tooltips="1" connect="1" arrows="1" fold="1" page="1" pageScale="1" pageWidth="1169" pageHeight="827" math="0" shadow="0">
      <root>
        <mxCell id="0" />
        <mxCell id="1" parent="0" />
        <mxCell id="nyQZCp3bkRx2eXuKA3Nu-49" value="" style="rounded=1;whiteSpace=wrap;html=1;dashed=1;strokeWidth=1;glass=0;shadow=0;comic=0;" vertex="1" parent="1">
          <mxGeometry x="380" y="80" width="350" height="650" as="geometry" />
        </mxCell>
        <mxCell id="nyQZCp3bkRx2eXuKA3Nu-48" value="SKAS POD" style="rounded=0;whiteSpace=wrap;html=1;verticalAlign=bottom;fontSize=26;strokeWidth=3;" vertex="1" parent="1">
          <mxGeometry x="420" y="290" width="270" height="400" as="geometry" />
        </mxCell>
        <mxCell id="nyQZCp3bkRx2eXuKA3Nu-11" value="skAuth" style="rounded=1;whiteSpace=wrap;html=1;fontSize=22;fillColor=#326138;" vertex="1" parent="1">
          <mxGeometry x="449.99916666666667" y="320" width="215.62499999999997" height="79.99999999999999" as="geometry" />
        </mxCell>
        <mxCell id="nyQZCp3bkRx2eXuKA3Nu-12" value="skMerge" style="rounded=1;whiteSpace=wrap;html=1;fontSize=22;fillColor=#326138;" vertex="1" parent="1">
          <mxGeometry x="450" y="433.33" width="210" height="80" as="geometry" />
        </mxCell>
        <mxCell id="nyQZCp3bkRx2eXuKA3Nu-14" value="" style="shape=flexArrow;endArrow=classic;html=1;rounded=0;fontSize=22;fillColor=#353535;" edge="1" parent="1" target="nyQZCp3bkRx2eXuKA3Nu-12">
          <mxGeometry width="50" height="50" relative="1" as="geometry">
            <mxPoint x="555" y="400" as="sourcePoint" />
            <mxPoint x="200.83333333333337" y="406.66666666666663" as="targetPoint" />
          </mxGeometry>
        </mxCell>
        <mxCell id="nyQZCp3bkRx2eXuKA3Nu-16" value="skCrd" style="rounded=1;whiteSpace=wrap;html=1;fontSize=22;fillColor=#326138;" vertex="1" parent="1">
          <mxGeometry x="516.1" y="553.3299999999999" width="77.42" height="76.67" as="geometry" />
        </mxCell>
        <mxCell id="nyQZCp3bkRx2eXuKA3Nu-17" value="" style="shape=flexArrow;endArrow=classic;html=1;rounded=0;entryX=0.5;entryY=0;entryDx=0;entryDy=0;fontSize=22;fillColor=#353535;" edge="1" parent="1" target="nyQZCp3bkRx2eXuKA3Nu-16">
          <mxGeometry width="50" height="50" relative="1" as="geometry">
            <mxPoint x="554.4583333333333" y="513.3333333333333" as="sourcePoint" />
            <mxPoint x="123.20833333333337" y="540" as="targetPoint" />
          </mxGeometry>
        </mxCell>
        <mxCell id="nyQZCp3bkRx2eXuKA3Nu-31" value="kubectl-sk" style="rounded=0;whiteSpace=wrap;html=1;fontSize=21;fillColor=#326138;" vertex="1" parent="1">
          <mxGeometry x="214" y="313" width="130" height="67" as="geometry" />
        </mxCell>
        <mxCell id="nyQZCp3bkRx2eXuKA3Nu-34" value="" style="sketch=0;html=1;dashed=0;whitespace=wrap;fillColor=#2875E2;strokeColor=#ffffff;points=[[0.005,0.63,0],[0.1,0.2,0],[0.9,0.2,0],[0.5,0,0],[0.995,0.63,0],[0.72,0.99,0],[0.5,1,0],[0.28,0.99,0]];verticalLabelPosition=bottom;align=center;verticalAlign=top;shape=mxgraph.kubernetes.icon;prIcon=master" vertex="1" parent="1">
          <mxGeometry x="490" y="180" width="50" height="48" as="geometry" />
        </mxCell>
        <mxCell id="nyQZCp3bkRx2eXuKA3Nu-36" value="API Server" style="rounded=1;whiteSpace=wrap;html=1;fontSize=23;fillColor=#406fde;strokeWidth=6;" vertex="1" parent="1">
          <mxGeometry x="454" y="158" width="205.62" height="96" as="geometry" />
        </mxCell>
        <mxCell id="nyQZCp3bkRx2eXuKA3Nu-40" value="" style="shape=image;imageAspect=0;aspect=fixed;verticalLabelPosition=bottom;verticalAlign=top;image=data:image/png,iVBORw0KGgoAAAANSUhEUgAAAgAAAAIACAYAAAD0eNT6AABfl0lEQVR42u29d5RexZUt3sLGgQEvB+Y34zVvHMZ+9thvnsfzkEGAyVFEY4IBgxAYMFERlDNKCCEJhRaSUEA5IAlllJGEcg4o59D9dc7p61C/2hcJg9StTrfi3Xutvd4fb4z6u7dunVOnztk7IYEgCIIgCIIgCIIgCIIgCIIgCIIgCIIgCIIgCIIgCIIgCIIgCIIgCIIgCIIgCB0QQnxb8irJZyUHSc6R3CqZKpkv/oEiyZjkDsmpkt0kH5C8kk+RIAiCIOwP+JdIXnc2gH8qWSzqj/2SQyXvk7yMT5kgCIIg7Aj6DSRvkHxfMlmoBRKKjyUfl7ycT58gCIIg9Af+H0i2lTwozADXBjOZDBAEQRCEnsD/b5IDzrvDN42Cs70D90t+i2+JIAiCIMIL/FdI9jx78rYZmZIjJG9GTwLfHEEQBEHULfB/X7KdZLpwD8ckX2JVgCAIgiBqHvivlOwumS3cR5JkC8nv8s0SBEEQROWB/8eSb1t2xx8W0s9WM67gmyYIgiCILwL/TyQHO3DHHwayz2oV/JBvniAIgohq4P+l5EjJuIgeUOXoK/kvXAkEQRBEVAL/byUnSJYJouisVPG/c2UQBEEQvgb+/5GcIVnBuH8B4mcVDX/BlUIQBEH4EvgbSc5njK8RUBUZhyoJVw5BEAThauCHIM4yxvQ6oeKswuD/cCURBEEQrgT+uyXXMoaHBlgZN+LKIgiCIGwM+nDm+5PkVsZrZViMqgpXG0EQBGFD4L/krCve54zP2rAaVRauPoIgCMJE4L9UsqnkYcZjY9h0turSgCuSIAiCUB34v3PW5OYk46812HW2CkMHQoIgCCL0wH/5WVObZMZba3HgbFXmm1yxBEEQRH0Dv8uWvFHFcUErYoIgCKKOgd8nS96oglbEBEEQRI0Dv/OWvCXxCrHnRFws3looxi3NE/1m5IguE7JEq1GZ4pVhGeKFwelVsuXITNFpfJYYPCdXzFxbIHYfj4tS9x0LaEVMEARBVBn4nbbk/VwG/F5Ts8UTb6eJPzRPEv/v9fB4fevkIDFAQlFS6rSNAa2ICYIgiC8Dv9OWvNuPlIjXEjNCDfgX4+0dYmLUJ3kir9DpRIBWxARBEBEO/E5b8m7YVxyU7HUF/vP5xzeSxeC5uSIrv9zlRIBWxARBEBEK/E5b8q7aXSSeeTfNWOA/n9e2Shb9Z+aI1GynGwVoRUwQBOFx4HfWkrdCpipLthUF9/u2BP7zeU2LZNF7WrY4k+F0IkArYoIgCI8Cv7OWvOXlQszbWCge6ZVqbeA/n2hA7DoxSxxPKXU5EaAVMUEQhMOB31lLXozdffRZgXiwhzuB/3w2bJYk2o/NEgfPxIXjoBUxQRCEA0HfaUtezO9PXpkv7umS4mzgP59XyUQA+gN7jjufCNCKmCAIwsLA77Qlb2FJhRi7NE/c0THmTeCvjBhX3Hq4xPVEgFbEBEEQFgR+py15MUs/YmGeuKWd34H/fGJ8cd3eYtcTAVoREwRBGAj8TlvyZueXBzP0N7yZHKnAfz6b9E8TK3cVuZ4I0IqYIAhCQ+B32pI3Pac8mJm/rnW0A//5fLxvWiAzXOG0uCCtiAmCIFQEfqcteZMzy4IZeczKM+BXzT/3TA3GHsudFhekFTFBEEQYgd9pS94TqaXBTHzY5jy+8/5uKcEYpOMuhLQiJgiCqEPgd9qS93BSaTADj1l4BvS68+5OKcFYJMYjHQatiAmCIGoQ+GHJO0Q4bMmLmferGPhD5W3tY8GYJMYlHQatiAmCICoJ/LDkHSVoyUtehDe1iQVjk7mFTjcJ0IqYIAhCfGHJO1HQkpesgxVxZh6tiAmCIFwL/LDk/UjQkpcMwYo4hVbEBEEQ1gd+WPIucHGXdsGSN6o8Z0V8Op1WxARBELYFfljyLndxV3bRkjeqPGdFfCxGK2KCIAjTgR+WvOtc3IV9sOSNKs9ZER84TStigiAInUH/nCXvNhd3XB8teaPKc1bEu2lFTBAEoTTwf0N8YYqy18UdNiqWvFElxjS3HKIVMUEQRJiB/1uClrykK1bE79GKmCAIor6B/7uClrwkrYhNglbEBEFoDfyw5G0paMlL0orYFtCKmCAIpYEflrztBS15SVoR2wpaERMEEWrghyVvD0FLXpJWxK6AVsQEQdQr8MOSt5+gJS9JK2JXQStigiBqFfidtuTdQ0teklbEF/S8CloREwRxkcDvtCXvtsO05CVpRVwNaEVMEMTXAr/TlrzraclL0oq4tqAVMUFEPPA7bcn76S5a8pK0Iq4naEVMEBEL/E5b8mJmm5a8JK2IQwWtiAnC88BPS16SpBXxRXNsQStigvAq8DtvyftAdzrzkbQi1gxaEROEo0HfC0vexrTkJWlFbBq0IiYIRwK/F5a8t3egMx9JK2LLQCtigrA08HthyXtzWwZ+klbElmOzoBUxQVgR+L2w5MVsNQMESStip7Bb0IqYIIwEfqctedPOWvJilpoBgaQVsdOJwEFBK2KC0BL4nbbkTcqgJS9JempFfELQipgglAR+py15j6fQkpckI2JFjKokrIgv485NEPUL/E5b8h46Q0tekoy4FfH3uJMTRO0CPy15SZJWxD5ZEf+IOztBXDzw05KXJEmfrYj/lTs9QXw98NOSlyTJKFkR/4Q7PxH1wE9LXpIko2xF/EtGAiJqgZ+WvCRJ0or4i6rnh4JWxEQEAj8teUmSpBVxJWcLyWmCVsSEh4GflrwkSdKKuGaYK2hFTDge9GnJS5IkrYjrjiWCVsSEY4GflrwkSdKKODysEbQiJiwP/LTkJUmSVsTqQCtiwrrAT0tekiRpRawPtCImjAd+WvKSJEkrYnOgFTGhPfDTkpd0lvd2TRGJ83PFloMlgZBMVn65OJxUKhZsKhRtxmRyXdCK2EXQiphQHvhpyUs6S/R2zFxbUO1Gn5xZJt4cnclnRitiF0ErYiL0wE9LXtJpPvVOWq1lY6evLhANmSzSithN0IqYqHfghzNfoqAlL+kwnxuYLorqaCc7e10BnyGtiF1OBFCthfHQ7xjRiJoG/v8jHDbooSUveY6NO6eInIL6Xe72mprNZ0krYtetiIEtZycHvsEoR1QW+P9dcqyrgZ+WvOT5DGPcK7+oIjgN8nnSitgDK2JxVqelKUcIiXOB/5uSbSQLXFzNtOQlK+MTfdNCW2OjPsnjMyV9siIGtgvKDEc++P/PWVEJp0BLXrI6TlgRXs9qLLOMvSSkj1bEwDiMdjMaRivwX3K2S9Qptwxa8pI1ZdiOcI/25pojvbUiPiPoNRCZ4P8jyaUurU5a8pK1dYOLl4XbyoJRUj5b0nMr4t5sEvQ7+P8emjiurEZa8pJ17dwOG7j35bMla2RFPNJpK+KVkj9ktPQv+N/tipgPLXlJJgCk63zVXSvi/ZL/wajpT/Bv6sJ9Py15SSYApG98fpCTVsSpkv+X0dP94P+y9XJVtOQlmQCQnvNp96yIMUt7FaMog7+a1UVLXtKRBKDHZCoCkuHwL32csiLOQe8Yo6l7wf9RYamqHy15SdWNWGFvrijj8tmSYfKht5yxIobL4M8ZVd0J/jeiid62VURLXlIXU0NWaru1HftSSDW8r6sTVsQHMULO6Gp/8P+FZJZNK4eWvKRubj4YXv4LQyE+U1I177LfingJdQLsDv7/JLnLltVCS17SFMctzQttHe84WsJnSmojqk0Ygy4otjIR6MdIa28CMMmGFUJLXtI0/z4kPbT1PGd9AZ8paaSZFWPR9bW0VoDGjLb2Bf+nTK8KWvKStrBRy+TQ5IA5Akia5Dkr4oxcaxIBNAVeyahrT/D/2dlxDSNYu7eYlrykdQxLjvWxPjQCIs3znBVxLMuKbsEZjLz2JACfmFgBh5NKA7lLfpykjZyxpiAUdUo+S9ImnrMiPpNhPBG4h9HXfPB/XPdbLymtEIM+zuE4H2k1B8zKCSXJ5bMkba0IfLA4L3Tny1rgiOR3GYXNBf/Lz97HaD310xuddIEYPa33BMARTgCQdvPPPVPF1sPGZF/aMhKbSwC6ax0C3VYkrmtN9T7SDT43MD2UNc9nSdpOaKygUbBMf58gsuzvMxrrD/4/lizQ9ZbHLMnjPD/pFO/vllLvdT9lVT6fJekMn3onTZxMLdWdBLzFiKw/ARik6+0is+THRbrYLMW1T0ZRP+Czz7XaD2dChI5RWV/wv1IyX8ebHcINkHSY9Z2d7jIhi8+RdO9KoHk4UzC1wKuMzPoSgB463uiUT1n+JN3mgdP10wKgoiXpMseGKIldDfYxMusJ/pfq6PzfsK84yCL5EZEuEyJV9QHuVPkcSaeTgCXakoCrGaHVJwCPqX6L6Tnl4rb2tD8l3efsdfUrgzbunMLnSEb+O6ghhjJCe6D612JEJj8a0guOWlS/00+jVhx7Jd3n1S3CtciuAkmSDRil1Tb/KZ3xWLGTc8+kP+z3Ud3VAAtLKANM+sPbO8REWo5yoYDfM1KrSwBeUvnmICLxYA+q/JH+sOvEuqsBYrPkMyR94uvDM1QnAO0YqdUlAPNUvrl5Gwv5kZBe8Y0PMuv8PZxKK+MzJL3jos2FKsPIXEZqNcH/26qV/x7vy45n0i++MqzuJx6MEPIZkr7xzo6x4HpLEWKM1moSgJtVBv/93OxID/nC4Lr7AWw7TCMg0k+OUTsa+L8YscNPADqofGOJC6j4RzIB+Cq2HGICQPrJW9vFRElcWRXgMUbs8BOA+SoTgGfeZfmf9I8vD637FcCOo0wASH/58XplN8oDGLHDTwDSVb2t8nIhruW8M+khO4zLYg8ASVbCZwcoCynrGbHDDf6/Unn6P3iGGx3pJ9+dlcMEgCQrIezdY5llKkIKFIe+zcgdXgLQRGUCANcofhCkj1y8te4jT/lFFaJhMz5D0l9+9Jmya4BrGbnDSwCGq0wAOo2n5SnpH+/qlFLvRqdX6QZI+nxF9mGWqrDSipE7vARgh8oE4P5uNDwh/SKcLOFoGcb12HWt2R9D+kns/YownZE7nOB/Ofr0VL2ljFzKnZL+Bf8w1c5W7y4W17RgEkD6SUX+AKcZvcNJAG5TefpfvoPmP6RfnLoqP/TvZNXuosBRjc+X9I1LtxVREMjiBKCTygRgwOwcfgSkVzx0Ro1h5qO9aZRF+sf+M3NUhRcKAoWQACxUmQA0HZDOj4D0iqnZSkabxAvv8Vsh/ePT/dMoCGRp8G+Aa3pVb6ektIJ3m6R3xLpWgTajM/l8Se/4h+ZJoliNLDAFgeqZAPxa5el/xxFKnZJ+8bb2MWXfS88p2XzGpJfccrCEgkAWJgBNVSYA45bmcfGTTvH2DjHx1Dtp4k15Gh8wK0dMXpkvVu4sEvtPxUVOQbnKz0WcSC0Vn2wtDL6bfjNyROtRmeKJt9PEH99gFY10mwrdASkIVI8EYITKDa3VSJY0STt5T5eUIMAOnZcr5m8qFHtOxANlPluBvoOth0vErLUF4p2ZOUG/wE1tYnyXpBN8fbiym+Y3GMnrngDsUrlp4TTFxU+a5s1tY6KlTEbHypP1hv3FIju/XPiCpIyyoEIxeE6ueH5QOkWFSGu/wQo1+fVHjOR1C/5XqBQAQjmTC580wVvaxUTbMZli2uoCcTipVNXGYyXgvLn3ZDy4umg+IkPc8CYTAtIOHklWMj6bxGhetwTgdpUb0byNhVz0pDZlvib908SIhXli17G4KI9QwK9JQoBnMuqTPPHMu2k0HyKNEddXivATRnTLBIDY0UyqJFTzXkvMELPXFYjMvHJG+hoiK788SM7R5MjmQlInu0xQZgz0F0Z0ywSAqGpGqpgnRjPRgk2FVjfsuQI4GUKqu82YTHFtKyYDpFr+qUeqqqU8iBHdIgGgvEL6nJPhEaNwk1bmB8ZShBoUllQEI4ioqvDbJVVR0Te8kVHdIgGgtXuLudjJehHNa32nZwdNfIRepGSXidGL84ITG9ciGSYxsaIAccnvMLJbIgCUOD+Xi52s82kfzUI4kRLmsflgiXjjg8zg+oXrk6wvB32szBjoOkZ2SwSA/j6EpiZkLbr4myWJFiMyxbbDJYy4liKWVSaGzcultgdZL8IcThEoCGSDABDGjthdTNaEaDzDtMjxFJb5XWocnLGmQDzQPYVrmKw1YQ6nyEyLgkA2CADtOxmP3KK+Sp5g7+gYE/d2TaESWw0DPzzC03PY1OcqoLWwdFtRcGXDNU3WhjuOKqn0URDIBgGgqavyI5PJdp2YJdbvK77gvhqz1ou3FgbjVbw7ZeD3HSt3MRGojg/2SBWdx2cFd+ADZ+cEM/EP94xmkyXMrhSBgkCmBYA6jMvyfgG/ODhdnE4vq9HzwP9du7FZkd78oNTXY3J2YGhDMBGICq9vnRwYN0EWvSqclP9/cH7EgSIqzwW+HIpAQSDTAkBwWfNdzaouUrPTVxcEVwVR2wShR89RvugAvgsQamrcJdo9Am1GZ9Zq5v3QmVLx0FvRqAjc2i6mavlREKgGAkDK0i+c8HxeuLBgLa9H9XrFzqLINEhCCXLLQXb1R7lZEO6LN7ZJjly1C02SdQGuDqOSBChq/KUgUDUJwG9UfvRLthV5u2AbtUyucdn/YoAjVuPO/p6OsOFDta+c1/zE2aD21pTsSKgLouS/8UBxvZ4XqmXYa3x/VnPWKzEGoiBQNQnAcyo/dtx3+bpgMa4WFk6llXmXBOB6A01OlOslKsOe43Hx1Dv+9gfc1j4W2lXX4Dn+C6mhJ0gRKAh0kQRgpMqP/On+/n7gO46EW85GEnBnRz9EVe7vliI27CtmlCOq7Q/46LMCcVObGIP/RZCWUx5cJficAGACQhEoCHSRBGCPqqdeHK/wduQNHboqStr7T8Wd7glAWRdjfZTtJWob4FqNyvTmyktFk+vfBvmtpoqKYU6BkmohBYGqCP7fQxKu6qPeerjE28WKxhxV+OzzYiezfcw17zzKJj+i7oCQkMvSwrirVyVfPWBWjvfXAKt3K6kaUhCoigTgTpUf85glef4a1PRNU7oRYjrAJQVB3N/x1E+EAZwCIZjl4r4wf1OhsucyYbn/gmqD5+aqenw/Y8S/MAHoovJDbvZ+hrcLFbaoqgELZduvUHDXCbEXgggb8zYWBhbQruwJIxflKX0ek1f6nwA8P0iZMdATjPgXJgCLVC7YW9r56xKGHoAyDc3tH6+3VywIH2saJXwJhTiTUSaeHZge5ZPrl4DzYhSkwUvViIMOZsS/UAAoS9ViPRYr9d/A4oie+27bMn8kJNjwONdP6ABUNofK4GdrIjxhRb6W59DakybJ6rj7eFzF49vEqK9RAGj2ugLvFyqacnRh1Cd29FPc3DamqlGHIKq9ErOtqjh2aZ6W345kG99eFBIARQkVxjK+y8ivSQCo+6Rs7xcqPkidjW/vGRYDgZRvGMqHLgNaDcu2FwXl2I4fZmn5N6GcBy19WKZm5kW77BLLLBPPvGuHtsgQDWX/c/h0V1Ekgj/45mhlyvR/ZOTXJAD054jYWurcBIDe08wkVnDrKiiOTpc/7iH3n44H8qT9PsoJ+h3Ob0iD2JEOHD3vOg06ERDYwuQFrLYxbhuld1NSWmHcTRPJuE7YkvTo4B0dlRkDtWHk1yAAhDGeqLjcXd0iSew6Fte6GeisBOA9Ismp8Dy+4JSNkz2C/V/7pQXv1fQo6Jen3qzqDbWgG/GXPmlBgohRNDTP+Q70ofja8PdVLNxcGDnnREWVxlmM/BoEgHBHHKXFCvlelIZ92/wQBOduKPQyeGCCA4ItSG4QyOuSsMIJUgfyiyrq9P4e6J4i+kzPDjQl8gr9zOBmrS3QKpoFbROdOJlaGjn3RIV6CsmM/hoEgIbMzY3cgoWRz2bNVreJ89U9Z5SZ1+31q9kPdrTLdxQFBkVhbKotRmRq+9vDSOZeGZYR6O77NroJ5UzVollIECdq6vY/h5TsskBdM2p7KYhKliJQEEgoFgB63nPNapt6AqatDv8EhIoGPAl8ALqnESA6jMsK3WNBVxMgEOYpEH4NmK2HR70i7XXt2HMiHohSqZL3XbSlUHvwf6RXamT30cf6KBNaoyCQUCgAhNKqSxK2Kvjy0AytVwI41TZqFc4zR9lY93WGCqBx7t1ZOUp15RWeUi5A4y4pyoLbGx9kilW7i4J5e5eBcjnWb5jPB2OHuvQ+zgE9RXd0jEV6D0WSqujaanDUg79SASB4fEd54X5V0QozwmWaDljYpOob7DC5gZOHq0Dn/qLNhdpc0wZr7ATHCKbq33OPTDI+WJwnMnLdrQrgegOnx7DsaU+klmr72+NlFYGcMFRGuYcmBboPCrAp6gmAUgGgSRHQq66tayCasHQA3eJN+qfVueSGTngXgTI2mrPu7pSi9d3qbAjTOQaGAITrjYNn3LwGwjp+un/9nlen8VlaNT6g8RDlkn9lTFygJMGOtiCQUCwA1HZMJhdvJXxuYLqqjPaCKxiMCdamLwBJAzrNXUO6PO31n5lj7MoJ/Re6gAY+E5LPryZmiE0H3LN4xnrGlEatr0RaJQeNkrqAcU30p0RlbLo2/PsQZVM2f4xyAjBK5YK+S/MpzDWiPI37adU4nFQazLS/NCQjOM2htDtgds4F8+04+bvWCAY1ONy/my6VqrR+PR9tRptNrFGB2HLIrUSgOF4RBJGqplyaDkj/MlFG4MczPhbTU/LPLSwPvkeW+6vm9TKxV+Q30ibKCcBeVYs6ObOMC7eGjVcob0HRTDc+PxEPriVcLPtny78V/gthNTzWlzptkG2R1n5hcLrYedSdRABl/POvxV6Uv+GcUBK+QSTApZpaX/Dv4Jo0Krr+9eXek0quoWZFNfh/XygUAMKoDBdt7TruN+zTP2tfJDfF4TIBcSX4Y5PGfbtt3vA6T8S46rDpt2NywBVfCFwHIAnAqX+6xmub87Fhf/GXyTdZM05ZpUR7ITmqCcBdKhd43+nZXLR1IHTN03PorVsZIM8LzX0b35tOrYQRC/OsrGRhEsKF/hH8jabkkTFVgXt+7nV12xsV4WdRTAC6qVzoT/ZL46KtI29qExMfry9gxD8LaBFAT8Hmd6ZTLwEWqTabtyzZVsRFex7gn4GKQxSlfMMiJnsU4YkoJgCLVd616dTk9rnz1QchnvrckaJh0ZZ7/otRpzXv7HUF1j+P14dniKSMMkZ+iSPJpUGTIfe0+hNNvwowOGrB/xL0Uala8BgV4mINhxhrm/JpfuQ2Tdjv6hC8CYsQbtEFnLC5du0H1gSua3A9wr0sHH6yVcm0zZaoJQC/VbnwRy3K42INma8lZkSiNwDaBdg0a2LBa9P9t05AQ8K1Spaik5u1OOBYAusK0VumYtuRvCxKCcDzKhc/ghUXa/iEwcmaPcXebproJG/SP83J96ITUIpz7RlhamPBpsJIBP8Jy/N56lfEJ95OU/XaboxSAvCBymYXNLFxsapTZBs2L9d5s5bzgbFR20b7ajPCqROHzpQ6u367TswKRk99BLwHXh7Gw49SY6DmSapkmdtSACgEQHWOC1U94T8PdTMf7kl7Tc3mqaQWQHOdy88LpXE0xvkEGHBF3bVPF6GhoAAfUwAoBMxcW8BFqolPO6rbfw71MSyyiVDE0wlYo/og7bp0ux/jgvM2FlLGVyPhkqgAKRQACgFdJlDkQic7fJjl7ImpvpbFtrDVyEytzw7XbL5cZyXOz3U6+MMEiuY9egkzLEX4DwoA1RN/6sHOV92bqCsyrOeAZjCfTkydx+tPwiBl68vzaykTqEIH+wJOpJY6oVHhG9ErpKgH6kkKANUDEEPhAtVPl7qrceLjaFL94ZvT5l/7pQUyuS6hD+XOjfHgGSXS20MpAFQPrNxZxMVpgOOW5lm/WSJjt8XFLmwOnae/jO2jkQx8Ho6nuNMc2Lgz7c5NccYaJVLpW3xPAJQKAL03J5eL0wAhnGMzMK3QfIS/41FjDSRgT7/jp9fGre1iYs/xuPXBv6C4gnuPf71PfgsCCcUCQM9S79rYWFWapSqB2CihBMfTSLh4aYi/CRUMc7YdLrE6AcAEC/ces9UiRbjR5wRAmQAQ5rnZEGP2g0BTkk04573u+7NfuFl/D0brUZnee2BsPmhvEjBgVg73HcNUdOhp63MCoEwAaNexOBelBZK0n5+wp3w6PSIjUqt2659nh6JeFHQuSi0bcMHfw1FnO7hUje30x74Gf6UCQOOX53NRWkDokNuE1buLg8TE52e+5ZD+k2q/j/w9gSJpfHtGjigptWs0EL0ssDnmPmMH+8/MUfGaU3xNAO5W+XG88UEmF6UFinQVFo5Tw8XwFY810uH8phs+jlOCEIf67HM7Da9OpZXR5MeyCpEi/IePCUAPlR+HL6puLtP27mlfXdJMCDF9uMy/iluz9zOs1wLAxA33Gjv4h+ZJqvxQnvQxAVii6qPABsgFaZbtx7ohCbz/VNy7GfacAv1B66PP/PHcQPMwJHVdAK4lqHZq0fWbmkbRob4FfwgAKVMrmb+pkIvRICELm5rtjhww7GB7TvFHFKjMwKEV9sk+PLu/9EkLHERdwsYDxdx3LOGYJUo0OLb4lgD8l8oPovc0SmKa5HjLGv9qimXbi8TNbd2+OrpWnl5NNVe63uj3zkz7Gv1qCgjRcO8xTzRlKoBfgkDyx7yo8mNAFs/FaIaP9Eo1cgINreU2u0y88J67QkHofTGBrYdLnH5ma/cWC5eBGXSfDJlcJQ4Qihqfb/QpARij6kOA0ltD2mEa46YDJcJ1wCcApTw09bj2/HEfbAKYPHC10Q+mYT4AvvTcg8zzSLKSK6T2PiUA+1R9BOv38T7M5GbqE3Yfj4sHurtlsAIXOxM4k+FW461LjX41BTrQ7+5EQyDTnLVWybqa60vw/4HKj2D4AhoAmSCqLofOlArfgIpS5/Hu3K++ODjdyHPC5AEb/cxj3kY2QJsmlBkVINWXBKCxyg/g5WFUxvJo0VsDdLnDFMb299BqVKaR54O+Dzb6mQfun594mz1Qnl7D/ZICQNXc3bIRxkA5tWWySM4sE74D+hK2O0yaTMRsNt/yodGvpli3l9egpqlIQOopCgB52IjkOt+dlSOignL5XScuyBUNLW0QhCa/KdiqvulTo19N4fIkiw9cuVOJMVAiBYAuAvigc/HpnztPz4nW5gpsP1Ii7u1qX8MVNPlN4UHLFOl8bPSrKWAIxf3JHAd9rCQR30YBoIuAYhgGTpwzckRUkVtYLtqOsct0Cpr8pvBkP3vunn1u9KtxFWAwqwCm2HSAkmZc3LP+EwWAqsD93TgCo5PXtEgWsQjc/VeHOesLrOk9gSZ/lAMOGv1wJRUvq4j8umQVwOzeqKjZ9GYKAFUClKG58PSyx+RsQXyBE6ml4ql3zJ+AMa1gCphAMPnb7+wYC3RACFYBbOCOo0pE0dq7nAAoEwBaur2Ii06z9SX8yIl/oFQ+jvfm5BpVolyzx1wANKmX0GJEpsjKL+ciPA+ffc6JAFMct1SJMdBcV4O/UgGgAbNyuOg08s3RmdxdqwDkkO8ypMi27bA5Kea+0/WbcKEJFc2/RNV4tDftgk2w5Ugle2SqqwmAUgGgJv0pfqGTWw0EmlW7i5zZdLPlabTVSP0l8YNn4sZ+85C5elU4H++bJo7G3Gn0g0Y8tCR04+P1nI4ywVvbKTPm+qWLCYAyAaCSeEXQdMFFp2/j1Y2Vu4qc1BzA6fRajQI5SRnmrmXGLtFjRuNiox/ug+EU12qk/soZntMdHWPcuwzweIqSBPUpFxMAZQJAmMnmYtNHnCh0b2BfNeXpMC4ruG93BTilImnS8W4wmmgK01erP2m62OiHvozrWv8jCdywX//fP3oxnQJNcI6avTLRteD/DaFQAGjsUi5uXbylXSyouGg9WVbyfl8emiHyi9w5AWIkCDr0VyluECw3+Ejmb1JrRONiox8CwPmqkbiTL9f8M6CEyCqpN5NS21xLAH6ncnG3HJnJxaaJA2frLcHjLv2GNyvfuJ6Qp2rXVAjRla1KMvemNjGjv+3cNQ0b/f5xJVJVwqe7igbYJloVBT7cU4kxkFuCQPKP/bvKhY1mCy42PdStroaE42J/D8SfFN2zKQOMQl5LDN+18tkB6UZ/1w4FV3GuNfqdA6o9F/td93RJ0X6NhekU7mH6halgla0AN7uUAIxTtaix+XOh6SGEbnQiTZ7ua9JAd1v7mNh1LO5ckJi0Mj9wUgzr/Qydl2v09xTHK0L7Pa4q+iGotx9bMz2EySv1yzb/qQdHAnVz9W4lPR/tXUoADqha0HM3FHKRaaJuY5Xe02o+V44mK5MiOHUFxvZQJqzvu4H4kA0n5TDUAF1V9CsorhAvD6t5ZQdXQcWa+2kmrMjnXqaZg+cqScznuhL8f6RyQb81JZuLTIezmjzZ6ewwj2WV1bppCc1WJu5Wwzg51ybZqYxdJmRZ8Vv2n4rXq9nMVUU//M1/rYMZ0pRVeqsA6Km5ugX3M518fpCSq7lUVxKAe1Qu6Ed6saSlg23G6J1f7j8zp86l45GL8oSLgIf4LXXoZ2ncOcUqv3skYbWddkAFx6SRUX0AcZ+6WiGb6AVo9n4G9zTNapWK3vGvXEgAeqpayDiRXtWMC0wHF2/VZzKDU0p93fV6Tc02OhJX57Q+u0y8WAsDF5TLbbS9xfhboxoKID3xdpo4FnPTuvfA6Xi9RXbmbdRr4LRoM69NdXP3cSU9Sk1cSACWqVrINLrQl8EWluiLpiMWhqPrgPto3XesYaCi4gvtg+pKtSiXp1k8BomehOYjMqpM0qGMB8MUV617Ybd7Y5v6Nz1CF0An8C1/VZiIVE/0XijAcBcEgJTVY9H1zMXll/EPgkGYc/LPDkxXNYajHHBbHCbXOO4QG3dJCcrFTQekB46D+066M/VwJqNMzFpbEIx0ojLz/sLcIHkvibsZ+IFl24tCFdbBiJ5O1HRSgbR6D90RaQGgF+l1rYULN+srUapQk0OXfSyT1sVEOIAo0fnqfvVl61F6e2wwmsa9TR9xTaQAONlcHkkBIEhpXs8ylpbuf52Su08rcnW8u1OKOHSmlNGLqBdQvVCxPpFQJGtMUlFpq2+fDVk7KnKCvDWSAkB7T8a5qDQQc8268PkJte8U97W4tyWIWh84ZA7cU/HI8TDNQk5tRlMaWCcXbFJSSe0QSQEgzM9yUTnbvFIp6jsLXxPi3nbp9iJGNKLGgJHTGx+oD5YY56zQ2BaB6QPucfqI/U3FrWkkBYDasYnFK+1/NITBzEbHb4Jq3pRP8xnZiGqB6y80Yer63jZoVEDEuG3YvQxk1Xysj5Jpj/RICgChK5qLSv2JRBcWbdF/GkE3PUFUBYxY/qVPmtY12eFDvYqOfxvERmpdxMEjr1BJiedXNiYAygSAIBPLBaWe3Sdla9uIXhlmRp0MErqlHBAgzsOJ1FJxX1f9hwzdmhvQYeBep4/r9iqp8DSxMQFQJgAEVTouJn/U/yBja7IU+WpiRmDkQhAAmlHhMBkF1U0oGXKv08fEBUqqjsNtC/5KBYD6fZTDxaSBkKXVAYjEmP6tMHLJyC1n9Is44EJoerxYp/AWmg6hyMj9Tg//PkSJMdAO2xIApQJA8KXnYlLLe7vqu/9/LdEOc5IHuqcE6ntENAGN/DDV/Vy5BgjDwpmsGZFclod/zrBLEEgoFAAqkh/GH9i5qpwdNTUjQabXJntSlH5RAiaihUkr860yFlu6Td+o6rTVBdzzNFKRjPetNiUAygSAthws4SLSQMid6jp12Zilr91bzKgYEWAaxLY12HWivmkAjPpyz9NHaNgoQAebEoCDqhbr6MXsWtVBXbK5ncbbqeeAqsTcDYWMjh4DpVgEWhvXHwyxdIoCmWx6jBqhYaMA820J/leqXKivD8/gItJwB1muYfPBBndrO3s3HpSExyzJY6T0ELCJtn0v2avR8bHZ+9xXHddXSbclAbhP5UJlx6p6wpBHB/accGME6e0ZOVoSIkIP0HcCW2Xb192oRfqST/xb3Pv0UZE76a9sSAB6q1qkR2O8q9JBmJ7owFiHREgwmgVNeMJtQEQM9tAurLkXBqdrey7oeeHep4+fqNF6aGJDArBC1SKdvY7dqj41ANoy/ldTQjZVkZQnoQFHkkuD8qszVtytkgPbXh3Iyi/n3qeRfacrOWQNNx38IQCkzGWl26RsLh4N3HFUvWUuGrBc9CN/tHeqSMmmVoBrwJp28fpwxxF99tX3d6O/ii4+2U/JNesu0wnA71Uu0IfeSuXi0UAdsriu3P9X1cSD0yThBlbvLhbXtU52cq19sFhfH0Cb0RQE0mYM1DxJhdgTBIGuMJkAvKxqcWazRKWFd3aMadlsMAvr8nOCdfF2jaczom6Ys77AactbTCrowvsLc7kHauSG/Uq0Rm43mQCMV7U4V+0u4qLRdM+tA3Dh82FccvmOIkZZS4ERTpvU/erCW9rFtD0vmqzp5Ug1Ux6dvBQAGjyH2akOdtNkAfxIr1RvSnnTVxcw2lqGd2b6Yximy5/i4Bk6A+p2IVWAhV4KAOFkykWjnqM13Dmix6BhM7+emyKbT6KWKJWxEkprPq2tRVv0KFJizLUhfVa08YY3lQiuIato4JUAED5qlFu5aDSYkGxXX9LedczPkwY05QlzQAB7eZh/inYDZudoe4ZwxOQ+qI+ouijAr70SANpznKUpXcSz1tGY5eOzw33zOpoIGUOPyX6OCb+WqK8RkJLAXmiuNPVKAGjiinwuFk3UMeM+YFaOt89P0XxvKBixMC9Ql6sr0ZEOwRgbAQvnq5r5uaYad0nR9hx7T6PWik4qsl0f4ZUAEOdT9bFUQ7+RawqAtSXsVW3DwpBsl18akmGlL0J3z0XCdClQYnKC+6A+QnxJxS2rVwJAmE3nYtFjQaoDviuO2TYVAGvnMIVwBlvY63BPF7/XFPpmdGDBJo4C6mZaTuhVNb2CQEKhANCZjDIuEk18rE+q8g0Gp8erW/j9HHU2bVWH3MLy0Bu7UGq3Sf8AstJ/8Lx7XdckwNbDJdwLdTdeb1PyLd3uhQAQFj4XidNzqV8DbDB9f479Z9qRAFRUqGvqgo/DsVipNQkAx3PDwel0Hrh0891ZSvaLTl4IAPWZzqYUXcT8tGpsi8AJAzbHtjT9qfydsNXV4RtRE7ho9FMbYsJBBzBKyb1QL5/ur6RxeKEXAkBP9E3jItHEt6ao32SiUNHZcsi8R8BnnxdrEVt6c3SmFQlA8xF+N5a+MkzfKKCrxkmuEtdXxfHQE2k9gkBCoQBQoBhHZSp9d9ez1JeufR/pxMhWueFJOZRxdZ6Ix1lQ8Zi9rsDrdQUbal2A2yX3Qy8ODb/WkQD0UbUQ4ZbExaGPKBmrxpC5fns6jF+ebzQQ4iTxuOaqGZL0TQfMVj0wvnpXJ38Dl64JHQDNwNwP9RLjlwrQVEcC8KmqhQi3JC4OfZy0Un3w8lWtDXzqnTRRZvj033m8GR3829rHggZPk1i9u9hbMSBc51RoareA6BP3Q71UZPs8QnXw/yYq9aoW4quJlKXUyY/Xq59fbzXST1EnzKGnZpsNgFNXmb1eeVomQPEys02BE1bke5sEZOTqyS7f+IDCa7qJKzsFCd4u1QnA/1O1CPEw4JbExaGP8zYW8nRRx+xd1+ZcFXYcLRHXtDD/vejqVr8YYGiFioRv60yXLXDXiVncDw3waPhjtWoFgeR//BVVixDqZVwU/iUAKJP7UI7FaRc9EwdOx40HPOjz26SWOXdDofFnAulcVETgzeBLRUDXWus2iaPXJjhrrZIK7O0qE4CJqhbhR58VcFF4mABgdtzFZ3Njm2TRZkxm8IxMn/bPBwycbHpWw+blWvd8MCXQelRmIGDk6vcJlT4dgJAV90P97DJBiQ5LZ5UJwGHfmpmYAKjFfV3d6dR+pFeqGDg7JxjRKbPTBO9L3GvRc/10V5G1zwnTApsPlgRyza4lo2s1WU0zATDDP/VQMuq5SFXw//9ULsKw9cvJ6rlSw8Z9t8WjWte2Sg7u86etLhBJGWXCJXT40J6EOT2n3JnnhveM9w0hIdsFcFZqSqx8H9W1mZl5oX87KCs0UJEAPKBqAaLEysXgjSnF13BTG7uas1CRgNz0mj3FoiReIVzFjDV2XJnp9K4PG3j/OGX3+yjHygOIrgRAtYQ0eZF3vFPJO/6NUwJAK+RD4GLw8wrAdAIA2U1MIny4LF8cTioVvsCWptk2lkgDh4HjKaVi8sp88fLQDNGoZTITAFI5B32sRI31OacEgPAQuBj0c+baAi8TAKioocFmybaioDvcR2BsFo2KptfQOEuMkMJGUUlF0NvQa2p2oPnABIBUwaYD0lW80pFOCQDhIXAx6OdkDUqAOjTqMfaFccP3F+aKPcfj2hTUTAP9C8Y1zQ+WROJZo+KCZAfVpD809ysBgD0t90MzRKUJjowhY48zAkD48TaU26JIHTa2qqYAIBqF8jNm0G0b09MFeMYb1UeQgdAWe2CdQFVp2faiQEDnDoV6DKt260kAOAVglhD1CrtAKPk9JwSAdh4t4SLw2Azo/m7hJQAY4wrG9A7aP6anAxhXNLl+dDrW2Yz9p+Ji1KK8oJIZppupLptpJgBeXqPd6YQAEJqzuAjMELPRqvFEPZzqGp0d04PC2xnHxvR0AE6AV7cwt366T8rmSzgPOQXlYuHmQtFpfJa4pV39qgPbj+hJAN6aQiVAk2w5UkkjbRcnBIBajaIRhSlCfEk1mvSvXQKAhqve07IDp7fieAUjSsjPN0xCvZOoGuVy+e46FhfDF+TWSaL44Bk9UsAdP6QIm0nCx0IBFjkhAISObS4CM2z2fobyzaW6RjU0VD0/KD0og/k0pqcLqOKYWj8ofRM1B3pV0LOC3pWaTMfEsvRUvbAPcD80S4yghoxwBIGEQgGgk6k0ADLJZ95NU765VKZYh4z33JhebiEv8+sDUxoaUFEs56ure3Wg/IsejsFzcsVjfSqXKC4s0VMBe3Ygp7BMc44aa/bfWC0ANH9TIV++f1rUX8PbM3KC0idKoCiF7o7QmJ6uU6WJtfOsmvnlyCKWWRbocrQamSmub50cWD3rAjwwuB+apSJb7eesFgCCyAZfvjmiDKkaR5JLndKKdxEPvaV/A8fsOKEG8bIKse2wPn2FuzrRh8U0MeGkACOtFgDCGBFfvlkWlfA47jpwr3xrO329NH/pkyb2nuT9vy+w3RQpCkSVFBMkIWNPfROAq1QtOohpNGzGF2+ax2JsvPMBmJiAsmPjzilKe0Zstv4lao/8ogrug5YQk08ho36CQPJ//JqqhbdubzFfugVcp8lznNCD0jIR3CU/2CO86hrkbzce4DrxEUdjbMS2hbBlVoA765MATFa18NAQxpdunrPWcpbbR6DLfNGWwjo3eKEk2XxERtC0SfiL9ft4ELOFGIdWgC71SQCOqlp4Lw3h7KkNHDYvl7ug54CpzNPv1EwwCNdy7cdmif2nGfijgI/XF3AftIQYrS0NX/phUV2D/78oO51UCPHHN9h4YpIQ4Pn7kHSxZg9Lu1EBrntQzq9sPUBSGOY2CgRJCIsx6hNaAdtEBRW3ugkCyf/Rn1QtOiiI8WWbISovCzYVqug4JRzBjiMl4rXEjKDMj1NH3+nZwRw6Ec0rgJeHZRj1lCD/wYkrlFi0/6YuCcDbqhbd9NUsO5kg5n0VeE8TjgJa89RoIABMZaFnpDrpblIt3xytxBjo+bokAKtVLbYO42g+YYJLt3OEiyCIqgGbbRhycb80wzs6KhFn+6AuAkCFqhbZvV25wHQTfuUEQRDVAR4d3DPN8XR66Ndxe2ubADRUtbjScsr5kjVnlPigCYIgagr0hXD/NEP0aIUM3Pt+3woBoKXMLpUTIjBvTckOxr9K4rzzJwii9vjoswKtEtPkF+w9TYkx0F1WCADBRIQvObxRPjj6wV/8g8V5gZRkGpu6CIIICTAmwqQA9u0n+qZRvl0DYQ+tAN2sEAB6un8aX3INiewbhkmvJmaIbpOyReL8XDF7XYHYdKAkuCeiHztBEDqRW1guNh8sCcbVukzIEo/LpKBRS2q6hEkkWZjKCBmLjQsAwbCE86Zf3Mv/bVB68AEhqE9ZlS/mbSwUu47FRVZ+eWDQQRAE4QpSsssCC2PsY5B5h789tCbgHMlrBCs8WnCvcIlRASAskKi9yEatkkXLkZlBY8fnJ+KikPa73gAVGLgpYrxyxMI80X9mjhg8N1cs3kqhpVCer/xUcK3Va2q2aNI/TdzXNSXwTcesNJ43nvuR5FJWwhxAhXyXqFqulYEN7w2Jwow1BcF7RLLwwnvp4u5OnA47x8QFSiTaf2tUAGjskujITmKWFgu8oJgB35fNC1a4oxfniY4fZgUnm2taJF808es5JVtk5zM61QUb9hUH/S01+dbwHvA+4GEAaVs0v55MLQ0SCMIt4ICEgxKqCC8OTo9sxRgy7QrwvFEBILiL+f7iIK86YFYOu+8dRSyrLCi/TViRH2jjw0TnutZ1v+O8vUNM7DlBY53a4P2FucF3FEb17cl+acFV29ileYHvRVIGJY9dAq5Ex8iDY9SuEa6Xe46CytYHRgWAbvH8JTZsrmSGk1C0saCZCf0XKDE/OzBd3NRGzfpEAgHZXaJ6YPRM9XcKIzI0I3eflB00syHhS81mYmAzcKWGRugoJQH7Toa+Z+ytLgG4TtULhMuY7y8MmxdhF9BNu+NoiZi5tkD0+ygnKCve1l5/IvpA9xRWharBGXk6N9lRjgQQiSASQiSGSBAzcnmFYxPmrC+46NWbT8QaVICfXSwB6KLyxfn8stqOyeTXaRBFZ+8O0Vw0YHZO0IHc2DJN8wnL8/miLgI0g9n4bSNhhI0y1PGQ5KOZmU2e5oBeHFRbfU8A2o3NUvH4Ohi5/7f14w6DsFSlAI8elJYJcehMqVi0uVAMm5crWo3MFPd3S3FCoAQKjUTlgODMjW3cOtnBXRNWupj+gD4HvNzZ9KsH6NHxPQFo3DlFxaPbW1Xwv1SyRNULw/iOry8Kd1NEuEADDK6Nlu/4YsSuzZjMYA39wfHMH93pxIXYfyru1QRQs/czxKCPc4KK1N6T8UADhQgXuM7zPQmIZSrpTflZZQnA71S9KJTLrvJYQvKzz4v5NdYDuPtdtbso6NTGiB0kR9HB7eNaWbuXa6UyYHTPd3U3VKqgCYLKFSpYB07Hg8oHUcekUT6/qzyXJv5kq5Km8qaVJQBNVb2onUf9FgBSINvoPRAIMWKHjuwodfbSmTGaCUBV/Gu/NL78euD14X6Plg9XIwg0VqsAkM/+0je3jfErrAOSM8siaSyCSgdxIXB/HknFt/m5Vr0HSPruOFISTM64MAExd0MhnQFrj22VJQBTVb2kySv9bdiAQIWNQLPcdvkho1kmKKu/nRYkK+iMh7nQws2FgcKdSaCBKmobPvoaiAuBKY6oVYPAPcft0IfAZAP8SSrb3zBRM3JRXpAU2Ca7DClun9cHZK8VAPPqDc5PADaoekkoY/j6gjCTaovk6FH5MUz5ND9oQLq+Bup1KD+i+Qr3kNBUx3gNEoZZa/XoGUAzP0qbPacALg6cdqK0HtAsqBtoSjwnmwxZ66XbisQbH2TW+G/GpEbrUZmBroYNk09wJ/R5jWD8VBH+/fwE4LiqfwljMj6/pL0nzWXxUItCU9Gf6zhlgSaa80vx+Mh1NCfh3zAhymOK8MIgqgbGO6OUAMA4Sjdwmg+zsRFVg6mr8o0lA4u2FDIBqBsanp8AZDEBcONDRhkZQR/qcqp+E6oBOjB0Xm4kNntUijLzqBVRHZ4bmB6ZBOBwkt7rIExjqTLXQTLw0pCMoMKgSwsBV5hoJPZ5jeCaVBHuOD8BULY7QYLV55cECVHVymBwlZu2uiDQMNfxm9qPzdLyEUODPQqOX+jDIKrHJxG5Fnp2QLr2Z/uxJjVWeF90kOsdtr8q7c/htur7Omk1SpnC7MPnJwDKMHiO/6c8KB2GDTTcYILimXfTtAvgoCGrqERPJt9hXJb36wOd1UT1QPMqHBR9Xw84KevGCwaEc3A4giASXDbDBBoSTfpG6CIcSRXhT9oSANg5RuKOd2k4d7wooU1amS/u62pWy16XsyHscn1eF2i6ImqOYZ5fCyHB0W0MBRtkk2O3OMCgKhCGw92mAyXKnDtt4xB118v6EoAolGrO8e0ZOXU+OeNuH9myLYv7xcH6ypSvJvo7Eoj1T9QckD/12exl1CL9zaAfLLbnEIZ9BdcRtb02LSmtCCbKouIGCOLaVxEePD8BUFajXLOnOFLdvTBxwJhMdc0w56xqR32SJx7rY59XAiYETqXp8UnfcshPtcgb3kymQUwdAJMnH9cDrtbQz6Mbf+ph3/6C3p9XhmUEQR3d/JAEr6p6geqqbe6ejsvMX39+ApCs6l86nV4WSZUvfOyQqoSZDdzCYGyDxphxcjHXZvbWJFGO1YXnB/nXAQ4LWaL2WL/Pz0ODidE/V5JrXBM82S8taHyDAM7fh6QHWglRjB3niCZpRfjV+QnAXlX/EoRyolS28YmwPNWl/rXxgH+bvu5RL5/wYI9Unv5DAHzluZe5R2ikKMTl5ycAK1T+a1Cd40t1k0s1Gtj4JA/8wnvpVgVUdNhDfREBAcJRSO4e7Z0qukzIChqrbMNEzzzf31+o//QP7QkevtzkK+o0AGKVeQGMUbkQ+83I4Ut1lFD70gV0Cfti8bl4a6E1wRR3idWdqF8emhGYwdgCNIld19qP4HVnx5jSmfiqgLtz7mHRniqrBCsqSwA6q1yIcEHjS3WX8N7WhbZj3G8Aw6hXqSWxNHFBbo2TqjtkoDIpbX0+uk/ywx8ArnW6gas7NCRz/3KTB9TtuUMqSwAeU7kYMRp3bSuWolxlt0n6mtnQNNrI8bWis3nyYphUBydOeEHY0ruAZMT1b6fpADNXQZ9EzGzLJyIRV3kjX1kC8Gs2o5AX07LXafiR6LCDJGbYMctuGmg4q6umxL1dU5TLW9cUTfq72z+EzvaDZ8xUVJ7uz74rTg9Vip9WlgBcIr7wCVaGdXuL+XId5oDZOdo2r+J4hbMjQJhhtwH19eAYMCvHit8B2VxXv5n35pipBEF6mnuWu1R4DXcqoSrgql71wnzorVS+YIfHmHSeCqGZ4OJzQqJrGrhGqW/3N/73+O+YBhTgbmnnnvQrJi3wt5vAax4ra/pOxdLh718sAejJbJ68GEdqljFtPsKtjQyd9hUWCP+1CamRUpcrZHWARLZT10DNzBlAoWGXe5W7hIqsQtx7sQTgdh2dqQ/3ZBXAVd4qT2I6pW3hIgY5XVeez4Tl+caD5e7j4Y1S4r8DsyYbKhoNHRoP7WNQARIqetyr3B0XVWgUhc3puxdLAL6Lhn3VC3QtewGcJqSNdcIVMylMLtjQOPfcwHAllXXqQFwMkNV2YR2gd8WU/8OhM6VOJUqk1tP/uITqgCq9joUK9TG+cDeJznKdkqYoqUNVz/bngjVtGit3qumb+HRXkfHftnq3/QcHVEw27DPXAwIdfe5RbhI+CIpl12+uSQLwoo6FCie8+7tRpMJV6jY1wVid7R7ge46bLZVj81DVZIv/brnh4gYSwfu62r1nmDR/wtUP9yY32ahlsmqxtaOSl9QkAfhnSS0qIPjBFAdyk5Bo1akLAMAy1Obs3TRUX5Xgv28aNkvborepqMRcB+hLQ9j57yqnfKq8d6hFQk0h/48X6Fq0CzZxKsBVdp+k/7TT4UM7r45g92wSuHOG/LBqeWNTd9vnAHMbnJZsPMEdOG2uAsS+KnfZebzyq0OUa79XmwTgcZ2L991ZNApyUvGumV6PgHOBzjYtCVxNFMfNBkZdyon4d0yj03j7ksBpq80lgJyscpdwyS1Rv3e8nVAbyP/BtyVTtS3gCpavXOULg/V3iEOn3iaXuP4zzSrm4SpG1/PAv5Nq2DFw51G7VO5MayVMX13AvchB3tY+JpLVS4bjbuHKhNpC/o/66lzEGJ+yvcGHrJzoPNcNWwSl0PV9PMWscU6PyXod8/DvmcYTfe3QuX+kV6oRm9+v7psuqiRGnfCI2HJQi1BU34S6QP4PfyqpNdXHHZov/t9RIoxjTJTA0XFt+rf/fYjZGXlUQ2A+pPvqx7RbIHouTL/7m9vGxMlUs8/hrSnZ3IMc5NRVWgTDUMX/fkJdIf/HE3QvaJs7vcmLjAUaMD3B3efLQ81eHS3fYXY+vtn7Zn4/tOZNAt32sC021v8ik64N+816Puw6Fqfoj4PsOlHbldGLCfWB/A/8HxML2zXdbzJJXN0iSRxJ1n8ayi0sF3/qYaYB6q5OKUZn4zcdMHsXvvGA2QD4zkxz+4TpkUisu8f70u7XNT79Tpoug6gtoiZz/zVIAqZpX9zy+bwyjE2BrtGUZCzu4G81cA+qWxL5q4AoDjqITb5v3MObND7Ce7/KwAl44GzzNskfLsvnnuMYMUYLbxMNwEns9wlhQP6H/rfuXoBzzS1UCnSP0w2NQ6EcqrN/BE08JrvhF26246oMzZgmoXt6CB3/pt0e0XdAATW3CGvtrYe1uUN2SwgT8j843MRCh7HF9WwKdIp/fCNZnMkwExg/+7xYW0McHNdMASVEWyZmGndJ0THHXCVWKPI+qIyoSpaanYAMgNFb7jVuUeOV0VbJS8NOAK6UNLLjLdlWZKTMR9adLw421xk/Z32BlvWC+3dTgOWwTe977BJzVyG4C2/cWX0y9My7acbFngBXnDFJI2OzuJv6RYIKoNpmatEPmZvLhcSrgFptkiqTgD/3TDX223A1ZpspErrxdbpDno+Ri9T6AzTpnybyi8wHf5T+UWHj/uIOsXbiZdrWziMJqoCOQlRZjWT5Fe54gZNfEFc3JgVyVJ6UJq/MN/a7Blgqm91vhrnGuPSc8mAKxefgjz3w2QEs/bvEOzrGdPYJ9U1QDfmP/KekkdkfjHs92IN61y7xibe1Zr8XYPzy/NArAWg0hJW1CZxOLwuaiWwdAzUpitN2TKa3wR8YsySPe4pjTX87jmq7Jpwl2SBBB+Q/9JqpjwDqYyyBuUWcWE3io88KQm0MNCmD22FcltXv2mRj5JZD4WoioNHOluCPCRdVFQ5SDWet1XYFul3ysgSdkP/gaFMfw7LtbAp0iXhX6/aaFYxZtLkwtA10/ykzlq+fn4hbv+7x92k89VyAR3uHUyFsOTLTioY/AEkIx6HdYs8p2g4JaZI/TdAN+Y9+S3K9qY9Cl/UpGQ4h0hPLNDs/tWZPcb11AlASNoUX3nPj/hf31KYwLQRXvO6Tso2qO56PNgquNkh1bCrXv6ZRUdy33ZRgCvIf/7HkGRMfBYQ4mo9gU6BTEpj9zfYDAHtPxgM1LtdEb1bvLnbqXaNKZwIFxRV1viJE9QLTBDZhyqdU+3OJd3aMBQ2pmvBKgmnIP+JqU02BaMR66C02BbrE3tPM28hCpAhjfLX922G5qknD++vd33I/ebinW+sc3gymBHOwxmr79zZqlRxcE9kEXKXw3t8dNmqZLHYf13Y9ODLBFsg/pompj+RojE2BrnHuBvMbLSZKajtWakr/Hc1ELr7nKavMjEpCPbS2o1oaN+4aISO3PDCa4n7hDj9er63pby2u4BNsgvyDBpr6WFbuYlOgc+MxR0qMb7KYqx48N7dGaweWq6fS9B9pC0sqgrKiq30fpsYlnx9Us34JmFel5ZRbFfxxTcZ5f7fYZ7q2yuYpyX9NsA3yj/qG5DJTHw1c2bgQ3XLFSsoos2LDhdR0dVWkVxMzuK7rQCRYJvDJ1sJq7/sxnlpmV+wPAK947hHu8LmB2pr+0FjTMMFWyD/uh5JHTH04GN3hgnSHGNlC05YNOJFaGljbVvW3frpLf1Mbmolcv96CY50m+9Ovt0fLf7KqZk88U1NNitXBNo8H8uK8u1NKcF2jCU8l2A75R/6XpJHLPwSTP/dkU6BLfC3RDne1c6XXt2dcKLN7T5eU4LpANzBL7MM77jw+y8j7TJx/4ajw0++kBcmejVi+o0ibkyUZQtOfTG73nNDWO9I/wRXIP/YhUx8RtOdveJNNgS6xy4QsqzbiVbuLgsawc3/fB4v1j4Ydi5WKP3gSDNA/sf+0/iY76E6cC6h4lsMX5Fo13/9V7DxaUm+NClIvNY4EL8YVe4JLkH9wN5MbeEM2BTpFUx32VQGOe+3HZgUNixpLfF+ixQi/rrNeHmqmh6LVqMxgJNG2Lv+vAv4Jt7WPcR9wiBqNrw5L/iDBNcg/uoHkbFMf1ahP2BToGicZdNirCiZkf7ceLvHy/X72uX65EExuYJLCVqRkl4l7u3LczyVCkVNT8yhKj79NcBXyj79Cco+pj6v1KDYFuuYZAAvfqAP31D6+38f6pBrppbAVWfnl4pFe7FlyiY27aG36eyDBdcgf8QtJIxZhaArkB+ZeErDQMkU2nahufI1iKX4ABj+QxuY379ZEy76T2iqCnRN8gfwxt0saab9Bx+9NbXi/5lTTWPMk62RZdQDTEL67vkHdrqikIvLBvwmDv3NcsEnbnjQTV+gJPgH9OKY+ONw9cryGSYDtmLgiGjPg6M9h8Oc37hL7z9TW9LdL8vIEHyF/2HhTH96YJWwKdDEJmBORkjEkc29uG41KFYR4TExW2BD8m1Li1zm+ODhd1/goRmV+nuAr5I/7juQmUx9gm9FsCnSxJ2D6av+TAIxB0hXS74Y/3vm7R0xo4N1pAOTQbkvwHfJH/ptkzMRHiHEgyM9yYbvH0Yv9LRvDEwGqYlF6nxDmgWhXFIBqByYg+B27RQgzHdAnYNU8ISqQP/ZaSSPKHJgLjkqp1UfxDR/HyDqNj6b5C7w7fAdEfh7ozjl/F7loi7YepLEJUYP80X8z9VGu38emQFf55uhMURL3JwvAWFGUray3HS7xNvh/fiJOhT9HOUCfMulGyW8nRBHyhw8x9XF+uIyuWy7bb0Kq1we8NCQj0u8Sokc+ApNH11Pb30nim9RUaUyW/HFCVCF//KWSK019pO3G0nfbVaKseiTZ7TvkPcfjkfesQPVj44Fir4L/5JX5rDA6SuhwaDpcoPR1TULUIR/ClZLHTXyoECT5Sx925rpKuD6u3u128MjOLxfzNxWKtmMyIyNYhR4cTOTMXlcg0nP8GQfEqBimG/htuklUbA6d0XaoaJpAfJkE/LekkVmv0+lsCnRdK2Ds0jxvAghc66BZAfe8az2ZDGjUMjmYpcbv2nsyLio8bOREpz9MYvhNuluJWrKtSNdyeY9R/8Ik4DFTH++mAyUs2TlOGD/lFvolLgNpYFwToKSM6ypXXONu7xATryVmiGHzcsXavcWiOO639C/eEUxi+B26y/fm5OpaLsslv8mIX3kS0MvURzxhBZsCfbi/23sy7nWwwf3kloMlQVLQbVK2eObdNHFLOzMVLCj6PdkvTbSXycnIRXli1e4ikZpdJqKEjz4rCCoc/P7c5SvDtDX9HZX8ESN91QnAJZLzTH3MHT5kU6AP5eYpn+aLqAHVD4ydoYw5SSYHONF0GJcVdDQjSCM5wlVXdSOHqIShF+FWmVQ83DM1KN0jwL8zM0eMXZIXSDNvPVwSSSnfrwKyvm3GUFnUh2ZiTU1/2JR+xyhffRLwPcn9Jj5qlCqf6MumQB+IO/SonUZrA3gPfJWwziZqWPKXiRbFffzwpDicpK3p72FG95onAb9Cg7SJjxuyrKZKqmT43eaLtxYyYhGhNWmOWpQXyBjz+3K/6W/Zdm1Nfz0Y1WufBDTGN2fiQ8cdKz9yf/jGB5mRL1kT9QMkfWnj6w+HztPW9DdXsgEjet2SgDamPng0WfFD8Ye41567gdUAopan/gohxi/P92Ykk0wSrw/X1vS3V/IKRvK6JwANEItNffydx7Mp0MfegBOppYxsRLXA/fBT7/DU7xMfeitV17hwluQvGcXrnwRcJrnVxAYA05m/9uMG4OOkwIiFeaKklI1vxIVAQ+Sgj3N4Dehh09/RmJbkHxnGnYze4SUBP5FMMbEZJGeWBcIm/ID8IyY+COKrgHARRX38bPpbuVNb098bjNrhJwE3ShpRecHc89Ut+BH5xrdn5DDiEV8D/An4bfjHxAXamv4mMlqrSwJeMrUxTF3FpkCfiPLumQzqBBBfB7RAomLKFBU2H5Ghy39is+R3GanVJgHvm9ocuk5kU6AvhLY+QVSG/jNz+I14wj/3TA1UGzUgJvnvjNDqE4BvSa4x0hRYWiGeZlewF9x5tISRjqgUR5JL+Y14Yhd+PEVL0x+upq9ndNaXBPyL5EkTm0Msq0zc0ZElQtc5cUU+Ix1RKaAXwW/E/aY/mFNpwguMyvqTgKskjSi77DhSIq5pQWEQ150DCYJXfX4SY76akMhobC4JeNLUJjFjDbuFXadGIxDCIUAsht+Hu2w5MlPXUlkleSkjsdkkoJ+pjaLH5Gx+cA5z9e5iRjviAlzfmtU9V/lIr1RdzpYnJP+ZEdh8AvANyUUmNop4WQUNQhzmp7uKGO2ICwDFOH4fbvp9aJL5xtXz7xl97UkCvi950MRmkZZTLu5kU6CTTUKxzPB1ANBAhkZRQj0w251TEL6u+98GpfMbcYwN5fe8Zo+2it7jjLr2JQG/kcw1sRHtOhZnU6BjfDUxI/R1ABnZc5vRi4PTxZz1BbpmkCMFNOH2m5Ej7uqUEpj1hI1pq9nf4xpHfaKt6a8Po629ScD9OBiY2JRmreWm4RLX7wv3tIDT6BNvX3gdBBtZiA4t2Vak627SO5TJQ/6G/cWBdPM9lej0f7I13GGg7Pxy0Yj2v87wjQ+0Nf3Nx5UzI63dSUBHUxtVzylsCnSBj/ZODf3dL9pS/ew4XAhRecAESWo2rwkuhozccrFgU6HoMC5L3NgmudqRztKQHycbfN35lgtLtCTW+3HVzAhrfwLQQHKGiU0Lm1DTAbw/tJ3zNoZ7YoR+/IM9UmvdgwCradjOrttbLIpKol0dwCaOU/57c3IDl0Y8n9o8zw4fZgXOnWEBtrENm/FbsZk3t42JU2laEulsyf9kdHUnCfgnyZ2mTi53d6KdqM3a4OUh9Y2hAXTg7BxxS7v6N4Gih+S5gemBgMnGA8Xe9w6geQ9KbXh+mKSBOVMY7xcJ+LbD4cg8tx9LQSBrm/7kekHPjQZgt7iXUdW9JOBnkukmNrc9x+NBuZcfqn1cuj2c0b+xS/KUvmOcPpGsdJmQJaavLhB7TsSDSoOrd/j7T8XFx+sLxFtTssXD8ndd1UxtcMCVTH1xLFYaWmJChssxS7Q1/bVnNHU3CbgF+4+JTQ+bHT9Uu/hkv3A6xgfPyTU26oT77hYjMoOrA1xlIDHIzCu3ItDDLAul85W7ioIECckLnrmJZBgVlf2n4/X+Tb2nsRfANrYZo63pbyqulBlJ3U4CXje1IfaZzs3DJm46UP/SMEbQrrLwbhhd65CwfXlohug+KVsMX5Arpq7KF4s2FwalUlSlIJKCDve8worgVF5tQI9XBP+3SRllgWzydvnbUbZHcosAj1G8tnIzRtndRoOs5wfVvwCIKz3cNfP7sYN/6ZOmq19mu+RljKB+JAGjTTUF4l6XH655vjm6/qeGqkb9fFBQ+yp9KnuvC+GeeDp1Aaxp+judrqWgi1LhTxk5/UkAviW53lRTYOMubAo0Sczi4xRbX6DkzufpFp95Ny2UxA+CQ3yeZpv+NuzT0vQHLeGbGDX9SwJ+LHnGRBLw+Yk4hUUMcuSi+jcMYXKgtqN+pB3ccqgklG+YY4Hm+OGyfF3b9SuMlv4mAVdjbNtEEsDToxk+0D0luMuuL3CXzufpJluPCqdpDEqEfJ76CTEoTRjJKOl/EtDEVFNgP24g2omZ+jDg491/lMrHYVwBQcqZ13l6CVEoTeOva3FVzAgZjSRgoKl56BfeY1OgLnYaH87JYefREj5PxwmFwTCwencxn6cmQmArjMStBjgl+a+MjNFJAL4hucxEEpCVXy7u7cpThI7NA886DHQeT0U4HzrIoVMQBtpRIVBL1SaMsd0aAMpgDRkVo5cE/FDyiIkkYN/JeNCZzg9dHT9YHI5SGMq+17Xmu/KBi0NyDTwjT6UNqRColBNWaGv6e4rRMLpJwH9J5ptIAuB0xg9dDR/rkxpK4x+bN/3iy8MyQvt+4dnAZ2r31V0N0J9RkEnAQ6aaAvvPZFNg2Lxentah4R4WXhzMng1vysrNkkJzDCyX+eVLQzL4XEMmHDJL9DT9LcZVMCMggSSgm4kEALPlfx/CABMmw7T6jWWVcfbbM45aFJ6JDES+bJRAdpW3tY+Faul8ERyW/AEjH3EuAWggOdtEEgBb1PvYFBgKYT4TJsYuZZnXR12IMLH1cAn7AUIg5Ke3HNTS9IcM8LeMesT5ScAVkntMJAEHTsfZaFZPIolCw16Y4Oy/n9xxNNxAA2MkPtf6cfJKba1YDzDaEVUlAb+QzDSRBMC/nBtB3Qh3vrB1wo+nlPLZesqeU7JDXSvwCvjbIF7l1ZVdJ2pr+uvMKEdUlwTcjut5E0nAgNlsCqwLYX8bNtjl7S/heBgvC7dahMbTP/AqoNZ8+p200PQZqsFMXPUywhE1SQJaGWkKlN8BRpW4MdScd3dKCTzrw8afe9L4x2eu3Ru+Jcg7nOqpFW/vEAsabTVgl+TljGxEbZKA8aaaAu/vxqbAmnLNnvA38sNJLP/7TlTbQpeUK6kIElI+3+p5dYukoIFSAyD+8HNGNKK2CcB3JDeZSAIOnSkN5tm5UVyc8GhXgcQFuXy+nvOeLilK1s5HnxXw+daA01YX6NhKUV64jdGMqGsS8G8YBzeRBCzZVhQ0t3GzqJrLthcpefYs/0eDe0/GQ187uM/GPDufb9XsMTlb1zbanFGMqG8ScK1k3EQSAAczbhiV88Y2yaJUwfUhu/+jw/cX5ir5bvtMz+bzrYJN+qeF3oBZ1XQmoxcRVhLwN1NNga8PZ1NgZWw1Us205vjl+Xy+EZKdVYGl24v4fCshVBNTs7U0/W2U/DYjFxFmEjDERBKQW1guHuzBkvT5HL5AzentuYGc546SfgTkfNlEqp7XtEgWO45oafpLlvwxIxYRdgJwqeRKE0kANpQ/vsGmwK9yxprwm4jSc8qp/R8xomkvbCRllPHZavheK2vBkLyG0YpQlQRciWtiE0kAGt7YFPgPzl4X/oYyaSXL/1EjKj5h43Q6EwCVyosXQVNGKUJ1EvDfkgUmkoCh89gUeI4w6gm73+KRXrxq4TRACKozx+J8rmfZdEC6kmbdynqmGZ0IXUnAY6aaApuPYFOgCue/CSt4+o8qX3gv3CrAx+upBQDe2TEWXKtpwHLJbzIyETqTgF4mkgDI3j70Fk+qjbukBCYsYT3Tm9tydjvKXL07PEVJlLzZ9JccVEI04KjkjxiRCN0JwCWS80wkAUdjbAoEN+wPZ9MeTL2FyBOTNmHMp5fEKwKNe/boaLklhYfw7xiNCFNJwPck95tIAlbuZFPgsyE0cMEbni5uJJg4v/6jpdSRSAqEkDThYUYhwnQS8CvJbBNJADXrk8Tklfl1fn6n0sp4WiO/JEZAkVjXFftPx8W1raJdmcNUhaamvx6MPoQtSUBj9OiZSAJajsyM9qYtT+/Ld9R+00bnN4M/WdnddV08JqDVEXUPADghqhBWqgRzJRsw8hA2JQFtTCQABcUVkTevQRIAXfeanDzwf4MRwkYt2UNBVq0Q2Hd6dtAcWhMs3loobngz2usJ39Oe41qa/vZKXsGIQ9iWADSQnGwiCYCBTdQ3IPD+bili6qp8kZ1/4SkEGuQY9cP/DYMcWRNiMmTYvFxxJLn0gvVUJpfYur3F4pVhHMsF524o1LHVYfb3l4w2hK1JwGWSW00kAat2synwqxWBR3unBpvz3walM+iT9eat7WKBqM2riRnB/8spnH+w34wcLTIokncyyhC2JwE/kUwxkQSMXJTHDYkkSa0iSmV6up/eYHQhXEkCbpSMm0gCWo/K5MZEkqQWMS5NTX8TGVUI15KAl0w1BVLTniRJpU1/rZLF5ye0nHE2S36XEYVwMQl430QScCK1VNzUhiNuJEmq4YJNWpr+YpL/zkhCuJoAfEtyjYkkYM2eYnrbkyQZOvvP1NL0h/LC9YwihOtJwL9InjSRBIxezKZAkiTD44uD00W5nqa/Fxg9CF+SgKskC00kAW1GsymQJMn6896uKSIrX0v0T2TUIHxLAp40kQAUllQEM/HcwEiSrCuva50s9p3U0vS3SvJSRgzCxySgn4kkAKY39LsnSbKuXLRFSwHzhOQ/M1IQviYA35BcZCIJWLu3OFDI42ZGkmRtOGC2lqY/ZBi/Z5QgfE8Cvi950EQSMG4pmwJJkqw5XxqSIcortGxPjzM6EFFJAn4jmWsiCWg3NosbG0mS1fK+rikip0BL018fRgUiaknA/ZIVuhOAopIK8Zc+adzgSJK8aNPfgdNamv7m42qUEYGIYhLQ0UQV4HQ6mwJJkqyccBVdsq1Ix1a0H1eijAREVBOABpIzTCQBG/axKZAkyQv53hwtt5PZkv/JKEBEPQn4J8mdJpKACcvzueGRJPklXxmmpekPjQX3cvcniC+SgJ9JpptIAjp8yKZAkiSTxP3dtDX9teeuTxBfTwJukSzTnQAUxyvEE33ZFEiSUeYf30gWh86U6thypuLqkzs+QVyYBLxuogqQlFEmbmnHpkCSjGrT37LtWpr+tktexp2eIKpOAkabSAI2HShhUyBJRpBD52lp+kuT/Cl3eIK4eALwLcn1JpKAySvZFEiSUeLrw7U0/eFu4Sbu7gRRsyTgx5JnTCQBncezKZAko8AHe6SK3EItTX+vcFcniNolAVejR093AlASrxB/7cemQJL0venvSLKWpr+R3M0Jom5JQBMTVYDkzDJxW3s2BZKkr01/K3dqafpbiytN7uQEUfckYKCJJGDLwRJxdQtuliTpGxMXaGn6OyX5r9zBCaJ+CcA3JJeZSAKmrmJTIEn6xOYjMkSF+qY/lBcacvcmiHCSgB9KHjGRBHSdyKZAkvSBD72VKvIKtRiQPsVdmyDCTQL+SzJfe1NgaYV4+h02BZKky7zhzWRxPEVL019/7tYEoSYJeMhEFSCWVSZu78CmQJJ0telv1W4tTX+LcWXJnZog1CUB3UwkAdsOl4hrWiRzQyVJxzhiYZ6OLeKw5A+4QxOE2gSggeRsE0nAjDUF3FBJ0iG2HJmpY2tAhvFb7s4EoScJuEJyj4kkoMfkbG6sJOkA/9wzVRQUa2n6e4C7MkHoTQJ+IZmpOwGIl1WIJv3ZFEiSNvOmNjFxIlVL019n7sYEYSYJuF2yXHcSkJpdJu7oyKZAkrSRDZsliTV7tKiIz8SVJHdigjCXBLQycRWw8yibAknSRo76REvT3y7Jy7kDE4T5JGC8iSRg1lo2BZKkTWw9SsutYIbkz7nzEoQdCcB3JDeZSAJ6TWVTIEnawEd6aWn6K5O8jbsuQdiVBPwbNHt0JwDlFZwMIEkb7H01Kf01525LEHYmAdeiUd9EJSBxfi43YpI0pPS3bLsWpb+x3GUJwu4k4G/CEJZuKwpOItyUSVIfJ67QYhGyUfLb3GEJwv4kYIipJOBkaql4rE8qN2aS1MCxS7V0/CdL/pg7K0G4kQBcKrnSVBIAB8Gh83LF1S24QZOkCuLbmr2uQMvnLHkNd1WCcCsJuFLyuDCIw0ml4pl3qRpIkmGycecUseNIia7PuCl3U4JwMwn4b8kCYRhLthWJh3vyWoAk69vsh4mb3EJt4p/vcRclCLeTgMeEBSiXe9a8jYXi0d5MBEiytnx5aIbYc0LrgM9yyW9yByUI95OAXsIibDtcItqPzRKNWnJigCQvNtvffVK22HtS+2TvUckfceckCD8SgEsk5wnLANWypduLRKfxWeKWdjQXIlnih4Vv72nZ4tNdRaIkXmHis8RM4e+4axKEX0nA9yT3C4txLFYqFm0uDESFukzIEq8lZogXBqeTpDd8aUiGaDUqU7Qdkyn6TM8Oxviw5mGupUHGtyZ4mLslQfiZBPxKMlsQBEFciB7cJQnC7ySgMXryuNcRBPEVzJVswB2SIPxPAtpwvyMI4iz2Sl7BnZEgopEANJD8kPseQUQemZK/5K5IENFKAr4luYD7H0FEFpgvvIW7IUFEMwm4THIF90GCiCSe5y5IEEwCmAQQRLTQnrsfQRDnkoCl3BMJIhLoy12PIIivJgHoCZjCvZEgGPwJgoheEoDpgH7cIwnCS7TjLkcQRHWJwDOSJdwvCcILoNu/CXc2giBqmgRcI3mSeydBOI10yZu4oxEEUdsk4IfCQhdBgiBqhPWS/4s7GUEQdU0C0BfwgmQe91OCcALw+kAvz6XcwQiCCCMR+LngqCBB2I5DkjdwxyIIQkUi8LhkMvdZgrAKaNrtJXkZdymCIFQmAZdL9pDM575LEMYxR/J/c2ciCEJnIvBjySGSRdyDCUI7PpVsxJ2IIAjTiUBf8YW1KEEQ6lAh+ZHkNdx5CIKwKRGAp8Bzkpu5TxNEqDh19trtp9xpCIKwPRn4tWR3yc+5dxNEnZB09ortVslvcFchCMLFZOBnkq9Kzji7qREEcSFSxRfCW60k/1uyAXcPgiB8Swh+KvmAZDvJDyWXSe6TzBBsKCT8Rd7ZBHi75GLJUZKtJR+U/Al3BoIgCIIgCIIgCIIgCIIgCIIgCIIgCIIgCIIgCIIgCIIgCIIgCIIgCIIgCIIgCIIgCOL/BxM4q6zA0/gRAAAAAElFTkSuQmCC;" vertex="1" parent="1">
          <mxGeometry x="501.24" y="26.48" width="103.52" height="103.52" as="geometry" />
        </mxCell>
        <mxCell id="nyQZCp3bkRx2eXuKA3Nu-33" value="" style="shape=flexArrow;endArrow=classic;html=1;rounded=0;entryX=0.5;entryY=0;entryDx=0;entryDy=0;fontSize=22;exitX=0.5;exitY=1;exitDx=0;exitDy=0;fillColor=#353535;" edge="1" parent="1" source="nyQZCp3bkRx2eXuKA3Nu-36">
          <mxGeometry width="50" height="50" relative="1" as="geometry">
            <mxPoint x="557.9083333333333" y="280.3333333333333" as="sourcePoint" />
            <mxPoint x="557.45" y="320" as="targetPoint" />
          </mxGeometry>
        </mxCell>
        <mxCell id="nyQZCp3bkRx2eXuKA3Nu-50" value="" style="shape=flexArrow;endArrow=classic;html=1;rounded=0;entryX=0.009;entryY=0.372;entryDx=0;entryDy=0;fontSize=22;entryPerimeter=0;fillColor=#353535;exitX=0.987;exitY=0.593;exitDx=0;exitDy=0;exitPerimeter=0;" edge="1" parent="1" source="nyQZCp3bkRx2eXuKA3Nu-31">
          <mxGeometry width="50" height="50" relative="1" as="geometry">
            <mxPoint x="320" y="352" as="sourcePoint" />
            <mxPoint x="451.9397916666667" y="351.76" as="targetPoint" />
          </mxGeometry>
        </mxCell>
        <mxCell id="nyQZCp3bkRx2eXuKA3Nu-51" value="" style="shape=flexArrow;endArrow=classic;html=1;rounded=0;fontSize=22;fillColor=#353535;entryX=0;entryY=0.5;entryDx=0;entryDy=0;exitX=0.995;exitY=0.129;exitDx=0;exitDy=0;exitPerimeter=0;" edge="1" parent="1" target="nyQZCp3bkRx2eXuKA3Nu-36">
          <mxGeometry width="50" height="50" relative="1" as="geometry">
            <mxPoint x="315.2499999999999" y="206.53999999999996" as="sourcePoint" />
            <mxPoint x="450" y="205.45" as="targetPoint" />
            <Array as="points">
              <mxPoint x="386" y="205.45" />
            </Array>
          </mxGeometry>
        </mxCell>
        <mxCell id="nyQZCp3bkRx2eXuKA3Nu-54" style="edgeStyle=orthogonalEdgeStyle;rounded=0;orthogonalLoop=1;jettySize=auto;html=1;exitX=0.5;exitY=1;exitDx=0;exitDy=0;" edge="1" parent="1" source="nyQZCp3bkRx2eXuKA3Nu-48" target="nyQZCp3bkRx2eXuKA3Nu-48">
          <mxGeometry relative="1" as="geometry" />
        </mxCell>
        <mxCell id="mXB8QE0lt-dKr366Xkr6-1" value="" style="shape=flexArrow;endArrow=classic;html=1;rounded=0;entryX=0.5;entryY=0;entryDx=0;entryDy=0;fontSize=22;exitX=0.5;exitY=1;exitDx=0;exitDy=0;fillColor=#353535;" edge="1" parent="1">
          <mxGeometry width="50" height="50" relative="1" as="geometry">
            <mxPoint x="278.37" y="247" as="sourcePoint" />
            <mxPoint x="278.82000000000005" y="313" as="targetPoint" />
          </mxGeometry>
        </mxCell>
        <mxCell id="nyQZCp3bkRx2eXuKA3Nu-29" value="KUBECTL" style="rounded=0;whiteSpace=wrap;html=1;verticalAlign=middle;fontSize=18;spacingTop=0;spacing=0;strokeWidth=6;fillColor=#406fde;" vertex="1" parent="1">
          <mxGeometry x="204" y="154" width="150" height="100" as="geometry" />
        </mxCell>
      </root>
    </mxGraphModel>
  </diagram>
  <diagram id="DOObf-uhnlkKdaqV5gdT" name="draw2">
    <mxGraphModel dx="1473" dy="943" grid="1" gridSize="10" guides="1" tooltips="1" connect="1" arrows="1" fold="1" page="1" pageScale="1" pageWidth="1169" pageHeight="827" math="0" shadow="0">
      <root>
        <mxCell id="0" />
        <mxCell id="1" parent="0" />
        <mxCell id="D52kMnZtS_Bpdk-7Nocg-1" value="" style="rounded=1;whiteSpace=wrap;html=1;dashed=1;strokeWidth=1;" vertex="1" parent="1">
          <mxGeometry x="360" y="130" width="490" height="600" as="geometry" />
        </mxCell>
        <mxCell id="D52kMnZtS_Bpdk-7Nocg-2" value="SKAS POD" style="rounded=0;whiteSpace=wrap;html=1;verticalAlign=bottom;fontSize=26;strokeWidth=3;" vertex="1" parent="1">
          <mxGeometry x="420" y="290" width="370" height="400" as="geometry" />
        </mxCell>
        <mxCell id="D52kMnZtS_Bpdk-7Nocg-6" value="" style="shape=flexArrow;endArrow=classic;html=1;rounded=0;fontSize=22;fillColor=#353535;entryX=0.465;entryY=0.024;entryDx=0;entryDy=0;entryPerimeter=0;exitX=0.469;exitY=0.75;exitDx=0;exitDy=0;exitPerimeter=0;" edge="1" parent="1" target="D52kMnZtS_Bpdk-7Nocg-5" source="D52kMnZtS_Bpdk-7Nocg-4">
          <mxGeometry width="50" height="50" relative="1" as="geometry">
            <mxPoint x="597.9999999999998" y="400" as="sourcePoint" />
            <mxPoint x="598" y="430" as="targetPoint" />
          </mxGeometry>
        </mxCell>
        <mxCell id="D52kMnZtS_Bpdk-7Nocg-7" value="skCrd" style="rounded=1;whiteSpace=wrap;html=1;fontSize=22;fillColor=#326138;" vertex="1" parent="1">
          <mxGeometry x="483" y="553.33" width="93.52" height="76.67" as="geometry" />
        </mxCell>
        <mxCell id="D52kMnZtS_Bpdk-7Nocg-8" value="" style="shape=flexArrow;endArrow=classic;html=1;rounded=0;entryX=0.5;entryY=0;entryDx=0;entryDy=0;fontSize=22;fillColor=#353535;exitX=0.258;exitY=0.833;exitDx=0;exitDy=0;exitPerimeter=0;" edge="1" parent="1" target="D52kMnZtS_Bpdk-7Nocg-7" source="D52kMnZtS_Bpdk-7Nocg-5">
          <mxGeometry width="50" height="50" relative="1" as="geometry">
            <mxPoint x="554.4583333333333" y="513.3333333333333" as="sourcePoint" />
            <mxPoint x="123.20833333333337" y="540" as="targetPoint" />
          </mxGeometry>
        </mxCell>
        <mxCell id="D52kMnZtS_Bpdk-7Nocg-9" value="kubectl-sk" style="rounded=1;whiteSpace=wrap;html=1;fontSize=20;fillColor=#326138;" vertex="1" parent="1">
          <mxGeometry x="180" y="313" width="130" height="67" as="geometry" />
        </mxCell>
        <mxCell id="D52kMnZtS_Bpdk-7Nocg-10" value="" style="sketch=0;html=1;dashed=0;whitespace=wrap;fillColor=#2875E2;strokeColor=#ffffff;points=[[0.005,0.63,0],[0.1,0.2,0],[0.9,0.2,0],[0.5,0,0],[0.995,0.63,0],[0.72,0.99,0],[0.5,1,0],[0.28,0.99,0]];verticalLabelPosition=bottom;align=center;verticalAlign=top;shape=mxgraph.kubernetes.icon;prIcon=master" vertex="1" parent="1">
          <mxGeometry x="501" y="180" width="50" height="48" as="geometry" />
        </mxCell>
        <mxCell id="D52kMnZtS_Bpdk-7Nocg-11" value="API Server" style="rounded=1;whiteSpace=wrap;html=1;fontSize=23;fillColor=#406fde;strokeWidth=6;" vertex="1" parent="1">
          <mxGeometry x="451" y="180" width="145" height="70" as="geometry" />
        </mxCell>
        <mxCell id="D52kMnZtS_Bpdk-7Nocg-12" value="" style="shape=image;imageAspect=0;aspect=fixed;verticalLabelPosition=bottom;verticalAlign=top;image=data:image/png,iVBORw0KGgoAAAANSUhEUgAAAgAAAAIACAYAAAD0eNT6AABfl0lEQVR42u29d5RexZUt3sLGgQEvB+Y34zVvHMZ+9thvnsfzkEGAyVFEY4IBgxAYMFERlDNKCCEJhRaSUEA5IAlllJGEcg4o59D9dc7p61C/2hcJg9StTrfi3Xutvd4fb4z6u7dunVOnztk7IYEgCIIgCIIgCIIgCIIgCIIgCIIgCIIgCIIgCIIgCIIgCIIgCIIgCIIgCIIgCB0QQnxb8irJZyUHSc6R3CqZKpkv/oEiyZjkDsmpkt0kH5C8kk+RIAiCIOwP+JdIXnc2gH8qWSzqj/2SQyXvk7yMT5kgCIIg7Aj6DSRvkHxfMlmoBRKKjyUfl7ycT58gCIIg9Af+H0i2lTwozADXBjOZDBAEQRCEnsD/b5IDzrvDN42Cs70D90t+i2+JIAiCIMIL/FdI9jx78rYZmZIjJG9GTwLfHEEQBEHULfB/X7KdZLpwD8ckX2JVgCAIgiBqHvivlOwumS3cR5JkC8nv8s0SBEEQROWB/8eSb1t2xx8W0s9WM67gmyYIgiCILwL/TyQHO3DHHwayz2oV/JBvniAIgohq4P+l5EjJuIgeUOXoK/kvXAkEQRBEVAL/byUnSJYJouisVPG/c2UQBEEQvgb+/5GcIVnBuH8B4mcVDX/BlUIQBEH4EvgbSc5njK8RUBUZhyoJVw5BEAThauCHIM4yxvQ6oeKswuD/cCURBEEQrgT+uyXXMoaHBlgZN+LKIgiCIGwM+nDm+5PkVsZrZViMqgpXG0EQBGFD4L/krCve54zP2rAaVRauPoIgCMJE4L9UsqnkYcZjY9h0turSgCuSIAiCUB34v3PW5OYk46812HW2CkMHQoIgCCL0wH/5WVObZMZba3HgbFXmm1yxBEEQRH0Dv8uWvFHFcUErYoIgCKKOgd8nS96oglbEBEEQRI0Dv/OWvCXxCrHnRFws3looxi3NE/1m5IguE7JEq1GZ4pVhGeKFwelVsuXITNFpfJYYPCdXzFxbIHYfj4tS9x0LaEVMEARBVBn4nbbk/VwG/F5Ts8UTb6eJPzRPEv/v9fB4fevkIDFAQlFS6rSNAa2ICYIgiC8Dv9OWvNuPlIjXEjNCDfgX4+0dYmLUJ3kir9DpRIBWxARBEBEO/E5b8m7YVxyU7HUF/vP5xzeSxeC5uSIrv9zlRIBWxARBEBEK/E5b8q7aXSSeeTfNWOA/n9e2Shb9Z+aI1GynGwVoRUwQBOFx4HfWkrdCpipLthUF9/u2BP7zeU2LZNF7WrY4k+F0IkArYoIgCI8Cv7OWvOXlQszbWCge6ZVqbeA/n2hA7DoxSxxPKXU5EaAVMUEQhMOB31lLXozdffRZgXiwhzuB/3w2bJYk2o/NEgfPxIXjoBUxQRCEA0HfaUtezO9PXpkv7umS4mzgP59XyUQA+gN7jjufCNCKmCAIwsLA77Qlb2FJhRi7NE/c0THmTeCvjBhX3Hq4xPVEgFbEBEEQFgR+py15MUs/YmGeuKWd34H/fGJ8cd3eYtcTAVoREwRBGAj8TlvyZueXBzP0N7yZHKnAfz6b9E8TK3cVuZ4I0IqYIAhCQ+B32pI3Pac8mJm/rnW0A//5fLxvWiAzXOG0uCCtiAmCIFQEfqcteZMzy4IZeczKM+BXzT/3TA3GHsudFhekFTFBEEQYgd9pS94TqaXBTHzY5jy+8/5uKcEYpOMuhLQiJgiCqEPgd9qS93BSaTADj1l4BvS68+5OKcFYJMYjHQatiAmCIGoQ+GHJO0Q4bMmLmferGPhD5W3tY8GYJMYlHQatiAmCICoJ/LDkHSVoyUtehDe1iQVjk7mFTjcJ0IqYIAhCfGHJO1HQkpesgxVxZh6tiAmCIFwL/LDk/UjQkpcMwYo4hVbEBEEQ1gd+WPIucHGXdsGSN6o8Z0V8Op1WxARBELYFfljyLndxV3bRkjeqPGdFfCxGK2KCIAjTgR+WvOtc3IV9sOSNKs9ZER84TStigiAInUH/nCXvNhd3XB8teaPKc1bEu2lFTBAEoTTwf0N8YYqy18UdNiqWvFElxjS3HKIVMUEQRJiB/1uClrykK1bE79GKmCAIor6B/7uClrwkrYhNglbEBEFoDfyw5G0paMlL0orYFtCKmCAIpYEflrztBS15SVoR2wpaERMEEWrghyVvD0FLXpJWxK6AVsQEQdQr8MOSt5+gJS9JK2JXQStigiBqFfidtuTdQ0teklbEF/S8CloREwRxkcDvtCXvtsO05CVpRVwNaEVMEMTXAr/TlrzraclL0oq4tqAVMUFEPPA7bcn76S5a8pK0Iq4naEVMEBEL/E5b8mJmm5a8JK2IQwWtiAnC88BPS16SpBXxRXNsQStigvAq8DtvyftAdzrzkbQi1gxaEROEo0HfC0vexrTkJWlFbBq0IiYIRwK/F5a8t3egMx9JK2LLQCtigrA08HthyXtzWwZ+klbElmOzoBUxQVgR+L2w5MVsNQMESStip7Bb0IqYIIwEfqctedPOWvJilpoBgaQVsdOJwEFBK2KC0BL4nbbkTcqgJS9JempFfELQipgglAR+py15j6fQkpckI2JFjKokrIgv485NEPUL/E5b8h46Q0tekoy4FfH3uJMTRO0CPy15SZJWxD5ZEf+IOztBXDzw05KXJEmfrYj/lTs9QXw98NOSlyTJKFkR/4Q7PxH1wE9LXpIko2xF/EtGAiJqgZ+WvCRJ0or4i6rnh4JWxEQEAj8teUmSpBVxJWcLyWmCVsSEh4GflrwkSdKKuGaYK2hFTDge9GnJS5IkrYjrjiWCVsSEY4GflrwkSdKKODysEbQiJiwP/LTkJUmSVsTqQCtiwrrAT0tekiRpRawPtCImjAd+WvKSJEkrYnOgFTGhPfDTkpd0lvd2TRGJ83PFloMlgZBMVn65OJxUKhZsKhRtxmRyXdCK2EXQiphQHvhpyUs6S/R2zFxbUO1Gn5xZJt4cnclnRitiF0ErYiL0wE9LXtJpPvVOWq1lY6evLhANmSzSithN0IqYqHfghzNfoqAlL+kwnxuYLorqaCc7e10BnyGtiF1OBFCthfHQ7xjRiJoG/v8jHDbooSUveY6NO6eInIL6Xe72mprNZ0krYtetiIEtZycHvsEoR1QW+P9dcqyrgZ+WvOT5DGPcK7+oIjgN8nnSitgDK2JxVqelKUcIiXOB/5uSbSQLXFzNtOQlK+MTfdNCW2OjPsnjMyV9siIGtgvKDEc++P/PWVEJp0BLXrI6TlgRXs9qLLOMvSSkj1bEwDiMdjMaRivwX3K2S9Qptwxa8pI1ZdiOcI/25pojvbUiPiPoNRCZ4P8jyaUurU5a8pK1dYOLl4XbyoJRUj5b0nMr4t5sEvQ7+P8emjiurEZa8pJ17dwOG7j35bMla2RFPNJpK+KVkj9ktPQv+N/tipgPLXlJJgCk63zVXSvi/ZL/wajpT/Bv6sJ9Py15SSYApG98fpCTVsSpkv+X0dP94P+y9XJVtOQlmQCQnvNp96yIMUt7FaMog7+a1UVLXtKRBKDHZCoCkuHwL32csiLOQe8Yo6l7wf9RYamqHy15SdWNWGFvrijj8tmSYfKht5yxIobL4M8ZVd0J/jeiid62VURLXlIXU0NWaru1HftSSDW8r6sTVsQHMULO6Gp/8P+FZJZNK4eWvKRubj4YXv4LQyE+U1I177LfingJdQLsDv7/JLnLltVCS17SFMctzQttHe84WsJnSmojqk0Ygy4otjIR6MdIa28CMMmGFUJLXtI0/z4kPbT1PGd9AZ8paaSZFWPR9bW0VoDGjLb2Bf+nTK8KWvKStrBRy+TQ5IA5Akia5Dkr4oxcaxIBNAVeyahrT/D/2dlxDSNYu7eYlrykdQxLjvWxPjQCIs3znBVxLMuKbsEZjLz2JACfmFgBh5NKA7lLfpykjZyxpiAUdUo+S9ImnrMiPpNhPBG4h9HXfPB/XPdbLymtEIM+zuE4H2k1B8zKCSXJ5bMkba0IfLA4L3Tny1rgiOR3GYXNBf/Lz97HaD310xuddIEYPa33BMARTgCQdvPPPVPF1sPGZF/aMhKbSwC6ax0C3VYkrmtN9T7SDT43MD2UNc9nSdpOaKygUbBMf58gsuzvMxrrD/4/lizQ9ZbHLMnjPD/pFO/vllLvdT9lVT6fJekMn3onTZxMLdWdBLzFiKw/ARik6+0is+THRbrYLMW1T0ZRP+Czz7XaD2dChI5RWV/wv1IyX8ebHcINkHSY9Z2d7jIhi8+RdO9KoHk4UzC1wKuMzPoSgB463uiUT1n+JN3mgdP10wKgoiXpMseGKIldDfYxMusJ/pfq6PzfsK84yCL5EZEuEyJV9QHuVPkcSaeTgCXakoCrGaHVJwCPqX6L6Tnl4rb2tD8l3efsdfUrgzbunMLnSEb+O6ghhjJCe6D612JEJj8a0guOWlS/00+jVhx7Jd3n1S3CtciuAkmSDRil1Tb/KZ3xWLGTc8+kP+z3Ud3VAAtLKANM+sPbO8REWo5yoYDfM1KrSwBeUvnmICLxYA+q/JH+sOvEuqsBYrPkMyR94uvDM1QnAO0YqdUlAPNUvrl5Gwv5kZBe8Y0PMuv8PZxKK+MzJL3jos2FKsPIXEZqNcH/26qV/x7vy45n0i++MqzuJx6MEPIZkr7xzo6x4HpLEWKM1moSgJtVBv/93OxID/nC4Lr7AWw7TCMg0k+OUTsa+L8YscNPADqofGOJC6j4RzIB+Cq2HGICQPrJW9vFRElcWRXgMUbs8BOA+SoTgGfeZfmf9I8vD637FcCOo0wASH/58XplN8oDGLHDTwDSVb2t8nIhruW8M+khO4zLYg8ASVbCZwcoCynrGbHDDf6/Unn6P3iGGx3pJ9+dlcMEgCQrIezdY5llKkIKFIe+zcgdXgLQRGUCANcofhCkj1y8te4jT/lFFaJhMz5D0l9+9Jmya4BrGbnDSwCGq0wAOo2n5SnpH+/qlFLvRqdX6QZI+nxF9mGWqrDSipE7vARgh8oE4P5uNDwh/SKcLOFoGcb12HWt2R9D+kns/YownZE7nOB/Ofr0VL2ljFzKnZL+Bf8w1c5W7y4W17RgEkD6SUX+AKcZvcNJAG5TefpfvoPmP6RfnLoqP/TvZNXuosBRjc+X9I1LtxVREMjiBKCTygRgwOwcfgSkVzx0Ro1h5qO9aZRF+sf+M3NUhRcKAoWQACxUmQA0HZDOj4D0iqnZSkabxAvv8Vsh/ePT/dMoCGRp8G+Aa3pVb6ektIJ3m6R3xLpWgTajM/l8Se/4h+ZJoliNLDAFgeqZAPxa5el/xxFKnZJ+8bb2MWXfS88p2XzGpJfccrCEgkAWJgBNVSYA45bmcfGTTvH2DjHx1Dtp4k15Gh8wK0dMXpkvVu4sEvtPxUVOQbnKz0WcSC0Vn2wtDL6bfjNyROtRmeKJt9PEH99gFY10mwrdASkIVI8EYITKDa3VSJY0STt5T5eUIMAOnZcr5m8qFHtOxANlPluBvoOth0vErLUF4p2ZOUG/wE1tYnyXpBN8fbiym+Y3GMnrngDsUrlp4TTFxU+a5s1tY6KlTEbHypP1hv3FIju/XPiCpIyyoEIxeE6ueH5QOkWFSGu/wQo1+fVHjOR1C/5XqBQAQjmTC580wVvaxUTbMZli2uoCcTipVNXGYyXgvLn3ZDy4umg+IkPc8CYTAtIOHklWMj6bxGhetwTgdpUb0byNhVz0pDZlvib908SIhXli17G4KI9QwK9JQoBnMuqTPPHMu2k0HyKNEddXivATRnTLBIDY0UyqJFTzXkvMELPXFYjMvHJG+hoiK788SM7R5MjmQlInu0xQZgz0F0Z0ywSAqGpGqpgnRjPRgk2FVjfsuQI4GUKqu82YTHFtKyYDpFr+qUeqqqU8iBHdIgGgvEL6nJPhEaNwk1bmB8ZShBoUllQEI4ioqvDbJVVR0Te8kVHdIgGgtXuLudjJehHNa32nZwdNfIRepGSXidGL84ITG9ciGSYxsaIAccnvMLJbIgCUOD+Xi52s82kfzUI4kRLmsflgiXjjg8zg+oXrk6wvB32szBjoOkZ2SwSA/j6EpiZkLbr4myWJFiMyxbbDJYy4liKWVSaGzcultgdZL8IcThEoCGSDABDGjthdTNaEaDzDtMjxFJb5XWocnLGmQDzQPYVrmKw1YQ6nyEyLgkA2CADtOxmP3KK+Sp5g7+gYE/d2TaESWw0DPzzC03PY1OcqoLWwdFtRcGXDNU3WhjuOKqn0URDIBgGgqavyI5PJdp2YJdbvK77gvhqz1ou3FgbjVbw7ZeD3HSt3MRGojg/2SBWdx2cFd+ADZ+cEM/EP94xmkyXMrhSBgkCmBYA6jMvyfgG/ODhdnE4vq9HzwP9du7FZkd78oNTXY3J2YGhDMBGICq9vnRwYN0EWvSqclP9/cH7EgSIqzwW+HIpAQSDTAkBwWfNdzaouUrPTVxcEVwVR2wShR89RvugAvgsQamrcJdo9Am1GZ9Zq5v3QmVLx0FvRqAjc2i6mavlREKgGAkDK0i+c8HxeuLBgLa9H9XrFzqLINEhCCXLLQXb1R7lZEO6LN7ZJjly1C02SdQGuDqOSBChq/KUgUDUJwG9UfvRLthV5u2AbtUyucdn/YoAjVuPO/p6OsOFDta+c1/zE2aD21pTsSKgLouS/8UBxvZ4XqmXYa3x/VnPWKzEGoiBQNQnAcyo/dtx3+bpgMa4WFk6llXmXBOB6A01OlOslKsOe43Hx1Dv+9gfc1j4W2lXX4Dn+C6mhJ0gRKAh0kQRgpMqP/On+/n7gO46EW85GEnBnRz9EVe7vliI27CtmlCOq7Q/46LMCcVObGIP/RZCWUx5cJficAGACQhEoCHSRBGCPqqdeHK/wduQNHboqStr7T8Wd7glAWRdjfZTtJWob4FqNyvTmyktFk+vfBvmtpoqKYU6BkmohBYGqCP7fQxKu6qPeerjE28WKxhxV+OzzYiezfcw17zzKJj+i7oCQkMvSwrirVyVfPWBWjvfXAKt3K6kaUhCoigTgTpUf85glef4a1PRNU7oRYjrAJQVB3N/x1E+EAZwCIZjl4r4wf1OhsucyYbn/gmqD5+aqenw/Y8S/MAHoovJDbvZ+hrcLFbaoqgELZduvUHDXCbEXgggb8zYWBhbQruwJIxflKX0ek1f6nwA8P0iZMdATjPgXJgCLVC7YW9r56xKGHoAyDc3tH6+3VywIH2saJXwJhTiTUSaeHZge5ZPrl4DzYhSkwUvViIMOZsS/UAAoS9ViPRYr9d/A4oie+27bMn8kJNjwONdP6ABUNofK4GdrIjxhRb6W59DakybJ6rj7eFzF49vEqK9RAGj2ugLvFyqacnRh1Cd29FPc3DamqlGHIKq9ErOtqjh2aZ6W345kG99eFBIARQkVxjK+y8ivSQCo+6Rs7xcqPkidjW/vGRYDgZRvGMqHLgNaDcu2FwXl2I4fZmn5N6GcBy19WKZm5kW77BLLLBPPvGuHtsgQDWX/c/h0V1Ekgj/45mhlyvR/ZOTXJAD054jYWurcBIDe08wkVnDrKiiOTpc/7iH3n44H8qT9PsoJ+h3Ob0iD2JEOHD3vOg06ERDYwuQFrLYxbhuld1NSWmHcTRPJuE7YkvTo4B0dlRkDtWHk1yAAhDGeqLjcXd0iSew6Fte6GeisBOA9Ismp8Dy+4JSNkz2C/V/7pQXv1fQo6Jen3qzqDbWgG/GXPmlBgohRNDTP+Q70ofja8PdVLNxcGDnnREWVxlmM/BoEgHBHHKXFCvlelIZ92/wQBOduKPQyeGCCA4ItSG4QyOuSsMIJUgfyiyrq9P4e6J4i+kzPDjQl8gr9zOBmrS3QKpoFbROdOJlaGjn3RIV6CsmM/hoEgIbMzY3cgoWRz2bNVreJ89U9Z5SZ1+31q9kPdrTLdxQFBkVhbKotRmRq+9vDSOZeGZYR6O77NroJ5UzVollIECdq6vY/h5TsskBdM2p7KYhKliJQEEgoFgB63nPNapt6AqatDv8EhIoGPAl8ALqnESA6jMsK3WNBVxMgEOYpEH4NmK2HR70i7XXt2HMiHohSqZL3XbSlUHvwf6RXamT30cf6KBNaoyCQUCgAhNKqSxK2Kvjy0AytVwI41TZqFc4zR9lY93WGCqBx7t1ZOUp15RWeUi5A4y4pyoLbGx9kilW7i4J5e5eBcjnWb5jPB2OHuvQ+zgE9RXd0jEV6D0WSqujaanDUg79SASB4fEd54X5V0QozwmWaDljYpOob7DC5gZOHq0Dn/qLNhdpc0wZr7ATHCKbq33OPTDI+WJwnMnLdrQrgegOnx7DsaU+klmr72+NlFYGcMFRGuYcmBboPCrAp6gmAUgGgSRHQq66tayCasHQA3eJN+qfVueSGTngXgTI2mrPu7pSi9d3qbAjTOQaGAITrjYNn3LwGwjp+un/9nlen8VlaNT6g8RDlkn9lTFygJMGOtiCQUCwA1HZMJhdvJXxuYLqqjPaCKxiMCdamLwBJAzrNXUO6PO31n5lj7MoJ/Re6gAY+E5LPryZmiE0H3LN4xnrGlEatr0RaJQeNkrqAcU30p0RlbLo2/PsQZVM2f4xyAjBK5YK+S/MpzDWiPI37adU4nFQazLS/NCQjOM2htDtgds4F8+04+bvWCAY1ONy/my6VqrR+PR9tRptNrFGB2HLIrUSgOF4RBJGqplyaDkj/MlFG4MczPhbTU/LPLSwPvkeW+6vm9TKxV+Q30ibKCcBeVYs6ObOMC7eGjVcob0HRTDc+PxEPriVcLPtny78V/gthNTzWlzptkG2R1n5hcLrYedSdRABl/POvxV6Uv+GcUBK+QSTApZpaX/Dv4Jo0Krr+9eXek0quoWZFNfh/XygUAMKoDBdt7TruN+zTP2tfJDfF4TIBcSX4Y5PGfbtt3vA6T8S46rDpt2NywBVfCFwHIAnAqX+6xmub87Fhf/GXyTdZM05ZpUR7ITmqCcBdKhd43+nZXLR1IHTN03PorVsZIM8LzX0b35tOrYQRC/OsrGRhEsKF/hH8jabkkTFVgXt+7nV12xsV4WdRTAC6qVzoT/ZL46KtI29qExMfry9gxD8LaBFAT8Hmd6ZTLwEWqTabtyzZVsRFex7gn4GKQxSlfMMiJnsU4YkoJgCLVd616dTk9rnz1QchnvrckaJh0ZZ7/otRpzXv7HUF1j+P14dniKSMMkZ+iSPJpUGTIfe0+hNNvwowOGrB/xL0Uala8BgV4mINhxhrm/JpfuQ2Tdjv6hC8CYsQbtEFnLC5du0H1gSua3A9wr0sHH6yVcm0zZaoJQC/VbnwRy3K42INma8lZkSiNwDaBdg0a2LBa9P9t05AQ8K1Spaik5u1OOBYAusK0VumYtuRvCxKCcDzKhc/ghUXa/iEwcmaPcXebproJG/SP83J96ITUIpz7RlhamPBpsJIBP8Jy/N56lfEJ95OU/XaboxSAvCBymYXNLFxsapTZBs2L9d5s5bzgbFR20b7ajPCqROHzpQ6u367TswKRk99BLwHXh7Gw49SY6DmSapkmdtSACgEQHWOC1U94T8PdTMf7kl7Tc3mqaQWQHOdy88LpXE0xvkEGHBF3bVPF6GhoAAfUwAoBMxcW8BFqolPO6rbfw71MSyyiVDE0wlYo/og7bp0ux/jgvM2FlLGVyPhkqgAKRQACgFdJlDkQic7fJjl7ImpvpbFtrDVyEytzw7XbL5cZyXOz3U6+MMEiuY9egkzLEX4DwoA1RN/6sHOV92bqCsyrOeAZjCfTkydx+tPwiBl68vzaykTqEIH+wJOpJY6oVHhG9ErpKgH6kkKANUDEEPhAtVPl7qrceLjaFL94ZvT5l/7pQUyuS6hD+XOjfHgGSXS20MpAFQPrNxZxMVpgOOW5lm/WSJjt8XFLmwOnae/jO2jkQx8Ho6nuNMc2Lgz7c5NccYaJVLpW3xPAJQKAL03J5eL0wAhnGMzMK3QfIS/41FjDSRgT7/jp9fGre1iYs/xuPXBv6C4gnuPf71PfgsCCcUCQM9S79rYWFWapSqB2CihBMfTSLh4aYi/CRUMc7YdLrE6AcAEC/ces9UiRbjR5wRAmQAQ5rnZEGP2g0BTkk04573u+7NfuFl/D0brUZnee2BsPmhvEjBgVg73HcNUdOhp63MCoEwAaNexOBelBZK0n5+wp3w6PSIjUqt2659nh6JeFHQuSi0bcMHfw1FnO7hUje30x74Gf6UCQOOX53NRWkDokNuE1buLg8TE52e+5ZD+k2q/j/w9gSJpfHtGjigptWs0EL0ssDnmPmMH+8/MUfGaU3xNAO5W+XG88UEmF6UFinQVFo5Tw8XwFY810uH8phs+jlOCEIf67HM7Da9OpZXR5MeyCpEi/IePCUAPlR+HL6puLtP27mlfXdJMCDF9uMy/iluz9zOs1wLAxA33Gjv4h+ZJqvxQnvQxAVii6qPABsgFaZbtx7ohCbz/VNy7GfacAv1B66PP/PHcQPMwJHVdAK4lqHZq0fWbmkbRob4FfwgAKVMrmb+pkIvRICELm5rtjhww7GB7TvFHFKjMwKEV9sk+PLu/9EkLHERdwsYDxdx3LOGYJUo0OLb4lgD8l8oPovc0SmKa5HjLGv9qimXbi8TNbd2+OrpWnl5NNVe63uj3zkz7Gv1qCgjRcO8xTzRlKoBfgkDyx7yo8mNAFs/FaIaP9Eo1cgINreU2u0y88J67QkHofTGBrYdLnH5ma/cWC5eBGXSfDJlcJQ4Qihqfb/QpARij6kOA0ltD2mEa46YDJcJ1wCcApTw09bj2/HEfbAKYPHC10Q+mYT4AvvTcg8zzSLKSK6T2PiUA+1R9BOv38T7M5GbqE3Yfj4sHurtlsAIXOxM4k+FW461LjX41BTrQ7+5EQyDTnLVWybqa60vw/4HKj2D4AhoAmSCqLofOlArfgIpS5/Hu3K++ODjdyHPC5AEb/cxj3kY2QJsmlBkVINWXBKCxyg/g5WFUxvJo0VsDdLnDFMb299BqVKaR54O+Dzb6mQfun594mz1Qnl7D/ZICQNXc3bIRxkA5tWWySM4sE74D+hK2O0yaTMRsNt/yodGvpli3l9egpqlIQOopCgB52IjkOt+dlSOignL5XScuyBUNLW0QhCa/KdiqvulTo19N4fIkiw9cuVOJMVAiBYAuAvigc/HpnztPz4nW5gpsP1Ii7u1qX8MVNPlN4UHLFOl8bPSrKWAIxf3JHAd9rCQR30YBoIuAYhgGTpwzckRUkVtYLtqOsct0Cpr8pvBkP3vunn1u9KtxFWAwqwCm2HSAkmZc3LP+EwWAqsD93TgCo5PXtEgWsQjc/VeHOesLrOk9gSZ/lAMOGv1wJRUvq4j8umQVwOzeqKjZ9GYKAFUClKG58PSyx+RsQXyBE6ml4ql3zJ+AMa1gCphAMPnb7+wYC3RACFYBbOCOo0pE0dq7nAAoEwBaur2Ii06z9SX8yIl/oFQ+jvfm5BpVolyzx1wANKmX0GJEpsjKL+ciPA+ffc6JAFMct1SJMdBcV4O/UgGgAbNyuOg08s3RmdxdqwDkkO8ypMi27bA5Kea+0/WbcKEJFc2/RNV4tDftgk2w5Ugle2SqqwmAUgGgJv0pfqGTWw0EmlW7i5zZdLPlabTVSP0l8YNn4sZ+85C5elU4H++bJo7G3Gn0g0Y8tCR04+P1nI4ywVvbKTPm+qWLCYAyAaCSeEXQdMFFp2/j1Y2Vu4qc1BzA6fRajQI5SRnmrmXGLtFjRuNiox/ug+EU12qk/soZntMdHWPcuwzweIqSBPUpFxMAZQJAmMnmYtNHnCh0b2BfNeXpMC4ruG93BTilImnS8W4wmmgK01erP2m62OiHvozrWv8jCdywX//fP3oxnQJNcI6avTLRteD/DaFQAGjsUi5uXbylXSyouGg9WVbyfl8emiHyi9w5AWIkCDr0VyluECw3+Ejmb1JrRONiox8CwPmqkbiTL9f8M6CEyCqpN5NS21xLAH6ncnG3HJnJxaaJA2frLcHjLv2GNyvfuJ6Qp2rXVAjRla1KMvemNjGjv+3cNQ0b/f5xJVJVwqe7igbYJloVBT7cU4kxkFuCQPKP/bvKhY1mCy42PdStroaE42J/D8SfFN2zKQOMQl5LDN+18tkB6UZ/1w4FV3GuNfqdA6o9F/td93RJ0X6NhekU7mH6halgla0AN7uUAIxTtaix+XOh6SGEbnQiTZ7ua9JAd1v7mNh1LO5ckJi0Mj9wUgzr/Qydl2v09xTHK0L7Pa4q+iGotx9bMz2EySv1yzb/qQdHAnVz9W4lPR/tXUoADqha0HM3FHKRaaJuY5Xe02o+V44mK5MiOHUFxvZQJqzvu4H4kA0n5TDUAF1V9CsorhAvD6t5ZQdXQcWa+2kmrMjnXqaZg+cqScznuhL8f6RyQb81JZuLTIezmjzZ6ewwj2WV1bppCc1WJu5Wwzg51ybZqYxdJmRZ8Vv2n4rXq9nMVUU//M1/rYMZ0pRVeqsA6Km5ugX3M518fpCSq7lUVxKAe1Qu6Ed6saSlg23G6J1f7j8zp86l45GL8oSLgIf4LXXoZ2ncOcUqv3skYbWddkAFx6SRUX0AcZ+6WiGb6AVo9n4G9zTNapWK3vGvXEgAeqpayDiRXtWMC0wHF2/VZzKDU0p93fV6Tc02OhJX57Q+u0y8WAsDF5TLbbS9xfhboxoKID3xdpo4FnPTuvfA6Xi9RXbmbdRr4LRoM69NdXP3cSU9Sk1cSACWqVrINLrQl8EWluiLpiMWhqPrgPto3XesYaCi4gvtg+pKtSiXp1k8BomehOYjMqpM0qGMB8MUV617Ybd7Y5v6Nz1CF0An8C1/VZiIVE/0XijAcBcEgJTVY9H1zMXll/EPgkGYc/LPDkxXNYajHHBbHCbXOO4QG3dJCcrFTQekB46D+066M/VwJqNMzFpbEIx0ojLz/sLcIHkvibsZ+IFl24tCFdbBiJ5O1HRSgbR6D90RaQGgF+l1rYULN+srUapQk0OXfSyT1sVEOIAo0fnqfvVl61F6e2wwmsa9TR9xTaQAONlcHkkBIEhpXs8ylpbuf52Su08rcnW8u1OKOHSmlNGLqBdQvVCxPpFQJGtMUlFpq2+fDVk7KnKCvDWSAkB7T8a5qDQQc8268PkJte8U97W4tyWIWh84ZA7cU/HI8TDNQk5tRlMaWCcXbFJSSe0QSQEgzM9yUTnbvFIp6jsLXxPi3nbp9iJGNKLGgJHTGx+oD5YY56zQ2BaB6QPucfqI/U3FrWkkBYDasYnFK+1/NITBzEbHb4Jq3pRP8xnZiGqB6y80Yer63jZoVEDEuG3YvQxk1Xysj5Jpj/RICgChK5qLSv2JRBcWbdF/GkE3PUFUBYxY/qVPmtY12eFDvYqOfxvERmpdxMEjr1BJiedXNiYAygSAIBPLBaWe3Sdla9uIXhlmRp0MErqlHBAgzsOJ1FJxX1f9hwzdmhvQYeBep4/r9iqp8DSxMQFQJgAEVTouJn/U/yBja7IU+WpiRmDkQhAAmlHhMBkF1U0oGXKv08fEBUqqjsNtC/5KBYD6fZTDxaSBkKXVAYjEmP6tMHLJyC1n9Is44EJoerxYp/AWmg6hyMj9Tg//PkSJMdAO2xIApQJA8KXnYlLLe7vqu/9/LdEOc5IHuqcE6ntENAGN/DDV/Vy5BgjDwpmsGZFclod/zrBLEEgoFAAqkh/GH9i5qpwdNTUjQabXJntSlH5RAiaihUkr860yFlu6Td+o6rTVBdzzNFKRjPetNiUAygSAthws4SLSQMid6jp12Zilr91bzKgYEWAaxLY12HWivmkAjPpyz9NHaNgoQAebEoCDqhbr6MXsWtVBXbK5ncbbqeeAqsTcDYWMjh4DpVgEWhvXHwyxdIoCmWx6jBqhYaMA820J/leqXKivD8/gItJwB1muYfPBBndrO3s3HpSExyzJY6T0ELCJtn0v2avR8bHZ+9xXHddXSbclAbhP5UJlx6p6wpBHB/accGME6e0ZOVoSIkIP0HcCW2Xb192oRfqST/xb3Pv0UZE76a9sSAB6q1qkR2O8q9JBmJ7owFiHREgwmgVNeMJtQEQM9tAurLkXBqdrey7oeeHep4+fqNF6aGJDArBC1SKdvY7dqj41ANoy/ldTQjZVkZQnoQFHkkuD8qszVtytkgPbXh3Iyi/n3qeRfacrOWQNNx38IQCkzGWl26RsLh4N3HFUvWUuGrBc9CN/tHeqSMmmVoBrwJp28fpwxxF99tX3d6O/ii4+2U/JNesu0wnA71Uu0IfeSuXi0UAdsriu3P9X1cSD0yThBlbvLhbXtU52cq19sFhfH0Cb0RQE0mYM1DxJhdgTBIGuMJkAvKxqcWazRKWFd3aMadlsMAvr8nOCdfF2jaczom6Ys77AactbTCrowvsLc7kHauSG/Uq0Rm43mQCMV7U4V+0u4qLRdM+tA3Dh82FccvmOIkZZS4ERTpvU/erCW9rFtD0vmqzp5Ug1Ux6dvBQAGjyH2akOdtNkAfxIr1RvSnnTVxcw2lqGd2b6Yximy5/i4Bk6A+p2IVWAhV4KAOFkykWjnqM13Dmix6BhM7+emyKbT6KWKJWxEkprPq2tRVv0KFJizLUhfVa08YY3lQiuIato4JUAED5qlFu5aDSYkGxXX9LedczPkwY05QlzQAB7eZh/inYDZudoe4ZwxOQ+qI+ouijAr70SANpznKUpXcSz1tGY5eOzw33zOpoIGUOPyX6OCb+WqK8RkJLAXmiuNPVKAGjiinwuFk3UMeM+YFaOt89P0XxvKBixMC9Ql6sr0ZEOwRgbAQvnq5r5uaYad0nR9hx7T6PWik4qsl0f4ZUAEOdT9bFUQ7+RawqAtSXsVW3DwpBsl18akmGlL0J3z0XCdClQYnKC+6A+QnxJxS2rVwJAmE3nYtFjQaoDviuO2TYVAGvnMIVwBlvY63BPF7/XFPpmdGDBJo4C6mZaTuhVNb2CQEKhANCZjDIuEk18rE+q8g0Gp8erW/j9HHU2bVWH3MLy0Bu7UGq3Sf8AstJ/8Lx7XdckwNbDJdwLdTdeb1PyLd3uhQAQFj4XidNzqV8DbDB9f479Z9qRAFRUqGvqgo/DsVipNQkAx3PDwel0Hrh0891ZSvaLTl4IAPWZzqYUXcT8tGpsi8AJAzbHtjT9qfydsNXV4RtRE7ho9FMbYsJBBzBKyb1QL5/ur6RxeKEXAkBP9E3jItHEt6ao32SiUNHZcsi8R8BnnxdrEVt6c3SmFQlA8xF+N5a+MkzfKKCrxkmuEtdXxfHQE2k9gkBCoQBQoBhHZSp9d9ez1JeufR/pxMhWueFJOZRxdZ6Ix1lQ8Zi9rsDrdQUbal2A2yX3Qy8ODb/WkQD0UbUQ4ZbExaGPKBmrxpC5fns6jF+ebzQQ4iTxuOaqGZL0TQfMVj0wvnpXJ38Dl64JHQDNwNwP9RLjlwrQVEcC8KmqhQi3JC4OfZy0Un3w8lWtDXzqnTRRZvj033m8GR3829rHggZPk1i9u9hbMSBc51RoareA6BP3Q71UZPs8QnXw/yYq9aoW4quJlKXUyY/Xq59fbzXST1EnzKGnZpsNgFNXmb1eeVomQPEys02BE1bke5sEZOTqyS7f+IDCa7qJKzsFCd4u1QnA/1O1CPEw4JbExaGP8zYW8nRRx+xd1+ZcFXYcLRHXtDD/vejqVr8YYGiFioRv60yXLXDXiVncDw3waPhjtWoFgeR//BVVixDqZVwU/iUAKJP7UI7FaRc9EwdOx40HPOjz26SWOXdDofFnAulcVETgzeBLRUDXWus2iaPXJjhrrZIK7O0qE4CJqhbhR58VcFF4mABgdtzFZ3Njm2TRZkxm8IxMn/bPBwycbHpWw+blWvd8MCXQelRmIGDk6vcJlT4dgJAV90P97DJBiQ5LZ5UJwGHfmpmYAKjFfV3d6dR+pFeqGDg7JxjRKbPTBO9L3GvRc/10V5G1zwnTApsPlgRyza4lo2s1WU0zATDDP/VQMuq5SFXw//9ULsKw9cvJ6rlSw8Z9t8WjWte2Sg7u86etLhBJGWXCJXT40J6EOT2n3JnnhveM9w0hIdsFcFZqSqx8H9W1mZl5oX87KCs0UJEAPKBqAaLEysXgjSnF13BTG7uas1CRgNz0mj3FoiReIVzFjDV2XJnp9K4PG3j/OGX3+yjHygOIrgRAtYQ0eZF3vFPJO/6NUwJAK+RD4GLw8wrAdAIA2U1MIny4LF8cTioVvsCWptk2lkgDh4HjKaVi8sp88fLQDNGoZTITAFI5B32sRI31OacEgPAQuBj0c+baAi8TAKioocFmybaioDvcR2BsFo2KptfQOEuMkMJGUUlF0NvQa2p2oPnABIBUwaYD0lW80pFOCQDhIXAx6OdkDUqAOjTqMfaFccP3F+aKPcfj2hTUTAP9C8Y1zQ+WROJZo+KCZAfVpD809ysBgD0t90MzRKUJjowhY48zAkD48TaU26JIHTa2qqYAIBqF8jNm0G0b09MFeMYb1UeQgdAWe2CdQFVp2faiQEDnDoV6DKt260kAOAVglhD1CrtAKPk9JwSAdh4t4SLw2Azo/m7hJQAY4wrG9A7aP6anAxhXNLl+dDrW2Yz9p+Ji1KK8oJIZppupLptpJgBeXqPd6YQAEJqzuAjMELPRqvFEPZzqGp0d04PC2xnHxvR0AE6AV7cwt366T8rmSzgPOQXlYuHmQtFpfJa4pV39qgPbj+hJAN6aQiVAk2w5UkkjbRcnBIBajaIRhSlCfEk1mvSvXQKAhqve07IDp7fieAUjSsjPN0xCvZOoGuVy+e46FhfDF+TWSaL44Bk9UsAdP6QIm0nCx0IBFjkhAISObS4CM2z2fobyzaW6RjU0VD0/KD0og/k0pqcLqOKYWj8ofRM1B3pV0LOC3pWaTMfEsvRUvbAPcD80S4yghoxwBIGEQgGgk6k0ADLJZ95NU765VKZYh4z33JhebiEv8+sDUxoaUFEs56ure3Wg/IsejsFzcsVjfSqXKC4s0VMBe3Ygp7BMc44aa/bfWC0ANH9TIV++f1rUX8PbM3KC0idKoCiF7o7QmJ6uU6WJtfOsmvnlyCKWWRbocrQamSmub50cWD3rAjwwuB+apSJb7eesFgCCyAZfvjmiDKkaR5JLndKKdxEPvaV/A8fsOKEG8bIKse2wPn2FuzrRh8U0MeGkACOtFgDCGBFfvlkWlfA47jpwr3xrO329NH/pkyb2nuT9vy+w3RQpCkSVFBMkIWNPfROAq1QtOohpNGzGF2+ax2JsvPMBmJiAsmPjzilKe0Zstv4lao/8ogrug5YQk08ho36CQPJ//JqqhbdubzFfugVcp8lznNCD0jIR3CU/2CO86hrkbzce4DrxEUdjbMS2hbBlVoA765MATFa18NAQxpdunrPWcpbbR6DLfNGWwjo3eKEk2XxERtC0SfiL9ft4ELOFGIdWgC71SQCOqlp4Lw3h7KkNHDYvl7ug54CpzNPv1EwwCNdy7cdmif2nGfijgI/XF3AftIQYrS0NX/phUV2D/78oO51UCPHHN9h4YpIQ4Pn7kHSxZg9Lu1EBrntQzq9sPUBSGOY2CgRJCIsx6hNaAdtEBRW3ugkCyf/Rn1QtOiiI8WWbISovCzYVqug4JRzBjiMl4rXEjKDMj1NH3+nZwRw6Ec0rgJeHZRj1lCD/wYkrlFi0/6YuCcDbqhbd9NUsO5kg5n0VeE8TjgJa89RoIABMZaFnpDrpblIt3xytxBjo+bokAKtVLbYO42g+YYJLt3OEiyCIqgGbbRhycb80wzs6KhFn+6AuAkCFqhbZvV25wHQTfuUEQRDVAR4d3DPN8XR66Ndxe2ubADRUtbjScsr5kjVnlPigCYIgagr0hXD/NEP0aIUM3Pt+3woBoKXMLpUTIjBvTckOxr9K4rzzJwii9vjoswKtEtPkF+w9TYkx0F1WCADBRIQvObxRPjj6wV/8g8V5gZRkGpu6CIIICTAmwqQA9u0n+qZRvl0DYQ+tAN2sEAB6un8aX3INiewbhkmvJmaIbpOyReL8XDF7XYHYdKAkuCeiHztBEDqRW1guNh8sCcbVukzIEo/LpKBRS2q6hEkkWZjKCBmLjQsAwbCE86Zf3Mv/bVB68AEhqE9ZlS/mbSwUu47FRVZ+eWDQQRAE4QpSsssCC2PsY5B5h789tCbgHMlrBCs8WnCvcIlRASAskKi9yEatkkXLkZlBY8fnJ+KikPa73gAVGLgpYrxyxMI80X9mjhg8N1cs3kqhpVCer/xUcK3Va2q2aNI/TdzXNSXwTcesNJ43nvuR5FJWwhxAhXyXqFqulYEN7w2Jwow1BcF7RLLwwnvp4u5OnA47x8QFSiTaf2tUAGjskujITmKWFgu8oJgB35fNC1a4oxfniY4fZgUnm2taJF808es5JVtk5zM61QUb9hUH/S01+dbwHvA+4GEAaVs0v55MLQ0SCMIt4ICEgxKqCC8OTo9sxRgy7QrwvFEBILiL+f7iIK86YFYOu+8dRSyrLCi/TViRH2jjw0TnutZ1v+O8vUNM7DlBY53a4P2FucF3FEb17cl+acFV29ileYHvRVIGJY9dAq5Ex8iDY9SuEa6Xe46CytYHRgWAbvH8JTZsrmSGk1C0saCZCf0XKDE/OzBd3NRGzfpEAgHZXaJ6YPRM9XcKIzI0I3eflB00syHhS81mYmAzcKWGRugoJQH7Toa+Z+ytLgG4TtULhMuY7y8MmxdhF9BNu+NoiZi5tkD0+ygnKCve1l5/IvpA9xRWharBGXk6N9lRjgQQiSASQiSGSBAzcnmFYxPmrC+46NWbT8QaVICfXSwB6KLyxfn8stqOyeTXaRBFZ+8O0Vw0YHZO0IHc2DJN8wnL8/miLgI0g9n4bSNhhI0y1PGQ5KOZmU2e5oBeHFRbfU8A2o3NUvH4Ohi5/7f14w6DsFSlAI8elJYJcehMqVi0uVAMm5crWo3MFPd3S3FCoAQKjUTlgODMjW3cOtnBXRNWupj+gD4HvNzZ9KsH6NHxPQFo3DlFxaPbW1Xwv1SyRNULw/iOry8Kd1NEuEADDK6Nlu/4YsSuzZjMYA39wfHMH93pxIXYfyru1QRQs/czxKCPc4KK1N6T8UADhQgXuM7zPQmIZSrpTflZZQnA71S9KJTLrvJYQvKzz4v5NdYDuPtdtbso6NTGiB0kR9HB7eNaWbuXa6UyYHTPd3U3VKqgCYLKFSpYB07Hg8oHUcekUT6/qzyXJv5kq5Km8qaVJQBNVb2onUf9FgBSINvoPRAIMWKHjuwodfbSmTGaCUBV/Gu/NL78euD14X6Plg9XIwg0VqsAkM/+0je3jfErrAOSM8siaSyCSgdxIXB/HknFt/m5Vr0HSPruOFISTM64MAExd0MhnQFrj22VJQBTVb2kySv9bdiAQIWNQLPcdvkho1kmKKu/nRYkK+iMh7nQws2FgcKdSaCBKmobPvoaiAuBKY6oVYPAPcft0IfAZAP8SSrb3zBRM3JRXpAU2Ca7DClun9cHZK8VAPPqDc5PADaoekkoY/j6gjCTaovk6FH5MUz5ND9oQLq+Bup1KD+i+Qr3kNBUx3gNEoZZa/XoGUAzP0qbPacALg6cdqK0HtAsqBtoSjwnmwxZ66XbisQbH2TW+G/GpEbrUZmBroYNk09wJ/R5jWD8VBH+/fwE4LiqfwljMj6/pL0nzWXxUItCU9Gf6zhlgSaa80vx+Mh1NCfh3zAhymOK8MIgqgbGO6OUAMA4Sjdwmg+zsRFVg6mr8o0lA4u2FDIBqBsanp8AZDEBcONDRhkZQR/qcqp+E6oBOjB0Xm4kNntUijLzqBVRHZ4bmB6ZBOBwkt7rIExjqTLXQTLw0pCMoMKgSwsBV5hoJPZ5jeCaVBHuOD8BULY7QYLV55cECVHVymBwlZu2uiDQMNfxm9qPzdLyEUODPQqOX+jDIKrHJxG5Fnp2QLr2Z/uxJjVWeF90kOsdtr8q7c/htur7Omk1SpnC7MPnJwDKMHiO/6c8KB2GDTTcYILimXfTtAvgoCGrqERPJt9hXJb36wOd1UT1QPMqHBR9Xw84KevGCwaEc3A4giASXDbDBBoSTfpG6CIcSRXhT9oSANg5RuKOd2k4d7wooU1amS/u62pWy16XsyHscn1eF2i6ImqOYZ5fCyHB0W0MBRtkk2O3OMCgKhCGw92mAyXKnDtt4xB118v6EoAolGrO8e0ZOXU+OeNuH9myLYv7xcH6ypSvJvo7Eoj1T9QckD/12exl1CL9zaAfLLbnEIZ9BdcRtb02LSmtCCbKouIGCOLaVxEePD8BUFajXLOnOFLdvTBxwJhMdc0w56xqR32SJx7rY59XAiYETqXp8UnfcshPtcgb3kymQUwdAJMnH9cDrtbQz6Mbf+ph3/6C3p9XhmUEQR3d/JAEr6p6geqqbe6ejsvMX39+ApCs6l86nV4WSZUvfOyQqoSZDdzCYGyDxphxcjHXZvbWJFGO1YXnB/nXAQ4LWaL2WL/Pz0ODidE/V5JrXBM82S8taHyDAM7fh6QHWglRjB3niCZpRfjV+QnAXlX/EoRyolS28YmwPNWl/rXxgH+bvu5RL5/wYI9Unv5DAHzluZe5R2ikKMTl5ycAK1T+a1Cd40t1k0s1Gtj4JA/8wnvpVgVUdNhDfREBAcJRSO4e7Z0qukzIChqrbMNEzzzf31+o//QP7QkevtzkK+o0AGKVeQGMUbkQ+83I4Ut1lFD70gV0Cfti8bl4a6E1wRR3idWdqF8emhGYwdgCNIld19qP4HVnx5jSmfiqgLtz7mHRniqrBCsqSwA6q1yIcEHjS3WX8N7WhbZj3G8Aw6hXqSWxNHFBbo2TqjtkoDIpbX0+uk/ywx8ArnW6gas7NCRz/3KTB9TtuUMqSwAeU7kYMRp3bSuWolxlt0n6mtnQNNrI8bWis3nyYphUBydOeEHY0ruAZMT1b6fpADNXQZ9EzGzLJyIRV3kjX1kC8Gs2o5AX07LXafiR6LCDJGbYMctuGmg4q6umxL1dU5TLW9cUTfq72z+EzvaDZ8xUVJ7uz74rTg9Vip9WlgBcIr7wCVaGdXuL+XId5oDZOdo2r+J4hbMjQJhhtwH19eAYMCvHit8B2VxXv5n35pipBEF6mnuWu1R4DXcqoSrgql71wnzorVS+YIfHmHSeCqGZ4OJzQqJrGrhGqW/3N/73+O+YBhTgbmnnnvQrJi3wt5vAax4ra/pOxdLh718sAejJbJ68GEdqljFtPsKtjQyd9hUWCP+1CamRUpcrZHWARLZT10DNzBlAoWGXe5W7hIqsQtx7sQTgdh2dqQ/3ZBXAVd4qT2I6pW3hIgY5XVeez4Tl+caD5e7j4Y1S4r8DsyYbKhoNHRoP7WNQARIqetyr3B0XVWgUhc3puxdLAL6Lhn3VC3QtewGcJqSNdcIVMylMLtjQOPfcwHAllXXqQFwMkNV2YR2gd8WU/8OhM6VOJUqk1tP/uITqgCq9joUK9TG+cDeJznKdkqYoqUNVz/bngjVtGit3qumb+HRXkfHftnq3/QcHVEw27DPXAwIdfe5RbhI+CIpl12+uSQLwoo6FCie8+7tRpMJV6jY1wVid7R7ge46bLZVj81DVZIv/brnh4gYSwfu62r1nmDR/wtUP9yY32ahlsmqxtaOSl9QkAfhnSS0qIPjBFAdyk5Bo1akLAMAy1Obs3TRUX5Xgv28aNkvborepqMRcB+hLQ9j57yqnfKq8d6hFQk0h/48X6Fq0CzZxKsBVdp+k/7TT4UM7r45g92wSuHOG/LBqeWNTd9vnAHMbnJZsPMEdOG2uAsS+KnfZebzyq0OUa79XmwTgcZ2L991ZNApyUvGumV6PgHOBzjYtCVxNFMfNBkZdyon4d0yj03j7ksBpq80lgJyscpdwyS1Rv3e8nVAbyP/BtyVTtS3gCpavXOULg/V3iEOn3iaXuP4zzSrm4SpG1/PAv5Nq2DFw51G7VO5MayVMX13AvchB3tY+JpLVS4bjbuHKhNpC/o/66lzEGJ+yvcGHrJzoPNcNWwSl0PV9PMWscU6PyXod8/DvmcYTfe3QuX+kV6oRm9+v7psuqiRGnfCI2HJQi1BU34S6QP4PfyqpNdXHHZov/t9RIoxjTJTA0XFt+rf/fYjZGXlUQ2A+pPvqx7RbIHouTL/7m9vGxMlUs8/hrSnZ3IMc5NRVWgTDUMX/fkJdIf/HE3QvaJs7vcmLjAUaMD3B3efLQ81eHS3fYXY+vtn7Zn4/tOZNAt32sC021v8ik64N+816Puw6Fqfoj4PsOlHbldGLCfWB/A/8HxML2zXdbzJJXN0iSRxJ1n8ayi0sF3/qYaYB6q5OKUZn4zcdMHsXvvGA2QD4zkxz+4TpkUisu8f70u7XNT79Tpoug6gtoiZz/zVIAqZpX9zy+bwyjE2BrtGUZCzu4G81cA+qWxL5q4AoDjqITb5v3MObND7Ce7/KwAl44GzzNskfLsvnnuMYMUYLbxMNwEns9wlhQP6H/rfuXoBzzS1UCnSP0w2NQ6EcqrN/BE08JrvhF26246oMzZgmoXt6CB3/pt0e0XdAATW3CGvtrYe1uUN2SwgT8j843MRCh7HF9WwKdIp/fCNZnMkwExg/+7xYW0McHNdMASVEWyZmGndJ0THHXCVWKPI+qIyoSpaanYAMgNFb7jVuUeOV0VbJS8NOAK6UNLLjLdlWZKTMR9adLw421xk/Z32BlvWC+3dTgOWwTe977BJzVyG4C2/cWX0y9My7acbFngBXnDFJI2OzuJv6RYIKoNpmatEPmZvLhcSrgFptkiqTgD/3TDX223A1ZpspErrxdbpDno+Ri9T6AzTpnybyi8wHf5T+UWHj/uIOsXbiZdrWziMJqoCOQlRZjWT5Fe54gZNfEFc3JgVyVJ6UJq/MN/a7Blgqm91vhrnGuPSc8mAKxefgjz3w2QEs/bvEOzrGdPYJ9U1QDfmP/KekkdkfjHs92IN61y7xibe1Zr8XYPzy/NArAWg0hJW1CZxOLwuaiWwdAzUpitN2TKa3wR8YsySPe4pjTX87jmq7Jpwl2SBBB+Q/9JqpjwDqYyyBuUWcWE3io88KQm0MNCmD22FcltXv2mRj5JZD4WoioNHOluCPCRdVFQ5SDWet1XYFul3ysgSdkP/gaFMfw7LtbAp0iXhX6/aaFYxZtLkwtA10/ykzlq+fn4hbv+7x92k89VyAR3uHUyFsOTLTioY/AEkIx6HdYs8p2g4JaZI/TdAN+Y9+S3K9qY9Cl/UpGQ4h0hPLNDs/tWZPcb11AlASNoUX3nPj/hf31KYwLQRXvO6Tso2qO56PNgquNkh1bCrXv6ZRUdy33ZRgCvIf/7HkGRMfBYQ4mo9gU6BTEpj9zfYDAHtPxgM1LtdEb1bvLnbqXaNKZwIFxRV1viJE9QLTBDZhyqdU+3OJd3aMBQ2pmvBKgmnIP+JqU02BaMR66C02BbrE3tPM28hCpAhjfLX922G5qknD++vd33I/ebinW+sc3gymBHOwxmr79zZqlRxcE9kEXKXw3t8dNmqZLHYf13Y9ODLBFsg/pompj+RojE2BrnHuBvMbLSZKajtWakr/Hc1ELr7nKavMjEpCPbS2o1oaN+4aISO3PDCa4n7hDj9er63pby2u4BNsgvyDBpr6WFbuYlOgc+MxR0qMb7KYqx48N7dGaweWq6fS9B9pC0sqgrKiq30fpsYlnx9Us34JmFel5ZRbFfxxTcZ5f7fYZ7q2yuYpyX9NsA3yj/qG5DJTHw1c2bgQ3XLFSsoos2LDhdR0dVWkVxMzuK7rQCRYJvDJ1sJq7/sxnlpmV+wPAK947hHu8LmB2pr+0FjTMMFWyD/uh5JHTH04GN3hgnSHGNlC05YNOJFaGljbVvW3frpLf1Mbmolcv96CY50m+9Ovt0fLf7KqZk88U1NNitXBNo8H8uK8u1NKcF2jCU8l2A75R/6XpJHLPwSTP/dkU6BLfC3RDne1c6XXt2dcKLN7T5eU4LpANzBL7MM77jw+y8j7TJx/4ajw0++kBcmejVi+o0ibkyUZQtOfTG73nNDWO9I/wRXIP/YhUx8RtOdveJNNgS6xy4QsqzbiVbuLgsawc3/fB4v1j4Ydi5WKP3gSDNA/sf+0/iY76E6cC6h4lsMX5Fo13/9V7DxaUm+NClIvNY4EL8YVe4JLkH9wN5MbeEM2BTpFUx32VQGOe+3HZgUNixpLfF+ixQi/rrNeHmqmh6LVqMxgJNG2Lv+vAv4Jt7WPcR9wiBqNrw5L/iDBNcg/uoHkbFMf1ahP2BToGicZdNirCiZkf7ceLvHy/X72uX65EExuYJLCVqRkl4l7u3LczyVCkVNT8yhKj79NcBXyj79Cco+pj6v1KDYFuuYZAAvfqAP31D6+38f6pBrppbAVWfnl4pFe7FlyiY27aG36eyDBdcgf8QtJIxZhaArkB+ZeErDQMkU2nahufI1iKX4ABj+QxuY379ZEy76T2iqCnRN8gfwxt0saab9Bx+9NbXi/5lTTWPMk62RZdQDTEL67vkHdrqikIvLBvwmDv3NcsEnbnjQTV+gJPgH9OKY+ONw9cryGSYDtmLgiGjPg6M9h8Oc37hL7z9TW9LdL8vIEHyF/2HhTH96YJWwKdDEJmBORkjEkc29uG41KFYR4TExW2BD8m1Li1zm+ODhd1/goRmV+nuAr5I/7juQmUx9gm9FsCnSxJ2D6av+TAIxB0hXS74Y/3vm7R0xo4N1pAOTQbkvwHfJH/ptkzMRHiHEgyM9yYbvH0Yv9LRvDEwGqYlF6nxDmgWhXFIBqByYg+B27RQgzHdAnYNU8ISqQP/ZaSSPKHJgLjkqp1UfxDR/HyDqNj6b5C7w7fAdEfh7ozjl/F7loi7YepLEJUYP80X8z9VGu38emQFf55uhMURL3JwvAWFGUray3HS7xNvh/fiJOhT9HOUCfMulGyW8nRBHyhw8x9XF+uIyuWy7bb0Kq1we8NCQj0u8Sokc+ApNH11Pb30nim9RUaUyW/HFCVCF//KWSK019pO3G0nfbVaKseiTZ7TvkPcfjkfesQPVj44Fir4L/5JX5rDA6SuhwaDpcoPR1TULUIR/ClZLHTXyoECT5Sx925rpKuD6u3u128MjOLxfzNxWKtmMyIyNYhR4cTOTMXlcg0nP8GQfEqBimG/htuklUbA6d0XaoaJpAfJkE/LekkVmv0+lsCnRdK2Ds0jxvAghc66BZAfe8az2ZDGjUMjmYpcbv2nsyLio8bOREpz9MYvhNuluJWrKtSNdyeY9R/8Ik4DFTH++mAyUs2TlOGD/lFvolLgNpYFwToKSM6ypXXONu7xATryVmiGHzcsXavcWiOO639C/eEUxi+B26y/fm5OpaLsslv8mIX3kS0MvURzxhBZsCfbi/23sy7nWwwf3kloMlQVLQbVK2eObdNHFLOzMVLCj6PdkvTbSXycnIRXli1e4ikZpdJqKEjz4rCCoc/P7c5SvDtDX9HZX8ESN91QnAJZLzTH3MHT5kU6AP5eYpn+aLqAHVD4ydoYw5SSYHONF0GJcVdDQjSCM5wlVXdSOHqIShF+FWmVQ83DM1KN0jwL8zM0eMXZIXSDNvPVwSSSnfrwKyvm3GUFnUh2ZiTU1/2JR+xyhffRLwPcn9Jj5qlCqf6MumQB+IO/SonUZrA3gPfJWwziZqWPKXiRbFffzwpDicpK3p72FG95onAb9Cg7SJjxuyrKZKqmT43eaLtxYyYhGhNWmOWpQXyBjz+3K/6W/Zdm1Nfz0Y1WufBDTGN2fiQ8cdKz9yf/jGB5mRL1kT9QMkfWnj6w+HztPW9DdXsgEjet2SgDamPng0WfFD8Ye41567gdUAopan/gohxi/P92Ykk0wSrw/X1vS3V/IKRvK6JwANEItNffydx7Mp0MfegBOppYxsRLXA/fBT7/DU7xMfeitV17hwluQvGcXrnwRcJrnVxAYA05m/9uMG4OOkwIiFeaKklI1vxIVAQ+Sgj3N4Dehh09/RmJbkHxnGnYze4SUBP5FMMbEZJGeWBcIm/ID8IyY+COKrgHARRX38bPpbuVNb098bjNrhJwE3ShpRecHc89Ut+BH5xrdn5DDiEV8D/An4bfjHxAXamv4mMlqrSwJeMrUxTF3FpkCfiPLumQzqBBBfB7RAomLKFBU2H5Ghy39is+R3GanVJgHvm9ocuk5kU6AvhLY+QVSG/jNz+I14wj/3TA1UGzUgJvnvjNDqE4BvSa4x0hRYWiGeZlewF9x5tISRjqgUR5JL+Y14Yhd+PEVL0x+upq9ndNaXBPyL5EkTm0Msq0zc0ZElQtc5cUU+Ix1RKaAXwW/E/aY/mFNpwguMyvqTgKskjSi77DhSIq5pQWEQ150DCYJXfX4SY76akMhobC4JeNLUJjFjDbuFXadGIxDCIUAsht+Hu2w5MlPXUlkleSkjsdkkoJ+pjaLH5Gx+cA5z9e5iRjviAlzfmtU9V/lIr1RdzpYnJP+ZEdh8AvANyUUmNop4WQUNQhzmp7uKGO2ICwDFOH4fbvp9aJL5xtXz7xl97UkCvi950MRmkZZTLu5kU6CTTUKxzPB1ANBAhkZRQj0w251TEL6u+98GpfMbcYwN5fe8Zo+2it7jjLr2JQG/kcw1sRHtOhZnU6BjfDUxI/R1ABnZc5vRi4PTxZz1BbpmkCMFNOH2m5Ej7uqUEpj1hI1pq9nf4xpHfaKt6a8Po629ScD9OBiY2JRmreWm4RLX7wv3tIDT6BNvX3gdBBtZiA4t2Vak627SO5TJQ/6G/cWBdPM9lej0f7I13GGg7Pxy0Yj2v87wjQ+0Nf3Nx5UzI63dSUBHUxtVzylsCnSBj/ZODf3dL9pS/ew4XAhRecAESWo2rwkuhozccrFgU6HoMC5L3NgmudqRztKQHycbfN35lgtLtCTW+3HVzAhrfwLQQHKGiU0Lm1DTAbw/tJ3zNoZ7YoR+/IM9UmvdgwCradjOrttbLIpKol0dwCaOU/57c3IDl0Y8n9o8zw4fZgXOnWEBtrENm/FbsZk3t42JU2laEulsyf9kdHUnCfgnyZ2mTi53d6KdqM3a4OUh9Y2hAXTg7BxxS7v6N4Gih+S5gemBgMnGA8Xe9w6geQ9KbXh+mKSBOVMY7xcJ+LbD4cg8tx9LQSBrm/7kekHPjQZgt7iXUdW9JOBnkukmNrc9x+NBuZcfqn1cuj2c0b+xS/KUvmOcPpGsdJmQJaavLhB7TsSDSoOrd/j7T8XFx+sLxFtTssXD8ndd1UxtcMCVTH1xLFYaWmJChssxS7Q1/bVnNHU3CbgF+4+JTQ+bHT9Uu/hkv3A6xgfPyTU26oT77hYjMoOrA1xlIDHIzCu3ItDDLAul85W7ioIECckLnrmJZBgVlf2n4/X+Tb2nsRfANrYZo63pbyqulBlJ3U4CXje1IfaZzs3DJm46UP/SMEbQrrLwbhhd65CwfXlohug+KVsMX5Arpq7KF4s2FwalUlSlIJKCDve8worgVF5tQI9XBP+3SRllgWzydvnbUbZHcosAj1G8tnIzRtndRoOs5wfVvwCIKz3cNfP7sYN/6ZOmq19mu+RljKB+JAGjTTUF4l6XH655vjm6/qeGqkb9fFBQ+yp9KnuvC+GeeDp1Aaxp+judrqWgi1LhTxk5/UkAviW53lRTYOMubAo0Sczi4xRbX6DkzufpFp95Ny2UxA+CQ3yeZpv+NuzT0vQHLeGbGDX9SwJ+LHnGRBLw+Yk4hUUMcuSi+jcMYXKgtqN+pB3ccqgklG+YY4Hm+OGyfF3b9SuMlv4mAVdjbNtEEsDToxk+0D0luMuuL3CXzufpJluPCqdpDEqEfJ76CTEoTRjJKOl/EtDEVFNgP24g2omZ+jDg491/lMrHYVwBQcqZ13l6CVEoTeOva3FVzAgZjSRgoKl56BfeY1OgLnYaH87JYefREj5PxwmFwTCwencxn6cmQmArjMStBjgl+a+MjNFJAL4hucxEEpCVXy7u7cpThI7NA886DHQeT0U4HzrIoVMQBtpRIVBL1SaMsd0aAMpgDRkVo5cE/FDyiIkkYN/JeNCZzg9dHT9YHI5SGMq+17Xmu/KBi0NyDTwjT6UNqRColBNWaGv6e4rRMLpJwH9J5ptIAuB0xg9dDR/rkxpK4x+bN/3iy8MyQvt+4dnAZ2r31V0N0J9RkEnAQ6aaAvvPZFNg2Lxentah4R4WXhzMng1vysrNkkJzDCyX+eVLQzL4XEMmHDJL9DT9LcZVMCMggSSgm4kEALPlfx/CABMmw7T6jWWVcfbbM45aFJ6JDES+bJRAdpW3tY+Faul8ERyW/AEjH3EuAWggOdtEEgBb1PvYFBgKYT4TJsYuZZnXR12IMLH1cAn7AUIg5Ke3HNTS9IcM8LeMesT5ScAVkntMJAEHTsfZaFZPIolCw16Y4Oy/n9xxNNxAA2MkPtf6cfJKba1YDzDaEVUlAb+QzDSRBMC/nBtB3Qh3vrB1wo+nlPLZesqeU7JDXSvwCvjbIF7l1ZVdJ2pr+uvMKEdUlwTcjut5E0nAgNlsCqwLYX8bNtjl7S/heBgvC7dahMbTP/AqoNZ8+p200PQZqsFMXPUywhE1SQJaGWkKlN8BRpW4MdScd3dKCTzrw8afe9L4x2eu3Ru+Jcg7nOqpFW/vEAsabTVgl+TljGxEbZKA8aaaAu/vxqbAmnLNnvA38sNJLP/7TlTbQpeUK6kIElI+3+p5dYukoIFSAyD+8HNGNKK2CcB3JDeZSAIOnSkN5tm5UVyc8GhXgcQFuXy+nvOeLilK1s5HnxXw+daA01YX6NhKUV64jdGMqGsS8G8YBzeRBCzZVhQ0t3GzqJrLthcpefYs/0eDe0/GQ187uM/GPDufb9XsMTlb1zbanFGMqG8ScK1k3EQSAAczbhiV88Y2yaJUwfUhu/+jw/cX5ir5bvtMz+bzrYJN+qeF3oBZ1XQmoxcRVhLwN1NNga8PZ1NgZWw1Us205vjl+Xy+EZKdVYGl24v4fCshVBNTs7U0/W2U/DYjFxFmEjDERBKQW1guHuzBkvT5HL5AzentuYGc546SfgTkfNlEqp7XtEgWO45oafpLlvwxIxYRdgJwqeRKE0kANpQ/vsGmwK9yxprwm4jSc8qp/R8xomkvbCRllPHZavheK2vBkLyG0YpQlQRciWtiE0kAGt7YFPgPzl4X/oYyaSXL/1EjKj5h43Q6EwCVyosXQVNGKUJ1EvDfkgUmkoCh89gUeI4w6gm73+KRXrxq4TRACKozx+J8rmfZdEC6kmbdynqmGZ0IXUnAY6aaApuPYFOgCue/CSt4+o8qX3gv3CrAx+upBQDe2TEWXKtpwHLJbzIyETqTgF4mkgDI3j70Fk+qjbukBCYsYT3Tm9tydjvKXL07PEVJlLzZ9JccVEI04KjkjxiRCN0JwCWS80wkAUdjbAoEN+wPZ9MeTL2FyBOTNmHMp5fEKwKNe/boaLklhYfw7xiNCFNJwPck95tIAlbuZFPgsyE0cMEbni5uJJg4v/6jpdSRSAqEkDThYUYhwnQS8CvJbBNJADXrk8Tklfl1fn6n0sp4WiO/JEZAkVjXFftPx8W1raJdmcNUhaamvx6MPoQtSUBj9OiZSAJajsyM9qYtT+/Ld9R+00bnN4M/WdnddV08JqDVEXUPADghqhBWqgRzJRsw8hA2JQFtTCQABcUVkTevQRIAXfeanDzwf4MRwkYt2UNBVq0Q2Hd6dtAcWhMs3loobngz2usJ39Oe41qa/vZKXsGIQ9iWADSQnGwiCYCBTdQ3IPD+bili6qp8kZ1/4SkEGuQY9cP/DYMcWRNiMmTYvFxxJLn0gvVUJpfYur3F4pVhHMsF524o1LHVYfb3l4w2hK1JwGWSW00kAat2synwqxWBR3unBpvz3walM+iT9eat7WKBqM2riRnB/8spnH+w34wcLTIokncyyhC2JwE/kUwxkQSMXJTHDYkkSa0iSmV6up/eYHQhXEkCbpSMm0gCWo/K5MZEkqQWMS5NTX8TGVUI15KAl0w1BVLTniRJpU1/rZLF5ye0nHE2S36XEYVwMQl430QScCK1VNzUhiNuJEmq4YJNWpr+YpL/zkhCuJoAfEtyjYkkYM2eYnrbkyQZOvvP1NL0h/LC9YwihOtJwL9InjSRBIxezKZAkiTD44uD00W5nqa/Fxg9CF+SgKskC00kAW1GsymQJMn6896uKSIrX0v0T2TUIHxLAp40kQAUllQEM/HcwEiSrCuva50s9p3U0vS3SvJSRgzCxySgn4kkAKY39LsnSbKuXLRFSwHzhOQ/M1IQviYA35BcZCIJWLu3OFDI42ZGkmRtOGC2lqY/ZBi/Z5QgfE8Cvi950EQSMG4pmwJJkqw5XxqSIcortGxPjzM6EFFJAn4jmWsiCWg3NosbG0mS1fK+rikip0BL018fRgUiaknA/ZIVuhOAopIK8Zc+adzgSJK8aNPfgdNamv7m42qUEYGIYhLQ0UQV4HQ6mwJJkqyccBVdsq1Ix1a0H1eijAREVBOABpIzTCQBG/axKZAkyQv53hwtt5PZkv/JKEBEPQn4J8mdJpKACcvzueGRJPklXxmmpekPjQX3cvcniC+SgJ9JpptIAjp8yKZAkiSTxP3dtDX9teeuTxBfTwJukSzTnQAUxyvEE33ZFEiSUeYf30gWh86U6thypuLqkzs+QVyYBLxuogqQlFEmbmnHpkCSjGrT37LtWpr+tktexp2eIKpOAkabSAI2HShhUyBJRpBD52lp+kuT/Cl3eIK4eALwLcn1JpKAySvZFEiSUeLrw7U0/eFu4Sbu7gRRsyTgx5JnTCQBncezKZAko8AHe6SK3EItTX+vcFcniNolAVejR093AlASrxB/7cemQJL0venvSLKWpr+R3M0Jom5JQBMTVYDkzDJxW3s2BZKkr01/K3dqafpbiytN7uQEUfckYKCJJGDLwRJxdQtuliTpGxMXaGn6OyX5r9zBCaJ+CcA3JJeZSAKmrmJTIEn6xOYjMkSF+qY/lBcacvcmiHCSgB9KHjGRBHSdyKZAkvSBD72VKvIKtRiQPsVdmyDCTQL+SzJfe1NgaYV4+h02BZKky7zhzWRxPEVL019/7tYEoSYJeMhEFSCWVSZu78CmQJJ0telv1W4tTX+LcWXJnZog1CUB3UwkAdsOl4hrWiRzQyVJxzhiYZ6OLeKw5A+4QxOE2gSggeRsE0nAjDUF3FBJ0iG2HJmpY2tAhvFb7s4EoScJuEJyj4kkoMfkbG6sJOkA/9wzVRQUa2n6e4C7MkHoTQJ+IZmpOwGIl1WIJv3ZFEiSNvOmNjFxIlVL019n7sYEYSYJuF2yXHcSkJpdJu7oyKZAkrSRDZsliTV7tKiIz8SVJHdigjCXBLQycRWw8yibAknSRo76REvT3y7Jy7kDE4T5JGC8iSRg1lo2BZKkTWw9SsutYIbkz7nzEoQdCcB3JDeZSAJ6TWVTIEnawEd6aWn6K5O8jbsuQdiVBPwbNHt0JwDlFZwMIEkb7H01Kf01525LEHYmAdeiUd9EJSBxfi43YpI0pPS3bLsWpb+x3GUJwu4k4G/CEJZuKwpOItyUSVIfJ67QYhGyUfLb3GEJwv4kYIipJOBkaql4rE8qN2aS1MCxS7V0/CdL/pg7K0G4kQBcKrnSVBIAB8Gh83LF1S24QZOkCuLbmr2uQMvnLHkNd1WCcCsJuFLyuDCIw0ml4pl3qRpIkmGycecUseNIia7PuCl3U4JwMwn4b8kCYRhLthWJh3vyWoAk69vsh4mb3EJt4p/vcRclCLeTgMeEBSiXe9a8jYXi0d5MBEiytnx5aIbYc0LrgM9yyW9yByUI95OAXsIibDtcItqPzRKNWnJigCQvNtvffVK22HtS+2TvUckfceckCD8SgEsk5wnLANWypduLRKfxWeKWdjQXIlnih4Vv72nZ4tNdRaIkXmHis8RM4e+4axKEX0nA9yT3C4txLFYqFm0uDESFukzIEq8lZogXBqeTpDd8aUiGaDUqU7Qdkyn6TM8Oxviw5mGupUHGtyZ4mLslQfiZBPxKMlsQBEFciB7cJQnC7ySgMXryuNcRBPEVzJVswB2SIPxPAtpwvyMI4iz2Sl7BnZEgopEANJD8kPseQUQemZK/5K5IENFKAr4luYD7H0FEFpgvvIW7IUFEMwm4THIF90GCiCSe5y5IEEwCmAQQRLTQnrsfQRDnkoCl3BMJIhLoy12PIIivJgHoCZjCvZEgGPwJgoheEoDpgH7cIwnCS7TjLkcQRHWJwDOSJdwvCcILoNu/CXc2giBqmgRcI3mSeydBOI10yZu4oxEEUdsk4IfCQhdBgiBqhPWS/4s7GUEQdU0C0BfwgmQe91OCcALw+kAvz6XcwQiCCCMR+LngqCBB2I5DkjdwxyIIQkUi8LhkMvdZgrAKaNrtJXkZdymCIFQmAZdL9pDM575LEMYxR/J/c2ciCEJnIvBjySGSRdyDCUI7PpVsxJ2IIAjTiUBf8YW1KEEQ6lAh+ZHkNdx5CIKwKRGAp8Bzkpu5TxNEqDh19trtp9xpCIKwPRn4tWR3yc+5dxNEnZB09ortVslvcFchCMLFZOBnkq9Kzji7qREEcSFSxRfCW60k/1uyAXcPgiB8Swh+KvmAZDvJDyWXSe6TzBBsKCT8Rd7ZBHi75GLJUZKtJR+U/Al3BoIgCIIgCIIgCIIgCIIgCIIgCIIgCIIgCIIgCIIgCIIgCIIgCIIgCIIgCIIgCIIgCOL/BxM4q6zA0/gRAAAAAElFTkSuQmCC;" vertex="1" parent="1">
          <mxGeometry x="790" y="80" width="110" height="110" as="geometry" />
        </mxCell>
        <mxCell id="D52kMnZtS_Bpdk-7Nocg-13" value="" style="shape=flexArrow;endArrow=classic;html=1;rounded=0;fontSize=22;exitX=0.5;exitY=1;exitDx=0;exitDy=0;fillColor=#353535;entryX=0.175;entryY=-0.012;entryDx=0;entryDy=0;entryPerimeter=0;" edge="1" parent="1">
          <mxGeometry width="50" height="50" relative="1" as="geometry">
            <mxPoint x="522.0000000000002" y="250" as="sourcePoint" />
            <mxPoint x="521" y="319.03999999999996" as="targetPoint" />
          </mxGeometry>
        </mxCell>
        <mxCell id="D52kMnZtS_Bpdk-7Nocg-14" value="" style="shape=flexArrow;endArrow=classic;html=1;rounded=0;entryX=0.009;entryY=0.372;entryDx=0;entryDy=0;fontSize=22;entryPerimeter=0;fillColor=#353535;exitX=0.987;exitY=0.593;exitDx=0;exitDy=0;exitPerimeter=0;" edge="1" parent="1" source="D52kMnZtS_Bpdk-7Nocg-9">
          <mxGeometry width="50" height="50" relative="1" as="geometry">
            <mxPoint x="320" y="352" as="sourcePoint" />
            <mxPoint x="451.9397916666667" y="351.76" as="targetPoint" />
          </mxGeometry>
        </mxCell>
        <mxCell id="D52kMnZtS_Bpdk-7Nocg-15" value="" style="shape=flexArrow;endArrow=classic;html=1;rounded=0;fontSize=22;fillColor=#353535;entryX=0;entryY=0.5;entryDx=0;entryDy=0;" edge="1" parent="1" target="D52kMnZtS_Bpdk-7Nocg-11">
          <mxGeometry width="50" height="50" relative="1" as="geometry">
            <mxPoint x="310" y="216" as="sourcePoint" />
            <mxPoint x="439.9999999999997" y="214.22" as="targetPoint" />
          </mxGeometry>
        </mxCell>
        <mxCell id="D52kMnZtS_Bpdk-7Nocg-16" style="edgeStyle=orthogonalEdgeStyle;rounded=0;orthogonalLoop=1;jettySize=auto;html=1;exitX=0.5;exitY=1;exitDx=0;exitDy=0;" edge="1" parent="1" source="D52kMnZtS_Bpdk-7Nocg-2" target="D52kMnZtS_Bpdk-7Nocg-2">
          <mxGeometry relative="1" as="geometry" />
        </mxCell>
        <mxCell id="D52kMnZtS_Bpdk-7Nocg-21" value="" style="group" vertex="1" connectable="0" parent="1">
          <mxGeometry x="621" y="180" width="150" height="70" as="geometry" />
        </mxCell>
        <mxCell id="D52kMnZtS_Bpdk-7Nocg-18" value="" style="rounded=1;whiteSpace=wrap;html=1;fontSize=23;fillColor=#c7cddc;strokeWidth=6;" vertex="1" parent="D52kMnZtS_Bpdk-7Nocg-21">
          <mxGeometry width="150" height="70" as="geometry" />
        </mxCell>
        <mxCell id="D52kMnZtS_Bpdk-7Nocg-17" value="" style="shape=image;imageAspect=0;aspect=fixed;verticalLabelPosition=bottom;verticalAlign=top;image=data:image/png,iVBORw0KGgoAAAANSUhEUgAABKgAAAG0CAYAAAAW8R9iAAAAGXRFWHRTb2Z0d2FyZQBBZG9iZSBJbWFnZVJlYWR5ccllPAAAYJ9JREFUeNrs3U1uE0vXwPG66M5vWEEaMcmMsAHTzJFumCNdewVJVhBnBUlWYCMxJ0jMabKBmJkniM4KyLOC960THxMTbMcf/VGn6v+TLHOf5360q7u6q06fOuUcAAAAAAAAAAAAAAAAAAAAAAAAAAAAAAAAAAAAAAAAAAAAAAAAAAAAAAAAAAAAAAAAAAAAAAAAAAAAAAAAAAAAAAAAAAAAAAAAAAAAAAAAAAAAAAAAAAAAAAAAAAAAAAAAAAAAAAAAAKACf9EEwOo6g/GO/9rXz+7Mn8XQfy6uenslLQUAAAAAwOoIUAELzASjcv95oX/OVvhHL90kUFXQigAAAAAAPI4AFaA6g3HmJsGoV+73zKhNFf5zSqAKAAAAAIDlCFAhWZ3BeJod9Uq/d2r6TxWOQBUAAAAAAAsRoEIyHmRIyXfW8CEUjkAVAAAAAAB/IECFqGmW1H9uEpDaD+Swhm4SqCo5Q2udy67/Kmg3AAAAAIgPASpEpzMYH/ivf/1HvncCPcxb/7nwn/Or3t4tZ22l83rmv478Z+Qm2WjvfduNaBkAAAAAsI8AFczT3fZmg1KWlP7TY9nfyuf52v2+NFPaT3ZNJFgFAAAAAIYRoIJZuuTLYlBqHgmy9MimevSc5/7ry4L/u3QEqwAAAADAJAJUMMXI8r1NSXBKglSXnOml18B0qd8ypZsEqy6oWQUAAAAA4SNAheDp7nuHbhKUyhL4yWRTLb8e5i31W0ayqaTe1yVtCgAAAABhIkCFIM3UlZruwJea0lGbatn1IdfElw3+0aGbLAGkXQEAAAAgIASoEBTNljpxcS7h28TpVW+vTzPMvVY+us3rj5VuklU1JKsKAAAAANpHgApB0ILnqWZLPabwn7cEUv64ZjI3Weq3bSBz6MiqAgAAAIBWEaBCa3QZnxS7lsBURossVbpJkIrd6X6/hvpuknFXhbtaVb6Nh7QsAAAAADSLABUaxzK+jUkG1TEBlD+upx+u2gBn6T/v/eecrDUAAAAAaAYBKjSmMxjvu8lufF1aYyvUpfr9usrdZgXTHyPBqaGbZFWVtDQAAAAA1IcAFWqnAQTJmMppjcpIce8ezfDrGvtS8/U1dJPAYElrAwAAAED1CFChNgSmaic1k16zDO3XstEfDfynho5AFQAs9Xw361s4zu83ZZ+zBQBAOAhQoXIEphpFkOr+uhu45paPDh2BKgCY6/lu9n8WjvP7Tck4GACAgPBgRmUITLWGIJX7lUV17ZotvD90BKoA4DcEqAAAwCZ4MKOqwIBkr+S0RmsIUk2uxb6bBEmbNnSTHRbZ9Q9A8ghQAQCATfBgxjbBgEyDAV1aIwjJB6n8NSnZU1KLaqeF/7y0+4X/nBOoApAyAlQAAGATT2gCbBIE0EwVWU7VpUWCse8/XzRIkyQNDF209J+XdpeA7Q9/DugXAAAAALAGAlRYi068f+hEfIcWCU7yQSrv3E2ymdoibT/w5+Ba67IBAAAAAB5BajNWQgF0c5Je7tdiLap5Lt2kPlXJZQkgBSzxAwAAmyCDCo9N9GU5nxRA/+IITlkimVRnCf/+trOoZh24ybK/fuKZbQAAAACwEAEqLOQn00duspyvS2uY1NXgYnJarkW1iGR0sewPAAAAAOYgtRl/8BPoafYNE+k49K56e8MEr2PJVvoZ6OFd6nlhtz8A0WGJHwAA2AQZVPhtQj+zO19Oi0RjkGLWjgZ/hoEe3nTZ3xGXJwAAAAAQoILSAIYEpk5ojSh99Oc4S/B3nwZ8bJLhdebPy5dEzw0AAAAA/EKAKnGaNSXL+aQIOpPkeEkw5GNqP1p3zrsM/DBzN6lNRTYVAAAAgGQRoErYTNYUE+M07CdaNP3CwDGSTQUAAAAgaQSoEkTWVNJkZ7+DlH7wVW+v8F+lkcPNHdlUAAAAABJEgCoxukOfBKaYAKdrkGCWzqmhY53NptrhcgUAAACQAgJUCdGsDFnSt09rJE2CHqkt9ZM6VLfGjjl3k53+DrhkAQAAAMTuL5ogfpqF8VEnvMDU6VVvr59QP5CgXNfo4Z/r+brlsgUQuue72f9ZOM7vNyXjYAAAAkIGVfyT8tx//XAEp/CnE13ymYoLw8cu2Y9fEjtfAAAAABJCgCpifjLbd5N6U9SxwSJnqfzQq97eyH+NDP+Eu/pxvl93uWwBAAAAxIYAVYR0lz4JTJ3QGnhEntiOce+NH/9d/TBZrkgBdQAAAAAxIUAVGZb0YQMnCe3qdxnJ7+i6STZVxuULAAAAIAYEqCKimTAs6cO65HpJYqnfVW+vdPEEqWTJ37UGpQEAAADANAJUEdAlfbJD2RmtgQ0dJBTo+BTRb5Hg4pfElmkCAAAAiBABKuN0iY9kTXVpDWwplQDnZYznjrpUAAAAACwjQGWYbjl/7SZLfYBt7aewQ9xVb+/WxRmkknP3hSAVAAAAAIsIUBmlgQQJTjEZRZVOEglwfIr0d0mw+ocGrwEAAADADAJUBvnJZ99/DWgJ1CDznxTqGV1G/Numdam6XM4AAAAArCBAZYwWQz+hJVCjw9izqCJe5jcl529AkAoAAACAFQSojNCd+mRJHxNO1E2CGylkUX1K4DcONKgNAAAAAEEjQGWAZrPITn3UlUFTDhOoRVUkci677PAHAAAAIHQEqAKnxY5/OIJTaJYEM7ox/8Cr3l7pv0aJnE85l+zwBwAAACBYBKgCpsEpyZxiUok2HCbwG4uEzufd/YQgFQAAAIAQEaAKlJ9E5o7gFNqVJVBk+1Ni53QapMq4vAEAAACEhABVgDQoQHAKIYg6i+qqt1f4r9vEzqkEqa41QxMAAAAAgkCAKjAanGLXLYRiP4FARpHgeb3beIEgFQAAAIBQEKAKCMEpBCr2WlRfEz2vBKkAAAAABIMAVSAITiFgB5EX1i4SPrcEqQAAAAAEgQBVAAhOIXASxDiI9cdd9fZGLr06VA/PL0EqAAAAAK0iQNUyglMwIvZlfqPEzy9BKgAAAACtIkDVIoJTMESKpWcR/76vnGKCVAAAAADaQ4CqJQSnYNBBxL+t4PTeIUgFAAAAoBUEqFpAcApG/Rfxbxtxen+ZBqkymgIAAABAUwhQNUwzE85oCRgU7TK/q96eFEknSHVPglQfI9+9EQAAAEBACFA1SINTX3TyB1gU8zI/AlS/u7tfEaQCAAAA0AQCVA0hOIVIxLzM74bT+4fpfQsAAAAAakWAqgGagfDREZyCffsRZ9QUnN6F55yaeQAAAABqRYCqZjqZlwyEjNZAJGJd5scSv8W6BKkAAAAA1IkAVf1kUseW7YjJqxh/lBZKv+X0LtTVHUgBAAAAoHIEqGqkGQcHtAQik0f828iiWm5AkAoAAABAHQhQ1cRP4o78FxM5xCjz13cW6W8jQPW4M930AQAAAAAqQ4CqBn7yJllTZ7QEIpZH+rv+x6l91F1dvYiL5QMAAABoAQGqimlmAcWE0aRCP03WT3oRcVvicQSpAAAAAFTqb5qgOjpZ+6iTN2AdsrTsVr//N/PnO1e9vWLLazOf+cvM3e8qOS14nq/5r8wjPQ8USV+dBOMlU7RHUwAAAADY1l80QXU6g/EXF3cBaWyn1M/XmT+PdPe4UK5huX4lwCrBB8mSytyCXSj9cf8VaT/+Py7VtRz7a+GcZgAw9Xw3M3Ef/X5TMg4GACAgPJirm9RKJsERLQFVukkG1Dc3WTYWVCBqg+s7d5NglWRc7evn9baZXYH+1h/uPsMMq4nyWgCwGQJUAABgEyzxq2ZC23UEp1InwSiZoN8FpPxkvYzpx80EH4Yz132sS1nl3GVc0mv56K+Hl7Fd9wAAAACaQ4BqS1oUnR370iPZUJduslyvSHFibjkjbIVzi/VM6++9pCkAAAAAbIIA1RY0g2TgKIqeitJNglLvr3p7I5ojWpIFd0AzrG3f3xMHvm9QNB0AAADA2ghQbUeCU/s0Q9QkEPXefy5ZvgQ8qtsZjL/6vjKkKQAAAACsgwDVhvwkTGpOkWURp9KRKZUyzvl2zvz9cUTfAQAAALAOAlQboO5UtIb+88lPrC9piqRRg2o7d0uf/X3ydcR1ygAAAABUjADVmmbqTiEOpf9c+M+QyTRQGQnin/jPMU0BAAAAYBUEqNZ35qg7FYPCfy7IlsIcLE2rxpHWo6KPAQAAAHjUXzTB6vxkS2pOfaQlTBv6zykFz/FIX/8/WqESkpX4jOxEIC3PdzMT99DvNyXjYAAAAkIG1eoTVpb22Z4kSxYHgSmgWXLflKD+a5oCAAAAwDJPaIKVfdTJFuyQwNSpm2Rw9AhOAa3IdddTAAAAAFiIDKoV6OQqb+A/JQGVaf2b0n9uZv6/kVu+u5j8/dkj//7swd/zwt0H3fLITtvQf45ZWoQt+iIB6eqc+PvoJUFiAAAAAIsQoHqEn1RlbrIbVVWTXgk0ySTtxt0HnUYVBVLKCn7vvk7Mp9/TIFZu5JQNHUv5sL2Riy9o26bpEmmW+gEAAACYiwDV4wZus0yKQie500DUyEI2jz/G0czx/0aDdZlO3HfdJIgVyo6GcrzHM8cPICx3S/18Hz2nKQAAAAA8xO4lS+jSvrMV/tbCTYJQ39wkEDVKrJ1yNwlUvXDNB61KNwlMsZU9qrymvzgyqOogQfqXZDgCcWMXPwAAsAkyqBZPUDO3eGlf4T9f5dtPtIrU20rboJhpu+mSwFf6XVfASgqgn1NnCjCDpX4AAAAA5iJAtdjs0j7JiPrkCEitRANGl/p5GLA6cI8Xc3+MnAN25QNsYqkfAAAAgD+Q2jyHFgo/dJMsqUsydCpv38xNAlXTgNWq5DzIcr4hrYiar1GW+NVL+vIz7q1AnFjiBwAANsGDGW0HAqbZVf+6SbBqUUF6ycbqMaFFQ9clAar6SfD/Lc0AxIcAFQAA2AQPZoQWGJAg1WywSgJSPYqgo+HrkABVM16zbBqIDwEqAACwiSc0AUIigSj/6fk/PvOfu2+CU0C0BppFCQAAACBxFElHkHQp35CWAKKW+c+R//RpCgAAACBtZFABANp0ohsnAAAAAEgYASoAQNvOaAIAAAAgbQSoAOBP1EVq1kFnMM5pBgAAACBdBKgA4E/7NEHjBjQBAAAAkC4CVACAEGSdwfiIZgAAAADSRIAKAP40oglaIQXTWV4JAAAAJIgAFQD86bX/XNIMjZPgFFlUAAAAQIL+ogkAYL7OYCx1kbq0RKNu/eflVW+vpCkAm57vZv9n4Ti/35SMgwEACAgZVACwwFVvr+e/TmmJRkkW1QnNAAAAAKSFABUALHHV2+v7rx4t0ahuZzDOaAYAAAAgHQSoAOARV729oSNI1TSyqAAAAICEEKACgBUQpGocWVQAAABAQghQAcCKCFI1bkATAAAAAGkgQAUAayBI1ai8MxjnNAMAAAAQPwJUALAmglSNOqQJAAAAgPgRoAKADRCkaswBtagAAACA+BGgAoANEaRqDDv6AQAAAJEjQAUAW9Ag1TktUSt29AMAAAAiR4AKALZ01ds79l9DWqJWZFEBAAAAESNABQAVuOrtyVK/gpaoDVlUAAAAQMQIUAFAdd76z4hmqE2XJgBMKGkCAACwLgJUAFCRq97erZsEqW5pjVq8ogkAE0qaAAAArIsAFQBU6Kq3JxOz17RELQj8AQAAAJEiQAUAFbvq7ckyvx4tUblvNAEAAAAQJwJUAFCDq97e0LGzX9Wo7wUAAABEigAVANTn2BFUqVJBEwAmsBwXAACsjQAVANSEoumVKrU9AYSP5bgAAGBtBKgAoEZaNJ16VNsraAIAAAAgXgSoAKBmV729S/91Tkts5StNAAAAAMTrb5oAABpx6j+5/+zTFBspaAK04flulusfd+b03xf6v8/zMKgqS1SnNenK7zdlSesCrfbtzH9l+pf7c/ryqwX/qPTlb8ueU75/88wCgA38RRMAQDM6g7EMgK9pibVJ/alnNANqnKju6wRVJqvToFPewH96GrQq/edG/zyyHrzy7dn3XyehH6dvZ8bB8fftTPu19Odd/fP004TRTD//n5sEsQhQA8ACPJgBoEGdwdjExC0ww6veHnW8UOWEVSarL1zYWY0ykf2qE9vCT2hvDbWxtOuX0I+TAFV0fXtnpk+/cvOzokLr49K/JRtLAtPs+gsgeTyYAaBhncH42rHUbx1vtY4XsOmk9UAnrDJ5zYz+lJFOaL/6iexl4G0u7UyACk30bbnW/jXet6emmVYSmL4kYAUgRTyYAaBhLPVb29Or3t4tzYA1Jq77OmH9z8UZDJb+IEGqTyEGqwhQgb5dWT8vpJ+7ScCK5yCA6PFgBoAWsNRvZZdXvb23NANWmLhm/qurE9csoZ8+DVa9D6UwMwEqVHw97Wu/Pkisbz8kGVXv3SRYVXJlAIgRD2YAaAlL/VbSu+rtDWkGLJi4TpfvHdKX7sik9dS1nG1BgAoVXEOZ9u3/6Ntz3WVQOjKrZq+ZvsHDHhJsNHmtyTMut3S/sLRkmAczALSkMxibmMS1jOV9mDc4lAnroU5gd2iRP0ifufCf87Ymr/4c/V/ojUSAKsi+PQ1KHdAaK/d1CVZdpF6zyl87Z/7ryNhhywYYr7mMzV1rP5ydbE7ZgOGlpfblwQwALeoMxgM3WZaEP7G8D/MmrxKYymmNlQ3957Tpt/QEqLDGtbKjz8FDl/YSvm0VbhKoukz4Oro2eA29TfWcGb3O5F41MHTIr0NZ/r+qJ1xmANCqYzd5A4o/faIJMB0Q6hvLj47g1LpkMH0ty190AgeE0q8zzXqRvi3fGa2yFbk3fpR7pU6ik6LZoj2Dh37GvdnMPWtH71VWDK0FpwQBKgBokS5fO6Ul/jBdtoC0B4PTwNSAyetWZFAtmzL8IFCFAPq1BKakT0vfPnIs062a3CsHKQaqdDJ+afB8HXHZmmDpfiXj6GOLjUxqM2DUzzfv8iX/d/n084eSVrKjMxhbWs/ehOFVb69HMyQ7gZVJ1Ql9ot6Bq5/MDWs8hyzxw8NrItN+3aU1GiXjwdM6+3tg15kEEH44e4HPZxRMD/7+dW3oupJn/LnFtubBDATo55t3cvPb14/8+ZX+X/mGE5GRfn/Tgcro6ecPI1o6HBRM/8PLq94e12h6A8BcJ7A5rdGIkQ5iixrOZfC7lBKgajRgIMtiurRGq6Sfn1pc8rPBNXfkbC3Fujs/FEwP+pqyVDPW9LXEg9nGxDVz92+RdzYY8M0+iEo/6Stp1bD8fPNuXydkL/Q7a3CwIhOUr/Lnp58/UAup3b7+hYn5ZNLs71MvaYakBn6ZTibYuasdsiTmuMq39/6cBn8/I0BVe7+WMasECg4dy/hCMtT+fhv59WdxTNVLJdPN2LUk87RrQ4f80vKunjyYw5iUToNOmX62yZZZlTyUZAnNMWegHT/fvJOJ2L+u2YDUo4EB/3nvJsEqsleavxdYewDWNkDz9yYGaOkM/PpMYIMg4wLZAayfyuSQAFWt/VrGOBQ+D7u/n1pdArTiNSjX3g+D5+VZ7MFDg9eSpWDnub9+TM/veTA3PwGdBqPkIn/h7gNTTAITMBOUOjAwGSvdJFg1pJ5Vo/cISynEtQ3OtHg84h7w5TqB3ac1glLJsj8CVMn2axnTDhzZwFZIP+/FWvtIX4CcGDts8wGGCMcqVkpwRBHg5MFc/2RzRx/Sr/Q7lIG4LPV7xhmq38837zINOPzn7L5JlAHM+6efPww5o7XfM+Qa+ZFwE5z6e1OfKyHqwd50Rzl2LQp8kuQmGRa3G55nAlTp9W25d5MNaU/U2VQW6uHNYXqJFtdPa6JYIsqDuZ4JplzE00yZUC9osqdqpoGp2HarKd0kq+qcelW13kNSzqJ6Rp28qAd6uZtkV2S0hpl7fm+TbCoLBWUJUFXWr/e1X5MNadul9vfbyK5Pee5Y24SGgulhXDtdvbdxzTSIB3N1E0q5+U2XboU+8CZ7qkZa8PzExV3s965WiSNQVdf9RO4hKWZRSV28HldAtAO9vrO31AITa2dTWTjfBKjo1/hzjuA/b2PL3vHXqSwnt5a1S8H0dq8ZyQS9dnZeqD2LZanuEy6/rSaR+/5z5j8ykfyiNz4LF/EpZ696kjHlPwO9mcW+E9V0ic4P/5v7nP1qaQZRioMS7k1xDvIyTZFnEmuXjG+uNRMBmPbrL/Tr6GTa17sRji+sTd7PNEiC9p57mZXrO6Y6crw5WpPWlJLgg6yxt5jKTPZUxX6+eTfdRjnlQZrcFI+ffv5wyRVR2b1GHoopZVGRPRXnJFaelxK4Z5Ad0URvlZ3+yKCiX8P+c9n3kV5k1+1HzgFWuFZ2dAxu4R4nc7CXMS3NJYNqjcmi1oX54WyvsydDoUK6Kx+ZAZM3DB99e3zR2lvYkmZRpRTw494U3wCvr5MBJrFxOZGMON2tDen16zP6dTK6kiUXSxaPn8BfGhxXdclcbcWZoXvccWx143hz9AitLSXBhxhuDrd+0vuUs7o9zZqSQOUBrfHndSbBhqefP5zTFJXcf74k8FPJnoprAsv9MZ17/fGiGikWisuSQbV2v5bnEYXQ0yP1qF7HMAnWwPq1sxVgHfm2f8ll2Og1YmUFw6W/Nt7Gdg7IoFoyMfSfL/owziP5WRec2e1p1tQPJl8LyUP/TLOpeMO6haveXqEDw9gnuWRPxTWw+8L9MZl7/UB261uQYVHSRNH0630d9xCcSpOc92u9DkzTOj3Wxhz7vu2PuAwbc2Zo/Hwc4wkgQPWABqauXVyBqakhZ3g7P9+8I7V9ddJ/pIh6TlNsJfbA8oUuZ0Qck9hrJrHJ6cqYKYbJK+b2666OiRn3pC2LpZ9/vyklw78wdtgnFExv5H4ncxYrL9guYiqMPosAlXqQMRXjIGvIJHBzkgnkPzLx4g3Geu6WBLDT3+Z8vx26yVuSGMnvYikok1jYt6+T1y5NEVW/lmc3xdDx25gukmD0scG2P+MSrJ2VmsLlKpuVWJV8gEqLn390cWZMzXrPPWczP9+8I7W9ghu+b8ePLPnbWKxZVMdXvb1bTq/5SWyXSSzc/ZI/JlFx9OuBYwMYzO/n5oNUfnIv5ROsLfWjYHr9Yxkr7Rt13dZki0N2BmO5wR4l8vAt/STwGbee9f18805uVpZ2cgjdXaHNp58/EJRY736VOTsFG1dV+PvSa85uFAO6AS2Bh/3bTQLrQW/pTpH0uX2aTQ6wChnHvdZAj+XrXcZWmaU5nW9z5nRpXwtRFkaflWQGlZ/syUNXlmul8maI4ugb0OAUWQHVuqtRo1lpWJEuz72M7Gcdc2bND+bOHMEpzJdzbZjs09Od+ghO4THTjEnrY2RrmSiZLr1Ftfc+adPMwKHeusizp0RSASrJmtLlfB+drWj5tobcetYzE5xCDQ9XN6lLRZBqPTEt0z296u2NOKWmB3Nyf6QmHx6bwMJOn54Gp3g2Y1XT2nNm+/r3m7IwOE861B1zUd2979DK+Nlfs9GvQkkmQKVZU5K6l9pboUtqvKzn55t3MvEiOFX/xIUg1Rp8P5YMqhj6cukojG59MCf3xy4tAUQ1QSM4hU3sRzBmPjY2vqJgerWOnI0XKiPdgTJ60QeoHmRNpfg2j+Loa9DMKSZezT1gCVKtZxjBb+gRNDc9kT3iHglE1acJTmFbB5Y3R9CMlJ7BNs+59La+/2XOTsmfZEpjRB2g6gzG0nFTzJqautWsC6yAZX2tIEi1HusB53N/Tyo4jWYHcnKP5K0tEE+fJjiFqhzpM8Kk7zelzJesjU9iqAHWNivBqXNdjpqEaHcv6QzGMohOvT7G0E8Gew6PIjjVOnb3W/3eZm3HmV/n2N+PXnIGzU5kuUciOinv4kdwauFYRMYhpf/cPPj/ppNDaa+HQYFdfS7vJN6epnf202yaa2drxY3UJOrTdTc637neAy30q2cp1J6a+jvCyZvcVGQ5X07Xc59ogsdp9g5ZAe3a14cEAYzHyVs+a8H3JHYdiXgQJ1nIBKeAePp06sGp0k2CUd/cJPBU+slfueI/W6zYvvv62dU5SQptPd3Z77XFybRcA/7YT43NCU78MQ/XuH4x03ZGjvM4peCUiOrNUWcwnk5ySXecLO97SjMs9/PNO7lWfnDNBGP49PMHAhmP3+eujR221J0acvZMTmR5rq5uOnGVie//VvxnppkXzs3PzEC9E9K/Eu3X8iI3pfIXt9o/5cVt0dZkXjM25POviztgJQGTnuH+cW3s/Mg1/Zo7+tp98QvnNkzRPJj9pK3reMP728OB5X2P+/nmnbWHUAp6Tz9/GNIMS+93lpb5cS+yO4AjgD/fyN1nX9z9ucq3mzpwnmZgvNDvjGavXooBqoR24ZQ+KRnHn7S+UGjnQfq09PX/XJyrPt6G2O4rnhuLLwLNtndL59jKOPql1SWz24jiwUy9qfk3KgqkL/fzzTuum4BvyE8/fxjRDObveXe1xdi1z+Tgjfo090r3e/bFbUvnI9fz8cpRxqASqQWo/HXUd3aWtWxKxr7vLU3WNVjVdZNgVRbJebjVyXVptK9YmyOU2t6Mtx4/t9LXLCS1JFtfzPSDWetNnTm2vP6DnxD+RSss9vPNO0lt/0hLhP2gpWj6wntf7sJPTb4rlurvRQQabQ7gUsmyWHYPmk50RwGen2nA6l/9zrhq15dSgCryjQ7keTP0nwvrtXj0PMWSVWV2eZLeY6+N3VspmL7aebWQGX43D0o14Gj2wazBKd7uznfpJ4VvaYb5qDtlxvnTzx+OaYaF98CfgV/DEpwqOFMmB3Dy1jjVjSPMZV/oOdvXSe2BI1i1slQCVBHXkpPJ24WbbMF+G9k5y90k2y03/lOkwPO54XPwxdhhJ7kkbI1z2nc2skiTXrL5xOjEjODUcl9pgqUGjuCUBUc/37zLaYalE+lQ9QhOmZ4UpRackomtTKBkG2eTg0KZkPiPTASf+b+UjIWh/i7Qp6dj5p3I+uyp9tl+jFkG/jdNs4+khmNp+Kec6DVo8hwEPtaah13JF98LM/91aOBQi9TriZkLUBGcMj9xbZUu7TugJcwYaMYb/hRqIHrIjn2mJ7IpLX2eneQex7JNt05sZVIrwapj45NbbC+24NQ0mNxPYfmL/43yPH2p9yqL5NqzvLS052wF+3NdJoo/nRi5Fya/sZCpAJVur05warnSTw4ZjM6hgQ7eLNiSufgLum6qCPCY2LHPto8unezSqLMvdGJ7K0trNKvqbaD3DNRICz3HMmaW6/elBpOTyg7Uvtx3k0CVxeVbB5qda7Lt3STQb8mZ1ay1Gu+FMp/oWhibxPKybBtmAlRkTpmetIZC6qpkNIO98/bzzTvO2wMaiA5poDoiOGV68CaTnzyBnyoZxslkX8xMsi51udBrxgnJ9OkDF8dOxXcBArl+U6+to0t5rWZTDQy3+9DYfVPmzLzctXf9lRS5nzARoJoJThENfhz1p+bQAAc3ax4ssQllwDTSiS9sTmT3E7g/lnKNao2pMuEJbkGgKok+nUXy3JRr9KXVIts19uO+9mFLQfZMX4RYZe0F3JE+27kfTrL3cq4xO4IPUJE5ZXbCGhqCU7blFEyfK4SA9F1w6qq3R0FmmwO3FOpOneskl+fj/QQ3lgLMmC+G5brTrCmuzwV92Nlb8ndouGC6XIfWMtcoa2KnHS4Zo9yzkEElb4AITq2G+lNzaPZUl5YwjyDjn0YB/PcJTtnvV1msz0Q3yZpKrmbNGpOuodaokokXbRQBzVLZN95vyZparf/e3eOcnSCV6VqwmrlmKSAoBdOPUu4jWjA+9PuhxTpntbIQoGLHNTuT1ZAnYLCPLKoHNCBdtni/IThle+Am/SnWweulI2tq3YmXZGPQXrb7tPXlutN+y3h29b57q3WphkYOuatLUK2yFkg4SbVguv5uC/dDCqM/EHSASpf3YXXUn3qA7KnoEGz806il/ybBKfsDt1hrux1rrSmuz/UmuqUu+5Md/2g7myz36XP67Vb9V5brDhnL1d7OhZssG7ci5R3MLWyONSJb9E+hZ1CxtC/8iSoPQTSJLKo/NR2YlsEZwSkGbiGSa5KlQdtPwO52OnSTbBYYYXxpX0+W4nIWt+67VoJU1rOoZEl0aeh4u5oxndL9UAJzhwYOlfveHKEHqMigWoOfMBa0wr2fb97J9dOlJaLzH03wmyYD00N/nyE4ZX/gFuOufdIPWBpU3URXlg1JJpVMeOnv9Om6yLUlWVNDzmJlfVf6rIX5gOUsKos1g1LLojoxEEcYUoZgPjKomKTG7IgmiFJXl27CNRqYPvf/LbbAjUNsA9W7JafUcKhlIiaBA2s7haXI4tK+W+23ZOpV762BPms6i0qvW0vX7n4qBdP1ugr9t1IYfYnQA1T/cIrWGqDjd2TaxKtLE/ym7ol576q3x4M0joGb9J08op801EkuWT71TcRKLcJ8SmsE2adlImbthe40OMXYtZ4+e9e+LvzsR+uZvNYyTFMpmG7hJdwp45bFyKCKxw1NcE/rFGW0RLQIPv6urkH+XU2fq97ekCaOYiJrZUebVUl6fI9BXmOT3r6jgDp9uprnCsGp+vvrNEgVMutZVNLGlgL3MW+OMr0nyvzvIPDDLKiVudwTmiAaBU3wGwIYcct+vnlHAPvetxr+nTJ5eHbV22MSEY+YCqMPtdYKmp2QyZIWlvyF48zZqtdKcKrZ/irtHHr2c9d4G58bm4MdRF4w3ULAnhUJjyCDKh4lTfD7DZgmiB5ByHtVD/al3tRLiqHHQ99SH0bycwhOtTshk/GGZGYMaY1W+3RucHJPcKr5/ioBlJBrJcXwXLIWcIgyi8pICYNz7oGPYxe/SPiJZEkrTPx88+6AaycJBCHv3Vb473lLvakoWdjRZhUWMgJSmPTeapCQc9Fun7akx8SsvbZ34S7N3dHAguX7oVzXlpb6Zb7N+9wTWxmrU8txBcEGqDqDMQGG9QbsuPeKJkgCy/xURTv5yb9DsqbYUSkymj3VjeCnTHfrI7MvnImZZGdQl6r5Pi39OTd0yMe6IyTa6afSP0POOj2MoI37ztZqlkPL9b/m3BMtlDCgZuaKQs6gYuK5Oi7235FZw7nmPrCe06ve3msyMaM1iOT6fsvgLsiJmQS1XztKDTTJUvbUkILAwfTTUF9A7T/fzWKY91laei6JIGcxXNtGNosotA9iBRRJj8NXmmDi55t3mWP3vpSQLXdvtOE/I1lTfZovTlqnJo/gp7zW2kcIc/J7dy9xZHQ30af7hsY5LMkNi5yLUIP8MWRRFf7LUjA2loLpkj0V+sor6mauIeQAFUv8sImcJuB8J+p2zb/3WAuhM6GM20kEv4HaNTYmZ9Nt7Qtaox6aKWBlIk/WY3h9tPRfF4EeXiwZ8afO1soW0xnWukwx9HHOKS/Y1sMSvzgwGLxHRk1ifr55l9MKd76t+PfdbRN/1dtjyUX8k1npG9b7x5DaNaYmwFI8/TUtURsLmQJTPSZlQfbRvgtzOa75YunTe6CzlS1jvWB66MEp6WuMt9fEEj/EhsBmenKaYOWHpNSZekutqWRYz54a6U5xQPKMZU8NqbcStFB3Evs3hsbVa78wdMiHen+xdk+UOV838MM8Jot0fQSo4sDSh3sEqNLzgia4s2gwdPc276q396yi3f5gY+CWOdvB27vlQZxJ4Bcr2VOlo+5U0DQrtQzw0A4sBkoW6Dk7S/129P5iTehF3i8J1G8m5ADVP5ye1fhJJ5FZx1KvhGU0wcIJvrwllcDUkOZIjvXsqWOWBwETxrKn2ErdhlCzqKKoRaXPr1NDh3yiL7as3BNlzhfyvO+u1iu3mc1Qgwox4ZrhvOP3wFSfAHaSk1kZZHYN/4RL6k4Bv7GSPXWuO5khcAFnUf0XURtL7SFLq1zODB1r6MXdL3jJtjmW+NnHQOAeOz8m6uebd8kHqXT5HoEpCMvbdVsrMAvQp+/77imnypQQz1ce0TI/Z+x5dqCZSUHTYvpZwIdY6mYE2BABKsSEHfzSRXDS3QWpCEwlTgf2XcM/gYKiwJ+TsR36Lmog9XFCPGcHsTSw7xOSQWVqqZ+BMU7oJQx4ybYlAlQAYpDTBMCvgb3VgG3B0j7A1oSRvmuXBhRDPG//RtbUstSvtDKe1qB4qGS5cxbw8Q1Z5rw9AlSICbWIADCZtYu3jsAMXW6TGThUigHbdRHgMR3E1MAaCLT0fDsJcZmlgc0iKIxeEQJU9o1ogl9Y5pUudv0Ek1k7k9l5TikoCvw5UTRwjENdxgSD9L4b3Pnzz7PYglSFmyyptEDGEUeB3g9Dnuudssy5GuziZ9//aAKA+wXg7O5+JAO6c04f8NsEXSaJuYFDpTC6fSFmUcVYV7bnwqz5Nc9hSFlUej88Cri9RrprIyoQcoCKbBis7OebdxmtACDhyazl4ugUVwbmTBANHOM5mY9RCDGz5yC2RtbnnJUlYDKmOAvoeCiMnhCW+CEWGU0AIGFdo8ddUlwZMNmnZbJN9lQENHASWpAq06yZ2NpanneFlXuQPwetr1DQYwj5fnjOMudqEaACAMA+q8v7mOACf07IZDIW+kqCIZmPUfkU4DHlkba1paV+ZxzDUgTqa0CACgCQlM5gnEU2mZW3ixbrsJE9BcxnIeB8wWmKShHgMcVYh2pamN5K/8k1YN7W+CZ3YQcqKVFQAwJUAIBkdAZjGWgNmMwGgbeOwJ8TssyFnzkypPZUXALdzS+PuL37zs5O7CctFkwPufZUwUu2ehCgAgAkoTMYS5bRIMKfZrGYLNlTwHxdA8dIcDlOoS3zy0LaSa4GVgqmZ66FHfQ0cyvn/KWHABUAIHoanPqifxlNOrYfwB04m5tEMMEF5gs9I7IgeypaRYDHlMfa2L4fSXufGzncwxaK1oecPXVKYfT6EKBCFJ5+/lDQCgDm0ZpTEpyavon9FtHP+9fgMZM9Bcyh9eSywA+T2lOR0oBJaPYjb3Z5WVMaOE4ZPzVWrFyzp0K9F8r5OneoTcgBqpLTAwDYRmcwlkHVRxf+jlibsri87z1XJjBX6NlTEly+5DRFrQjseF7F3NhaYNvKUrEDLVpeK13WGfLOfRRGrxkBKvv+oQkA95UmwEManJLMqSjfwOpA0WLgjTePwIIJYODHR3CZ8VTT8tgbXIO+VgK/TQSOjgIe2xQE6evHEj/79mmCX0qaAICIPTilLC7vG/LmEfiTkeV9Q85U9IoA+0aWQLv3nI36mPv+fBzVeK5l7HYY6G+/1fOEmhGgQkxKmoBzDyQSnBIs7wPiQXF0hCDEws/Rv4zXFzdWNg85qXF3RSmMHmr21AX3wGYQoEJMuGlw7pG4VIJT+kY5s9ZPAy3CC4SA5X1onQZKQhtT7SfS9rL83cIzspYaUTquOQr0N8v4pc8dohkEqOzboQl+uaEJksVWr0gpc8rCZHYedv8CFk/MssAPk7orjKna8iqhtreyhKxbQ8H0E84LBAEq+6hBFe4DFQ15+vkDNW0St2ZwKoZ7hcUB+5ArFZgr9IDzJbXjkvItsOPJUml4XUJmZalfZVlUWoOvG/D9r+C20JyQA1QEG7CukiZIEg+NxG2QORXDRMtaBhUTXGCx0APOnzhFjKtalKXU+LqUzMKcpsqC6WeB/kYZtxxzS2hWyAGq/3F61pqcJe/p5w8ENdPEeU/7/idBqVSW9d2pIa2eCS7QrtD7NMv70lIG+NxLbcWIlSVlWxdM1zFNqPfAUwqjN48lfnFgmd+9giZIzjeaIE0pBqeMTGaZ4ALrTc5CftE4IvsxLYFOyLPEzoHMZ84NHGoVBdNDzZ4aaeF6NIwAFWLzlSZITkETpKczGMuk7suGEzvrWXfW6k+xvA9YLA/8+Mh+TFNoz8kUX8ZLLSoLz86NC6b7f64b8LllaV9LQg5QMemMZ3CT8gMV9Sqffv5Q0gxp6QzGMqDZNDjlrnp71oMl1u75THCBxUIPOJP9mKbQnpP/pHYC9MWOlaV+gw3/uVB37htSGL09ZFAhNtxMON+IWGcw7m8xEDLPaP0pJrjAYiH36Vs/SePFX5pCW5GQZDkT3/8ujTxDMz8+6a85npEC61mI9z1H9lSrCFDF4RVNMPH08we5qRS0BAMoxEU2g/AfCUxt+7atNN4U1gbpBcv7gIUTtND7M+MphCLlDaEkWGLhOSoF07MV7307LtzsqWPGLe0KNkB11dvjochNe1MsJ0kHmRkJ0J1KZUlft4J/XWm8Oay9kOB+DCyWB358vARKFzWoAqFF60+NHO6qGe5Hgc5f5aXakO7fLjKo4sAufr8jaJHI4Ekz5hAx3anvB/c5s/f7glMGLPQi9OcspyhZjK8CorvJWeiPuRY+X0izrA4DPX6W9gUg9AAVN8f1JnFwd8v8SgZVSXhPE0R/X5M3bNeu2rdsZjMCNCU+szTBoX4NsFTQYzeKBCetDPAZmCd+TqwUTD/T8coiJy7M7KlzxixhCD1AxUWyuowm+A3Bi/gNaYI4zdSbOqM17Exm52ByC9jt0/TfhOmyMoR1TmRebGGpnwSf5i7107p73QCP+dbZWUYZPZb4MciJFcv8Ij+/LO+Lk2aDVlVvah7Lg25r93nq1wALGMgG4SUxQpPRBO7cyDjmYME9LtQXjz0Ko4cj9AAVg9vVvaAJ7ukyP4JU8SJDLkKdwbjrJsGpOgMxpeEmsnafL7iqgYVCDzh/4xQlL7QJe5b6CdEgipWlfoPZpX4asMpDHKv4dmXOGBAyqBjoxIwgRpzKp58/8CCJiC7p++gmKeF11yUoDTeVqcE5tRyApXYDPz76L7gGwny2Fs5GmQsZs5zM/HWw2VNcVWGhBlU8Mt2KHUqDGCUtER0CjxHx963cTQqhHzTx37vq7Vm+J+SGjrXg6gaWCr1AOmNwhOYfmuAX2W3OwpK0o+e72Rf/uQ70nndKvbXwsIsfg53YUfAuLnJPOKcZ7NOsKXmbJkv6sob+s2YHIbotsyUs0QfsjtkKTg/oM+HSpX7HRg43D/TclcwpwhR0gOqqt8cDcv0bAH4nWVQEOiM6nxRHt28ma+qohcGIVZmx4yX7AlhA67KEnPVecpaAsH2/KYeOYPI2KIweKGpQxeUVTfA7DWZc0BLRICPOsJaypmKZdFl7c0yACrDbn284RXBkwlog9ZMIsqzvUmt5IUAWAlRcPPFOYJpyzs07jvOouzPCoBazpmKZdJmqMUhNB2CpLPDjI8AM2HnW8iJ+PZaWRybJQoCKQe4aExg/CSRI9YBmUXEjsv8wIXvKoJkd+trKmppVGG5KSxmyBVc+sFQW+PHxUg8hymmCP32/KfuOoPI6LniJFjYLASrSjLl5b+3p5w9DR7DT9MOE2lP2dAZjyZb64RraoY9JVzC41wLLvQh8wltwigBTejTBSkYa0EPALASoiAivhzpU3Lyjm+w+/fyBh4khspzPfyQwJfWmglmadtXbs/w8yQ0dKy+WgOVCXrJLIB8w5vtNKeMbdqR7HCtqDGCJX3xymmC+p58/FG6yqx9sIbBoRGcwzgJazvcQLztoayAUGf0XQMVOmTcvNSQ71Ia/Qz9AeePtJzycqdVJvZfctxsdcD4JduTOWMHhhF1qYBEBkzpT/uvEtVsA/TFmB23PdzNrtQXJwACWy0IeR/p7Ts4pgrdLE9jx/aa89X1XMoQ+0hpzxyVkTxnxt5HjlLc5FP9enQwsmNTPIXWMfr55J28YzmgNEw8TsqcCpoEpCUoduvCDvt8MN7W1Hfx4/gAL+Alk6P1ZxttfOFOAPf75e+nvMbJa5IDW+M2pBPBoBhueGDlO0o3X8y9NsNjTzx9kjTZL/cLXozB6mHRnvr6bFECXzCkLARTLzxEyPoF48MIVQK3jZ0cm82/jv+83JfW5DLESoKLg6pqDH6kFQzNw8zbs/OnnDwQRA2M0MPVrgMKElnYGACBmmil0Skv8NueDIVYCVAWnam2kdi6hmTlvaYlgJ7g8WANiPDAlbq96eyVnspm2pgmApTKaAECdNGOI+bNz57rDIQxhiV+8uCk9QotvUzAvvMntW5b2hUF35ZN6bVYDUzxDmlfSBMBSGU0AoAGpZw6RSWaUiQDVVW/vlkHvWk5l90Oa4XFaj2pISwRDglP09ZbJTqD+M3CTwJQUQbdeA+mr8eN/ZehYWZIPAEDLvt+UMp5OOUBzTGF0m54YOlYCLiu201Vvr08zrHcD4/oKQk+z2tCSzmDc9Z9rN9nBqRvTfZGzCwAAUvL9puwnOgYq/G8fcgXY9LehY5UtwqmrtMIknyZYjywn+/nm3WudlLO7TjuG/jzwIGmBbqhw6CYBqVh3iyNA1RzeVgLLvaIJADToWOc4zIdhgqUMqoLT9SiW9m1opmg6k6vmSXCKB0mDtOi5ZEvJgCWWZXyLUCC9WTyDAAAIxPebUubQ5ynNh3V5I4wyE6DyE4yC07VUmdjNp3Ja+0gyqQhSNYfgVIM6g/GB1pb66T/ynSfws2N4duRcvQAAYEOnicxvmA9H4G9jxytvZlmCNV9Pi8ljC08/fxjNLPfboUVqRXCqARKU8l//uskS6RSv6a9cBQAAIFVSLPz5biZj7o+R/1QKo0fAWoCqcASo5rkkw6w6BKkaQXCqJrJ8z00yblIOSs1iyRkAAEja95vy8vludunirekshdEvOdP2WQtQyZvwI07bbyRKzES/YhqkeuYonF4HglMV00LnMuB45dhM4jcE7xtX0gTAUowpALTlNNJxIvPhiFjMoMLvLljaV4+Z3f0kHTanRSrRY7e+7WlASq7JV/qd0So8M0JAYVLgUWRmA2jLSazzYcYf8TAVoJJAjJ+YUYfqXunbpE8z1Ed393v98807KSjdpUU2drdLom9PAgYb8Pe9fb3vEZBaD/WnAACIA0v2t/B8N5PxY4zZU+X3m5L5cESeGDxmJrj3SGVsiC5Jkw/ZapsNKF4SnNqMZktdu8mue11HcIrnBQAA6WEMvqHnu9mOjiOZDyN4FgNUvBHXiRe1VZqlS9NkyR9vcFYnW72+9m1X0hQbO6QJNsM9EgAA4K6Gcxbh77r8flMy1osMGVR2HdMEzZPi6W4SpDqnNZaaLuk71mWS2IDuyNelJTYbtNAEAAAgZc93MykREWvtqZIzHB9zASotCJ56BsvQtwNZPC2RgIsEXtwkUMWNcX5g4JlvIwIE25M3XhTU3QzZtgAAxIO5z2bOYh4na20tROSJ0eP+lPh5O+XSbZ/WVHrJ+fildJPlfG/JmqrMfzTBxgqaAACAaPyPJljP891MXnTmkf/MAWc6LlYDVClPPM6vensll24YNJuq7//4zKW7pEiCUae+HZ5RCL06ncG46yiIvqmSLFMAAJAqLYx+ksBPzfxv7XPG42EyQKWFb1PM0LgLBHDZhkeKgEvmkJss+ysS+ulyPT7TIB2qdUITbKygCQAAiAovntYjmUWplIk40VpbiMATw8eeYrbKhdbgQqAkg8h/JEgVc6BKrkEpEn8XmGI5X/XIntraJ5oAAIDoxp9YgdZlOkjsZ7PULxKWA1SpFcCdBgVgwEygSmpUDSP5WaW7z5iS3flKznRtyJ7aTkETAAAQFcadK9ClfSkGa/ZZ6hcHMqjsIHvKoKefP4z8pyd/9J9jow9X6WtvtcYUGVM1I3tq++uVe2XrA2MAACr1/aYsaYWVHCU8jjz04xDG0MaZDVDpBKRI6FwNuVzt0mLq5xLkcZOsKsmGC/lBK0Gpu8Ca7sp3yVlsDNlT2/lKE7SKGhDAcgVNAKyN+lMr0DpMKY8jU80ei8rfxo9f6ozkCZynITv3xUOyqvRBe/zzzbt9vYb/bflaLnXQLJP7S7Kk2kH2VCUIpgIAEBfGpas5owlc/nw3O/p+U1IaxyjrAarLRDoiO/dFaiZYdXcT/fnmXe4mGQgv9LuObIRb/W/K55v/FNSTal9nMN5hYLG1EcF8ANjasSNjBWHh2f4ICcq4NBI3ViG7+g2/35QENg0yHaCSiYif1I1c3EsKyJ5KiBRXdw/S/3++eZe5SVaNXOfT+i6vVvjXyU3523Tirn89IjsqWEcune2A6/KeJgCArY38xK6gGQAbtP4jJSLuTZf6vaUp7Pk7gt/w3sUdoGLClTjNbpIPg8VIdQbjzH8d0hJbi3V5360jeAkAAOYbME74w8Hz3ezg+01J6QdjnkTwG2K+6GS5SsFlCkTvjIFFJffLMtbfZuhYKZIOLGfhPpVxmgAbnu9muf86oCXmGrC7sD3mA1Q6IYl1nfwFlygQt85gzMCiGmSbhoGBILDcjYFjzDhNQPg0+MKudcvHJNR3NeZJJL8jxonJ7VVvb8glCkSPgUU1SOEGAAApkfqlGc2wVFezzGBELAGqYYTnhuwpIHKdwbjPwKISBZtJBOMfmgAw7xVNAITt+W4mS+opjL4alvoZEkWAyk9MpIBsbG/Ph1yeQLy0MDoDi2rEvryvNHSs1KAClitoAgAVIAN/dYy5DXkS0W/5FNFvuSQbAGBggdXvmZH/vhtOMYAGEWgGAvZ8Nzuin67tSLPOELhoAlRar+k2kp/ziUsTiFdnMJaBRU5LVGKoWbQIQ0YTAEtZuF+xFAYI1PPdTJ6zZANthpfDBjyJ7PfE8Bad4uhAxFjaVzkC+mHJaAJgse83pYmdp8k0AIIlu9IRRN7Mvr+39WmGsMUWoIqhsPiQyxKI2oCBRWXKq95eCrv3FZxqAA3jOQUE5vluduC/DmiJrZwQgA9bVAEqP1GRt1Ij4z/jPZclECfdtS+nJbhfRj6A5hoHlisMHCP9GAjr2SpB4zNaohK0Y8CeRPibLE9YSg2yAYhMZzBmO+DqDWkCAKjFLk0ABEXGkFmAxyV19Z59vyn/8t9vjbRlroXmEaAYA1RDZ7dYOtkAQIQ6g7G89fpIS1Qqmd1O/aCvMHbIOZcnsNRXA8eYcZqAMOiStFADKhd+nFLqeEXKLlgpvXCiBecRmOgCVLqbk9WaJEMuSSBKZwz2K0dAHwDqk9MEQDBC3X2u/H5T9h/8bz1nZ7dSdvUL0JNIf5fFYumjVLIBgJR0BuOu/+rSEtUOiBIpjv7bbzZ0rK+4RIGlCgsHSXYBEEQ/lMypUIt69x7+D99vSglOHRtp3lwLzyMgUQaotI5TYeywyQYAIqN1p3g7w/2yCqWhY2X3L2A5K6Uo2OkKaJEGiUOtX3q5qASB/9+HhubiAy1Aj0A8ifi3WZvAFFyOQDyoO1Wrcya0TGoBq/zkbURfBrACKRERYvBExiS9R/4elvphI9EGqK56e0Nn540zu/cB8ZHgVEYzVG6otQZT883SwWpBVwCLWRj3sVwXaO85KkvPQl1+dqpL+RbSwumnRpr7gKV+4XgS+e+zkkV1yaUIxKMzGMubmJyWqGdQlOjvthaUy7hUgaVKA8dIoBlogS45Owv08Ebfb8qVMtn177OShHHGUr8wxB6gOjcyqP/EpQjEgaLotSoS3kzCWpYtE1tgOQtZkTtkQwKtkLpTWaDHtm4B9J6RNs9cuPW+khJ1gEqXgYSenXTrj7PgUgTs6wzGkh7MOvb6nCb8261lUL3gcgWWog4VgD9oUPgo0MNbWBh9Ea25Z2X8duTbP+cqbNeTBH5j6B2i4DIE7GPHvtqVKQfzDRVVZlILrMZKn6YOFdCsUMeS8qLseMN/VlY1lbQ/VhF9gEqXgwwDPkSW9wHGaXDqiwtzp5VYnNIEZgZ3IqOWA7CYFhC2kBmZc7aAZvjnpmROhfqC50LvW5vc71bZ9S+k8Uufq7E9TxL5nRcBH1vBZQjY1RmMp9vTMhmvT6k7sybfDsaOlywqYDkLWVQZdaiA+vl+lrlwayCV32/K/jb/Al0aaGVjsBPue+1JIkDlJzYyACgCnXSVXIaATRqc+sJEvHZkT018NXa8OacMiKJP05eB+smufaG+7Dyu6N8jWVRWamqy1K8lTxL6rSFOcAouQcAmglONIXvqnrVC6dSuAZajDhUAyZ6STXYOAj284vtNWUnmky71s/LScV+XXKJhyQSotLhuEdhhfeUSBOwhONWoC5rA3GT21+COUwYsn/gZOc4DasoB9dC+dRbwIVZaO+r7TXluaDxzoksv0aAnif3e0CK2RawN7SfwdGbEem0TnGqOvGkb0gy/WAtQ7VDDAVg6UZN7XGnkcHPOGFALqTsV6rzpfNPC6I+wUjB9WmcWDUoqQBVYFlXs9afO/ESeDo2oEJxq3Km/T97SDCYns0xqgdUURo7zX04VUC19iRPqMrLaluP58Yy8cDu3Mo5hqV+zniT4m0PJohrF2sA6iZd11F2CVIjsuiY41RwJ4p/TDH+2i7HjpXYNsJyVcg8HnCqgciHPky70xVidc3IrLyFPWObcnOQCVJpFFcIWlzHXn5odxBCkgnkEp1rBzn1xPDuY1ALLFUaOc0cLOQOogGblhDquLL/flP06/wMa/Do2crpY6tegJ4n+7hA6wyji9n2YBk6QCmZpPTWCUw0PjNi5L55nhx+E55w2YOEkrXR2MiP/44wBlTwXZWx5kvpc2d//ZKxXGDltBwTpm5FkgEprPw1bPoYixradWd73kASprvX/B6xczxKUunYEp5pG9tRiFl9uULsGWO7SyHGymx9QDdm1L9S+VHy/KZu8Jx0bOm8D7oH1e5Lwb29zAhRz9tSyyLJM8r8QpIIF/jrN3SRziuu14fsj2VOLabaFtcLxvHEElvtKfwbSoFk4IfejRufIWjDdyrhP5gQnXMX1SjZApVlUbQWpYg5QPVYQV4JUPzQzBQiSvz67juBUW45pgkcVxo43052KAMyfoF0aOtxDzhiwGc2+OQv4EIf+ftTGGEPGflZevh1RuqBeTxL//ectdYabiNt0lTcCdwWnO4Mxb+EQHK2XRs20dhSxLn+u2DeDx8xgDljOSpBqn4AzsDHJvskCPr5Wkje0YLql8g4s9atR0gEqPxFqqzNEOQHTrKhVO6v8fR/9P3NEN0Qg1++O/0jWVJfWaE2PJoj2GUJxZWC5T4aOlSwqYE2adRPyvOdUywi0wv+3JXHEyiqjzLHUrzapZ1BJkEo6Q9OdMdYlfptkRJ1Jxgp1qdCmmWLoOa3RmnNdeo3HB3GFwcMm6wJYztIyvy7ZA8D6c56Aj02SNs4DOA5LZR6OGNfU4wlNcKfJt/a3mrkVo1cb/nNdN1nyRydH42bqTWW0RqsDI3buW09h8JjJogIW0CUuloJUZMADK3q+m/Vd2DtCX+g9qO37oIxthoZOLSVBakCAyt1lURUNDgpiLpCeb/HPTnf463JFogm6pG9ab4o3we06jThwX5evBo+ZuoPAcqaW+ZFFBTzO95PMhb0stvx+U/ZDGhM6OwXT9zX4iAoRoLrX1O4BZaST/byCf40MdAYs+UMD1+tdQNRRbyoEI11qjfUUBo850+21AcxnKYNKxmlkUQGPC/1FaFAZ7FoH68LQ+T3RICQqQoBKae2TJjpDrDv4VZm2KkEDlvyhFlqY/4sLO9U6Jcc0wUYDuMLoobPMD1jcr60t8yOLClhCX8rkAR/iyN93hgHeC/vOVlIHS/0qRIBqxlVvr4nOEOsSv1cV//vuilZ3BuM+VyaqMLNLnxSpZEAdhqEuscZmLg0e8wFvGoGlLC3zI4sKWECDt6EHLkJ+SWhpZ+fcn2/uhRUhQNV8Z4i1zkpd2SgnElTwHyY02Ji/fuQN1g/HLn0huXVkT23rq9Hj7nLqgPk0m8HSWJEsKmDBHMaF/UK0CDkbW4/N0os4lvpVhADVA/o2f1jzvz9GdXbI3E2yqYhMYy2aNfXR//GjI2sqNMcURt/apdHjZkILxNO3yaICHvDPuNxAv7Cwe7KlF5kWMuZMIEC1uDMwcVo9CJA31OnP/H/rmtpUWPG6lIGBZE1RlDk8xVVvb0gzbEcLiZYGD32HfgksdWHseA/JHAB+cxb48Q0t1LLUcc6pofOesxnM9ghQzaFv9etY6hdr/an9hv9bEqQ6Y6c/zCMBTGpNBa2u+2uqrGZRnXDqgIWTspGxMeOOgQk50Ijnu1nfhb8Rj6Wgj+z0XBo63gFZ4tshQLXAVW9PBv1FDROzGLXRCSU7RgJVXa5WCF3OJwPka0etqZBd6K6pqMZ7o8ed+QEc929gyb3S2PEe6LImIFmaSXgY+GEONTPJBN3dlKV+CSFAtZy85a8yqBTrpOxVS/9deQgMtIg6g6KEaaBSlvNRByNsI90tFdUN3EaGny1kUQGL+/bQ2XuxyaQMqZM+EHL2jMkNavz9sI7EkToRsN8CAaol9C1/lSmQN5E2Vdbyf19uABKkGrDbX1okMOk/PwwMCDDB0r56WF3mRxZVhPw5JUhRnQuDfbrPaUOi974DF34G/4VmJDGGrB9L/TZEgOoRV709Wfda0BLLBySBHIdMdH5Qnyp+GpiSOlNfArr+sNypv5+OaIZavDd87CcM4KKaoHX1WYxqDI32aTazQWr3PgvLuiQwdW61jXVZoqXjl/kJmeIbIEC1mreumjTrMsJAQYjBgbvd2/yx9QlURXe9zQamclrEjIKlfbUO2iwv88scS3NjmaB1HUu86piQDQ0eOtcBUiOBiNDnHJazp6ZOna2lz0cs9VsfAaoVVLirXxlh82SBHteOPiwIVEVC60wRmLKHXfuacWn42Nmi3jiCU7VPyKzZ99cEu/ohlfufjEtDf9FiOntqymDBdMG9cE0EqFaku/oNaQlzZgNV1Kiy3QeH9EGbkyt27WvEheFjZ4t625MzWc5FcKq+CZncPwuDh07mAFJh4fl1HEH21PSeODR2T9ynNt96CFCt2bldvDvxbcrK4EMmQF13H6hi0GTQVW+v5wzuPpKwS63jh2YmsZZrfLHjjUEanPpCS9Tu1Ohxf6TGHCK/B/b9V+g110oN6sQ2J7eE2nxrIEC13uRYIs9vt/hXUCA4DF032fXvWpeNwVY/PHfV1YVDfVja17wL48fPjje2JmbT4BTnrGZ+clk4m1lUO44AJuK9B2b+69DAoUb3Yldrb1p7AUqm8YoIUK0/OZYOcbrhP8uEOix3yxI6g/FP3fmPyLadfihLbl87MhpD9pZ7XuOkX1hucxnss+ONjYkZwanmWc2ikuUtTMwQo4GBe2Dx/aa8jLT9T43NA+ReyKYwKyBAtdnkuO9svsmqw24Ev0EeLnLDuNasqiOKqpvohxIsfulsF4eOdiLlzw/3yIZpfQnr/YG6NYEjONVa/y4Mjz27WkgfiOU+eOBslDmJtiyG0YLpJ2wK8zgCVJtjidFEbJ1MBt5S7FCyqj7KEkCCVeGSDB3/kb54SmsEo9AgPtpxEcFvoG5NuJMyglNMNjc1IPiMSO6Dcv+zkBV4rkvhoqXZYZZezFm5dlpFgGqLibHbrh4VwnegNxGCVeH3x76bZFOVtEaruC+2P1iTwWhh/GfIffYjZzO4SVnXEZwKoX8PDf+EjxQKRgRODNwHZTyWysvbY2craSQno3Q5AlTbTYoLR+ZGKmaDVbIMsE/NquD643TJ35DWaA11p8LwPoLfkLMtczh0MG2h3koKLI8774qmE6SC4Xth7iZlQYK/T+gSuOjpLsbW7otnZIov9hdNsD3JrnGTAMZjE+i/Ivzt8jY1T/j0y82/8J9P/jPSIAnavy4PmEw17lh3WEQYg+gfLo4l2G8jLvBq5VrqukiXJPhr6y+j56TvbG8oIBPKl6lMoBHV/fDaTcqBhGzk+9ZLzk3wLv15YtXBHGRQVUO2UicwkSYJgEyDIde6I+BHzbDKaZ526C5/zxwF1Bt7yBKcCk4s2b0Dsi1aHfAPHPUyQiT3W+s7dn4hgwDG7od9ZyMAcpzoKeoZO94DLbaPB8igqogu91pam4EMqmSN9HPjJtlWpb8WSpqlsWs01wlWRmvUdn2/ZmlfkIPpny6OLEK5tp6RbdHotTMt5Br14NlqBpWeo66zHzy8e37Qt2Ggv8kY8trAMzXprByD2aWMb+YgQFXtRFgGcgsLuxKgwgOF3pi+6bcM1G5ZJljbtSoPrUPHsr+qH6yvuWYZqDGRjW4iJmOZ6DPXLAeo9FzFMAa71b7NcwT0te370kutyZTqeZIxvgQSM0OHLbstHtPL7hGgqmcSPHdCQIAKayrd/a5000DWQ4UW68dq12um/bNLa1TiNddf8AM1qUUVS1CWIFX918yj2eAxiSBAta+TMesIUsVx75CMvrexBUh0GZaFnWWlMHqfa/GukP0Xa+Npf+4YTysCVPVMggfzJsAEqFDToO4lSwbXvm7lmj3h2t1Kz193Q5oh+IFa38WTRSUIUtV3rcjOVGcp/WbrAarI+rj06R6bIpi7/nb0+pvubDf057AX2e+z8KKn9O3+jCvy13lbaQOzkM6fY+OIXyiSXo9jR9F0NGNaJwRrkKwf/3ktE103WWqJ9QwJTpmZgPfdfSZmDO4yfCiuXO0ETAfzZ7SGSeeR9HHp0x81UAob946umwRvZs9ZV5cJx+LE2cgoZYnY7yRIainYkz3oR0kjQFXP5PdWJ75EQdGEXJeWYv2+SqBqfdJmPZrBlNPIfs80SMXufttPMKdLxNhJyCh94x7TPflMdo8kCB30fSPXmkzygnTeeTqL5XcaCRoUZB7OvS9aG/ucMK6ZIEBV38Q3lSAVmWKB3NR02Ro266+zgSoe8sv7+1uawdxAbejiyqISBKm2n3z1nb1ispjfxws3yaSKRZf+HeQ9I9Nsy8fKexxocMc6KysUeGk4/74o98SCa84eAlT1TnpTmMz9jzMdzk2tMxjzxnG7PiuBKumzz3SwTxbkvemOfbSJTTEOYO9269FlJlhvkikTzBNaI6rJWGzlJaZBaJa9tH/PkGXAMnGW5XyrZlueGP/NfWcjeH+e8q59K7C29HFfr72kEaBqYMI7nRjoDmJAXeT6+kgzVNJvS/+Rh9oz7b+pZwoSnLI/eZVnUazZgQOWBK086ZLJvmRN5bRGlGILREufliV/H+nfrdwvdnSyLIGp7pr/eG41i0praFkIsFlcxtb02GfkbC71SzpmQICqmcnu0E0iuDFebCVnOCjUo6q2795K//Wfl/4v5XOe6DX/WjNCYVvMRVRl8nTNkqCFEy6ZLEpg6szZKPjb2AQ8wslYjP1csnZ+kC3ZXL+YCUxtUyTc6nIlK8d9zK5vK90X+wbH7kkv9fuLyxbb0LpHX2iJ4Ly96u1RS6ne6/4/N8lCyCL/uT127Itq4tF38S/tkrel5wzcfwVgJCjFxH6+15pdGNt5t7bF+jrkfPVY1lTLdSPjmUO9X1QVvO1pHUQrbdA1EhwY+XZ9yVW78nm1OF891jpaySFAhSom6gSowjNdkkXWS/19QDI2psGq2LI3CE7FOVCTt+JZ5D+z1IlRkeg5lsnlkU42yZha7FTfrsd4/mMvgH+u548Mku2vF7lO5MVFt457sT9Hzwz1mx9G7pmvU32+bXF+B87Wyxq5t71MMRhPgApVTND/j1YIkgSnqBvUbF+QQV7uP6+c/ewqglPxDtLk2kzlxYIM4JPKttAMgBPH7nwrXR/+2ngd6XWwr/085gCljG8uHBmTm14jkmV36OqvSWciEGwogDH07cnOfeufX0sByKlLf66T2z2bABWqmJQToAr4xqa70qGdviETxH39vNLvEB+MMrCXgOZX/S4IbEY/UJNlXyntjjXUSVIZ8cBbzqdkc2Zc4Wt5Gmtww9BypSqeYQSqVr9XyHVx2OC9Qs7Js5DPjaEXN8lm1SR8T3zrz3dSZVsIUKGKSbjc0HNaItyJ2VVvjzct4fSXTAeF0md29c9ZQwPFUj8ShPqfm2SXyI6FDHTSnKTEvgRoHhnkXcSyNKKmmjGpMVUjZ4NrJKVg9DRQNWQC/8d1IGOO/1x7GUJBZ1EZWvoe5bLkhs+1tXlr8AHeqhGgQhUT7piLcUYzAGe5lom+lM0MkB5mW+0+MniSwfjNgwfatAYZQSjMG6TJNXad6M8f6UT20tqgT4OLB+6+9h22Y6ZGzhbXTIrjNBnzvE+5To8GsLsujMzKYDN/DG0eEv29qsF+8cPa/SylZZ0EqFDFpNrKjT117OwHwOrAvE5yX/zkAg9Wab2YfzXQQLZUtaLeLUmDmpI1sJ/guS3dfeZkmcjkexrADu18BzfJNhasSG6pF2Of3yRTGJ8AFbbWGYzlQfiRlggeO/sBmDdQY5n2PRn8SbBKimePWj4v++5+0wWylOt/PkZd1yXhZb2zRu4+GD2K6NzKfeJfZ2M34Wch9TNDz79oN3Ro8dxfO1tB+1KfU9Ev9SNAha11BuOUl4lYHIQTpALwcOJqbWebxiYFbrJ5gAwMR3VNajUYlbnwN1SI2d3OtzEP/hPZ2W+dyd60fxeWgpMPgte5sfMZTBaVsYLZz6irVvn5z529HY1lI4jj2M8NASpUgp38zA3KXrJLGwDjA7U276HykXvoN/3fZmu+LSKTyOnb2n/cfRBqnyYNhpzDt5FnUhGkWtyvR9qnCzcJSN8GcL7k3pz5zwu9V+QRtHXrS5WMvZhJIijR0nVgcROJ6Jf6EaBCJdjJz+Qg/DVBKgAzAzUZpJ3REqjIXcauXlO5seO+0Enh7Yp95y7IaGXZGEGqta4FOaelm2xCMtL/7baqc63nYsfdB6unwevMxbscs/Xlar7dJXOqa+QaTGoHt4avA4sZ5BI8fxnzeSFAhUp0BuOUtjGOBUEqAFYH7Qh/UiVveUeGC/HLbyjcfZbcQy/c/bLMICbda/Z1glTVjqdWHUtlLu06YFOtZYEYyxju+XYacrnUej1YrKV86q+LfqznhAAVKtEZjGVCM6AlTA6qCFIBmB2sWSscirD8Ck4ZHvxv9Lv9b35qrK8TpEJr48+2skD8dS8ZMxlthJlrwuJKoJcxbfYw6wmXJCpS0AQm3Q1OO4Mxg1MAU5IFwkYK2GhC5SbLUUYP/rcU7OhyETP0PEl/5yUVGh9/apHyRmlGZ2akjag71ZyewftgtCUZCFChEle9vdJN1ujD4CDBEaQCcD9pvTU6WEO75u6CpwXHUxkf7Bvs7wSp0JZGl/4+380yZ2e58TD2QtiB3QflGXVh7LBzrR0aHQJUqBI3UtuDaoJUAJi0YtPJ1MslhXxTGR/k9HdgZVnDE2wrpUikH55yeTR+H+w7exm/Jxp4jQoBKlTpK01gGkEqAPMmrcAyUqy1x/jgzq7x/v7SsbwXzU+wax936nLC3EibXGhGD5pnbVml9J3oakAToEKVCprAPIJUAB5OWnu0BOa4Wwq64k5Cl4m0SWa8v8ukmBp0aHqCXWsWlQbArNTrKWPenc3APVDmsufGDjtvo55bnQhQoTJah4pBjX0SpPrRGYzZxQuA0y2uCVLht0mUm9SbGq54DUkwK4UgVR5Bf7/VncOGXOZoyGHNWVQSnLLy4pXC6O07dfbqJp5Z26RjGQJUqNonmiAKcpP7QpAKgE5aZbJKkAqicJttb53E+MBPEvYj6fM9JstocMx5UFN/zP1X18q91fe7Sy6H1u99t46lfq0iQIWqcWONa8AgQaoDmgKABqkopJy2c38dvF5SDJ3xgfFlfg/6/Dl9HjWb7v45rOnfb2nSzkugcO59lwafWQfPd7Mo5mwEqFCpq96ePGhKWiIaEqT62BmMuzQFAK3PwIQ1PXK+3/rzf7zFtZPKMr/9CPs8xdNRxz3lWHf/LOr4D/jJet/ZCRifUhg9OMcGxzpRLPUjQIU6kEUVn0FnMB7QDABmdvdjMJ2Gu93dKlp6cpFAe72KsM+XWpfqnO6ACgz955lm6NXCT9Iz/3VipD1u6Vth3vfcpB6VJZau+4X+4vJD1bRu0TUtEaXCf95e9fbIngASp2/pvrjIMkbwm/NtsqYWXDc/XETL4OaQYM6ziPu9LCGRF1bs9otNxpDHG9Sv2+Q6lWdTbqRdejUuccT219K1wXHO67oyE5tABhUqxzK/qMnDnuLpAKZLtiSTioF1fG51gFtHodjTyNsui7zfSyadBODIlseqZE7wVuvXNRGc6jo7wamC4FTwLNYGG1he6keACnV5TxNES4JTFE8HMN2Snt2+4nIXgKjr7atOxsqYG1B3Dou93791Nmu0oDnTOlPPmtqdTiflZ4ba6JTLJPj7nQRVrS3BzPznyGqbE6BCXYY0QdSmxdP7NAUAdvuKZjIpWQ5vN9ylj0nZvf2E+r3UpiKbCg/vJdLHa60ztYCl5adDy8uwEiPXc2nsmE+e72Ymn0XUoEJtOoPxR/9Flk385OFKXSoA07fXcu/PaQ1TJMDQayAwNXutWKzrsarzmpZHhtz3qU0FuX9c6PV/28I1KM+dL4ba6lkb7YQkrq+pkW5wYQoZVKgTy/zSIDfsH53BmAkpkDhd+iOZVCz5szNJaipr6qGYr5H9BPv+tDYVu5GleR+ZZkz1WwpOSWDU0m7TFwSnzN3jCmcvW3Tf942+tbYmgwq16gzGse/Wg9+dXvX2+jQDAE0tHzh2+QuVBBJO25wk+WtEasUcRdi2Eqh9mnDfz7Tv53SzqLWaMfXgmpOx54mRdot6p8/I720SCJW57Y6xfvrSX3OllQMmQIVaaY2iE1oiKVJMUJb8lTQFAJ04HDqW/oR0jz4OofaJDvZlyUSMQcxnliYENZ3f3E0CVRndLirBBKb0OpP7x7Wh9ntN7SnT9zV5qXJm7LALzW43gSV+qNu5o2huau4GCp3B+IimACBLPtykkDID8vYnlRKYehnK5Egnt71IxwkZfb8sNFNEznFJFzRPzqEszW1tKd8CloIFBcEp8/e1c4PjmVwDayaQQYXadQZjeXvWpSWSdFd4lwLqAIQWUj5j8t64oZsEp24Dvi4+Rtbmpxqcxf15lrHgCf3fHJmMv/fX8zDAa8paNkvymZWR3MusZe0JM4X5yaBCI4M0miBZMumQAupdmgKAFFLWjIpTR3ZtUxNLyZjqhTwo1QLbvcjafpfL74/zPCSjypShmyxHex1ocEqWCFsqI3JKcCqae9nI4PzWzEYCZFChEWRRQSdKPWpTAZiZXMjbb+pTVU/usz1rS0k0w2YQyTkwub13w+f7QPt/TmsEY1pfahh6MMVfP5J1eWCoXZ+xc190YxjJosqMHfpbfSkULAJUaERnMJbO+4OWYOAjAx92+gPwYJBHoKoaMqE8DTHbYY3roesiCVL588A4e7Vzvq/9v0trtKZwgS7jW3DN5G6ywYIVPcv3ZURzHU7nYkEHS3lwojFkUWHG3S5SV729gqYAoAO9HX1GyEQ1o0XWUjrjgakH14JcB1JXxnrA8qUuBQH3gFAnqnLPuLC09Mxg5oqpHdSw9vVoKZNvSjIkg11WT4AKjSGLCvNukG4SqCLlGcDsgE8mqf85lv48OvHRyeVlhNeAZNXIi619wz+DrIntzv+hTvzIrKyW3C8+Wb02/bXRd7ZqT71m576o71U7Or+1dp8K9rokQIVGdQZjeSN6REtgBsv+ACwa+GUzk9SMFvl1z5QJ5kXs2TkzRZCtjhvYya+a60D6/7+OYNU25F7x3k0yJ26N3xMs7fj5lXtAMveoQ2OHXYaaRUWACo3qDMZWo8xo4EYpg/mr3t6QpgDAJHXuBFOKF1+mVmhX63xIoCo3dugs7anvPiDXQkaLLHWXKaXXYUlzALCAABUa1xmM+85Wai4aHtC7SaCqoCkALJik5u4+WBXzJHWa9XDJBPPX0s8TQ+dc3lA/o8fWdj3s6z3glWM58PR+IWOnrzEu+wWQBgJUaEVnMP7hePOF5WSQRaAKwGOT1OzBJNV6dpVMLL86glLLzrmc5+nSzxCZLD4dyXWRu3QCVjI+Gun9okgtsxJAnAhQoRWdwVgGDl9oCaw4ACNQBWDVSWqmk9MXblJgO+SJ6u2DCSb3ufXO9XTXt38DOM+lPq8+kb0SzPWxr/cAC/eCVcZCcq+4kW/uFQBiRYAKrekMxha35US7gzMCVQA2nahmM5PVHf1zk9lWpX6+6kSzjL3IecPnWM5l7ibZM00EI4rZ88m5NHOdZHovkOvjn5n7QAi7RU7HN3JN3c7cJ0rOHIBUEKBCayiYji0GcASqAFQ1YZ1OUB9OUl9s8HySieTNzJ9LJpitntvM3Qcm5Vz+49YLRHA+07tmcv3j9NrZ5n4wJcGmbw/+ehrQ5HoCgBkEqNCqzmAsW0ef0RLYgAzo2PUPAAAAACJAgAqt6wzGUosqpyWwIXkTKVuvD696eyXNAQAAAAD2EKBC6zqDcea/rh1L/bC9of+8Z/kfAAAAANhCgApB6AzGXf81oCVQkdJNsqouyaoCAAAAgPARoEIw2NUPNZHtvj+5SbDqluYAAAAAgPAQoEIwdFc/WeqX0RqogQSn7oJVV729S5oDAAAAAMJBgApB6QzGsv3zNS2BmkmwSoqqH9MUAAAAANC+JzQBQnLV2xv5r6f+I4GDkhZBDQq5vghOAQAAAEA4yKBC0DqDce6//nOT2lTs8odN3WVM+c8FRdMBAAAAIDwEqGCC1qeSINW/jkLqWJ3UmnpPzSkAAAAACBsBKpjTGYwzNwlSSWbVPi2CBwr/ee/YtQ8AAAAAzCBABdMIVkFJ7bJpUKqkOQAAAADAFgJUiAbBquTIsr1P/lMQlAIAAAAA2whQIUoPalbljgLrMZDlehKU+upYvgcAAAAAUSFAhSToboDTYBXZVXbI0j3JkpKA1IjmAAAAAIA4EaBCcjS7Knf3AauMVgmGBKEKN8mSKsiSAgAAAIA0EKBC8rR2Ve4/LxwZVk0jIAUAAAAAIEAFPKQZVhKkyt0kaCV/zmiZrZVuEpD65ibBqIImAQAAAAAIAlTACghara10M8Eo+Wt22gMAAAAALEKACtiCFl/P9PNCv1NaIihBKFmWJ0v0SjcJRBVcGQAAAACAdRCgAmqgda1mP7v6Pc3EsmIagCr950a/7z5kRAEAAAAAqkKACmhJZzCWQNWO/mU+839Ng1mzMrfdksJSPw//t5uZvy70+/aqtzfiDAEAAAAAAAAAAAAAAAAAAAAAAAAAAAAAAAAAAAAAAAAAAAAAAAAAAAAAAAAAAAAAAAAAAAAAAAAAAAAAAAAAAAAAAAAAAAAAAAAAAAAAAAAAAAAAAAAAAAAAAAAAAAAAAAAAAAAAAAAAAAAAAACm/L8AAwDjp0ll3aBlQAAAAABJRU5ErkJggg==;" vertex="1" parent="D52kMnZtS_Bpdk-7Nocg-21">
          <mxGeometry x="28.99941176470592" y="18.114102564102563" width="92.44246323529411" height="33.77757352941176" as="geometry" />
        </mxCell>
        <mxCell id="D52kMnZtS_Bpdk-7Nocg-23" value="" style="shape=flexArrow;endArrow=classic;html=1;rounded=0;entryX=0.5;entryY=0;entryDx=0;entryDy=0;fontSize=22;fillColor=#353535;" edge="1" target="D52kMnZtS_Bpdk-7Nocg-24" parent="1">
          <mxGeometry width="50" height="50" relative="1" as="geometry">
            <mxPoint x="685" y="510" as="sourcePoint" />
            <mxPoint x="247.10833333333338" y="540" as="targetPoint" />
          </mxGeometry>
        </mxCell>
        <mxCell id="D52kMnZtS_Bpdk-7Nocg-24" value="skLdap" style="rounded=1;whiteSpace=wrap;html=1;fontSize=22;fillColor=#326138;" vertex="1" parent="1">
          <mxGeometry x="640" y="553.33" width="90" height="76.67" as="geometry" />
        </mxCell>
        <mxCell id="D52kMnZtS_Bpdk-7Nocg-25" value="" style="shape=flexArrow;endArrow=classic;html=1;rounded=0;fontSize=22;exitX=0.5;exitY=1;exitDx=0;exitDy=0;fillColor=#353535;entryX=0.774;entryY=0.004;entryDx=0;entryDy=0;entryPerimeter=0;" edge="1" parent="1">
          <mxGeometry width="50" height="50" relative="1" as="geometry">
            <mxPoint x="701" y="250" as="sourcePoint" />
            <mxPoint x="700.94" y="320.31999999999994" as="targetPoint" />
          </mxGeometry>
        </mxCell>
        <mxCell id="D52kMnZtS_Bpdk-7Nocg-5" value="skMerge" style="rounded=1;whiteSpace=wrap;html=1;fontSize=22;fillColor=#326138;" vertex="1" parent="1">
          <mxGeometry x="450" y="433.33" width="310" height="80" as="geometry" />
        </mxCell>
        <mxCell id="D52kMnZtS_Bpdk-7Nocg-4" value="skAuth" style="rounded=1;whiteSpace=wrap;html=1;fontSize=22;fillColor=#326138;" vertex="1" parent="1">
          <mxGeometry x="450" y="320" width="310" height="80" as="geometry" />
        </mxCell>
        <mxCell id="D52kMnZtS_Bpdk-7Nocg-27" value="" style="shape=flexArrow;endArrow=classic;html=1;rounded=0;fontSize=22;exitX=0.5;exitY=1;exitDx=0;exitDy=0;fillColor=#353535;entryX=0.175;entryY=-0.012;entryDx=0;entryDy=0;entryPerimeter=0;" edge="1" parent="1">
          <mxGeometry width="50" height="50" relative="1" as="geometry">
            <mxPoint x="245.50000000000023" y="243.96" as="sourcePoint" />
            <mxPoint x="244.5" y="312.99999999999994" as="targetPoint" />
          </mxGeometry>
        </mxCell>
        <mxCell id="D52kMnZtS_Bpdk-7Nocg-3" value="KUBECTL" style="rounded=0;whiteSpace=wrap;html=1;verticalAlign=middle;fontSize=18;spacingTop=0;spacing=0;strokeWidth=6;fillColor=#406fde;" vertex="1" parent="1">
          <mxGeometry x="170" y="180" width="150" height="90" as="geometry" />
        </mxCell>
      </root>
    </mxGraphModel>
  </diagram>
  <diagram id="chKcdI3WAJRe8GP927dQ" name="empty">
    <mxGraphModel dx="1547" dy="990" grid="1" gridSize="10" guides="1" tooltips="1" connect="1" arrows="1" fold="1" page="1" pageScale="1" pageWidth="1169" pageHeight="827" math="0" shadow="0">
      <root>
        <mxCell id="0" />
        <mxCell id="1" parent="0" />
      </root>
    </mxGraphModel>
  </diagram>
</mxfile>
